G75*
%MOIN*%
%OFA0B0*%
%FSLAX24Y24*%
%IPPOS*%
%LPD*%
%AMOC8*
5,1,8,0,0,1.08239X$1,22.5*
%
%ADD10C,0.0300*%
%ADD11C,0.0740*%
%ADD12C,0.0079*%
%ADD13C,0.0240*%
D10*
X004706Y002620D03*
X005376Y002423D03*
X006002Y003010D03*
X006442Y003010D03*
X006442Y003450D03*
X006002Y003450D03*
X004854Y003630D03*
X006320Y004588D03*
X008966Y002907D03*
X009785Y003328D03*
X009155Y002069D03*
X008210Y001478D03*
X007383Y001950D03*
X010809Y002069D03*
D11*
X010714Y000726D03*
X009714Y000726D03*
X008714Y000726D03*
X007714Y000726D03*
X006714Y000726D03*
X005714Y000726D03*
X004714Y000726D03*
X003714Y000726D03*
X002714Y000726D03*
X001714Y000726D03*
X000714Y000726D03*
X000714Y005726D03*
X001714Y005726D03*
X002714Y005726D03*
X003714Y005726D03*
X004714Y005726D03*
X005714Y005726D03*
X006714Y005726D03*
X007714Y005726D03*
X008714Y005726D03*
X009714Y005726D03*
X010714Y005726D03*
X011714Y005726D03*
X011714Y000726D03*
D12*
X001046Y000337D02*
X001034Y000329D01*
X001448Y000329D01*
X001316Y000460D01*
X001245Y000633D01*
X001245Y000819D01*
X001316Y000992D01*
X001448Y001124D01*
X001621Y001195D01*
X001808Y001195D01*
X001980Y001124D01*
X002112Y000992D01*
X002184Y000819D01*
X002184Y000633D01*
X002112Y000460D01*
X001981Y000329D01*
X002448Y000329D01*
X002316Y000460D01*
X002245Y000633D01*
X002245Y000819D01*
X002316Y000992D01*
X002448Y001124D01*
X002621Y001195D01*
X002808Y001195D01*
X002980Y001124D01*
X003112Y000992D01*
X003184Y000819D01*
X003184Y000633D01*
X003112Y000460D01*
X002981Y000329D01*
X003448Y000329D01*
X003316Y000460D01*
X003245Y000633D01*
X003245Y000819D01*
X003316Y000992D01*
X003448Y001124D01*
X003621Y001195D01*
X003808Y001195D01*
X003980Y001124D01*
X004112Y000992D01*
X004184Y000819D01*
X004184Y000633D01*
X004112Y000460D01*
X003981Y000329D01*
X004448Y000329D01*
X004316Y000460D01*
X004245Y000633D01*
X004245Y000819D01*
X004316Y000992D01*
X004448Y001124D01*
X004621Y001195D01*
X004808Y001195D01*
X004980Y001124D01*
X005112Y000992D01*
X005184Y000819D01*
X005184Y000633D01*
X005112Y000460D01*
X004981Y000329D01*
X005448Y000329D01*
X005316Y000460D01*
X005245Y000633D01*
X005245Y000819D01*
X005316Y000992D01*
X005448Y001124D01*
X005621Y001195D01*
X005808Y001195D01*
X005980Y001124D01*
X006112Y000992D01*
X006184Y000819D01*
X006184Y000633D01*
X006112Y000460D01*
X005981Y000329D01*
X006448Y000329D01*
X006316Y000460D01*
X006245Y000633D01*
X006245Y000819D01*
X006316Y000992D01*
X006448Y001124D01*
X006621Y001195D01*
X006808Y001195D01*
X006980Y001124D01*
X007112Y000992D01*
X007184Y000819D01*
X007184Y000633D01*
X007112Y000460D01*
X006981Y000329D01*
X007448Y000329D01*
X007316Y000460D01*
X007245Y000633D01*
X007245Y000819D01*
X007316Y000992D01*
X007448Y001124D01*
X007621Y001195D01*
X007808Y001195D01*
X007980Y001124D01*
X008112Y000992D01*
X008184Y000819D01*
X008184Y000633D01*
X008112Y000460D01*
X007981Y000329D01*
X008448Y000329D01*
X008316Y000460D01*
X008245Y000633D01*
X008245Y000819D01*
X008316Y000992D01*
X008448Y001124D01*
X008621Y001195D01*
X008808Y001195D01*
X008980Y001124D01*
X009112Y000992D01*
X009184Y000819D01*
X009184Y000633D01*
X009112Y000460D01*
X008981Y000329D01*
X009448Y000329D01*
X009316Y000460D01*
X009245Y000633D01*
X009245Y000819D01*
X009316Y000992D01*
X009448Y001124D01*
X009575Y001177D01*
X009575Y001452D01*
X009207Y001820D01*
X009205Y001819D01*
X009106Y001819D01*
X009014Y001857D01*
X008944Y001927D01*
X008906Y002019D01*
X008906Y002118D01*
X008907Y002121D01*
X006578Y004449D01*
X006533Y004449D01*
X006532Y004447D01*
X006462Y004377D01*
X006370Y004339D01*
X006271Y004339D01*
X006179Y004377D01*
X006109Y004447D01*
X006071Y004539D01*
X006071Y004638D01*
X006109Y004729D01*
X006179Y004800D01*
X006271Y004838D01*
X006370Y004838D01*
X006462Y004800D01*
X006532Y004729D01*
X006533Y004727D01*
X006693Y004727D01*
X006774Y004646D01*
X009103Y002317D01*
X009106Y002318D01*
X009205Y002318D01*
X009296Y002280D01*
X009367Y002210D01*
X009404Y002118D01*
X009404Y002019D01*
X009403Y002016D01*
X009853Y001567D01*
X009853Y001177D01*
X009980Y001124D01*
X010112Y000992D01*
X010184Y000819D01*
X010184Y000633D01*
X010112Y000460D01*
X009981Y000329D01*
X010448Y000329D01*
X010316Y000460D01*
X010245Y000633D01*
X010245Y000819D01*
X010316Y000992D01*
X010448Y001124D01*
X010589Y001182D01*
X010589Y001946D01*
X010567Y002000D01*
X009879Y002688D01*
X009088Y002688D01*
X009016Y002658D01*
X008917Y002658D01*
X008825Y002696D01*
X008755Y002766D01*
X008717Y002857D01*
X008717Y002957D01*
X008755Y003048D01*
X008825Y003118D01*
X008917Y003156D01*
X009016Y003156D01*
X009088Y003126D01*
X010061Y003126D01*
X010189Y002998D01*
X010877Y002310D01*
X010950Y002280D01*
X011020Y002210D01*
X011058Y002118D01*
X011058Y002019D01*
X011028Y001946D01*
X011028Y001076D01*
X011112Y000992D01*
X011184Y000819D01*
X011184Y000633D01*
X011112Y000460D01*
X010981Y000329D01*
X011394Y000329D01*
X011382Y000337D01*
X011326Y000394D01*
X011279Y000459D01*
X011242Y000530D01*
X011217Y000607D01*
X011205Y000686D01*
X011205Y000687D01*
X011675Y000687D01*
X011675Y000765D01*
X011205Y000765D01*
X011205Y000766D01*
X011217Y000845D01*
X011242Y000922D01*
X011279Y000993D01*
X011326Y001058D01*
X011382Y001115D01*
X011447Y001162D01*
X011519Y001198D01*
X011595Y001223D01*
X011674Y001235D01*
X011675Y001235D01*
X011675Y000765D01*
X011754Y000765D01*
X011754Y001235D01*
X011754Y001235D01*
X011833Y001223D01*
X011910Y001198D01*
X011981Y001162D01*
X012046Y001115D01*
X012103Y001058D01*
X012115Y001040D01*
X012115Y005468D01*
X012112Y005460D01*
X011980Y005328D01*
X011808Y005257D01*
X011621Y005257D01*
X011448Y005328D01*
X011316Y005460D01*
X011245Y005633D01*
X011245Y005819D01*
X011316Y005992D01*
X011448Y006124D01*
X011466Y006131D01*
X010963Y006131D01*
X010980Y006124D01*
X011112Y005992D01*
X011184Y005819D01*
X011184Y005633D01*
X011112Y005460D01*
X010980Y005328D01*
X010808Y005257D01*
X010621Y005257D01*
X010448Y005328D01*
X010316Y005460D01*
X010245Y005633D01*
X010245Y005819D01*
X010316Y005992D01*
X010448Y006124D01*
X010466Y006131D01*
X009963Y006131D01*
X009980Y006124D01*
X010112Y005992D01*
X010184Y005819D01*
X010184Y005633D01*
X010112Y005460D01*
X009980Y005328D01*
X009808Y005257D01*
X009621Y005257D01*
X009448Y005328D01*
X009316Y005460D01*
X009245Y005633D01*
X009245Y005819D01*
X009316Y005992D01*
X009448Y006124D01*
X009466Y006131D01*
X008963Y006131D01*
X008980Y006124D01*
X009112Y005992D01*
X009184Y005819D01*
X009184Y005633D01*
X009112Y005460D01*
X008980Y005328D01*
X008808Y005257D01*
X008621Y005257D01*
X008448Y005328D01*
X008316Y005460D01*
X008245Y005633D01*
X008245Y005819D01*
X008316Y005992D01*
X008448Y006124D01*
X008466Y006131D01*
X007963Y006131D01*
X007980Y006124D01*
X008112Y005992D01*
X008184Y005819D01*
X008184Y005633D01*
X008112Y005460D01*
X007980Y005328D01*
X007808Y005257D01*
X007621Y005257D01*
X007448Y005328D01*
X007316Y005460D01*
X007245Y005633D01*
X007245Y005819D01*
X007316Y005992D01*
X007448Y006124D01*
X007466Y006131D01*
X006963Y006131D01*
X006980Y006124D01*
X007112Y005992D01*
X007184Y005819D01*
X007184Y005633D01*
X007112Y005460D01*
X006980Y005328D01*
X006808Y005257D01*
X006621Y005257D01*
X006448Y005328D01*
X006316Y005460D01*
X006245Y005633D01*
X006245Y005819D01*
X006316Y005992D01*
X006448Y006124D01*
X006466Y006131D01*
X005963Y006131D01*
X005980Y006124D01*
X006112Y005992D01*
X006184Y005819D01*
X006184Y005633D01*
X006112Y005460D01*
X005980Y005328D01*
X005808Y005257D01*
X005621Y005257D01*
X005448Y005328D01*
X005316Y005460D01*
X005245Y005633D01*
X005245Y005819D01*
X005316Y005992D01*
X005448Y006124D01*
X005466Y006131D01*
X004963Y006131D01*
X004980Y006124D01*
X005112Y005992D01*
X005184Y005819D01*
X005184Y005633D01*
X005112Y005460D01*
X004980Y005328D01*
X004808Y005257D01*
X004621Y005257D01*
X004448Y005328D01*
X004316Y005460D01*
X004245Y005633D01*
X004245Y005819D01*
X004316Y005992D01*
X004448Y006124D01*
X004466Y006131D01*
X003963Y006131D01*
X003980Y006124D01*
X004112Y005992D01*
X004184Y005819D01*
X004184Y005633D01*
X004112Y005460D01*
X003980Y005328D01*
X003808Y005257D01*
X003621Y005257D01*
X003448Y005328D01*
X003316Y005460D01*
X003245Y005633D01*
X003245Y005819D01*
X003316Y005992D01*
X003448Y006124D01*
X003466Y006131D01*
X002963Y006131D01*
X002980Y006124D01*
X003112Y005992D01*
X003184Y005819D01*
X003184Y005633D01*
X003112Y005460D01*
X002980Y005328D01*
X002808Y005257D01*
X002621Y005257D01*
X002448Y005328D01*
X002316Y005460D01*
X002245Y005633D01*
X002245Y005819D01*
X002316Y005992D01*
X002448Y006124D01*
X002466Y006131D01*
X001963Y006131D01*
X001980Y006124D01*
X002112Y005992D01*
X002184Y005819D01*
X002184Y005633D01*
X002112Y005460D01*
X001980Y005328D01*
X001808Y005257D01*
X001621Y005257D01*
X001448Y005328D01*
X001316Y005460D01*
X001245Y005633D01*
X001245Y005819D01*
X001316Y005992D01*
X001448Y006124D01*
X001466Y006131D01*
X000963Y006131D01*
X000980Y006124D01*
X001112Y005992D01*
X001184Y005819D01*
X001184Y005633D01*
X001131Y005505D01*
X001516Y005121D01*
X003898Y005121D01*
X003979Y005039D01*
X004727Y004291D01*
X004727Y003847D01*
X004727Y003847D01*
X004804Y003879D01*
X004904Y003879D01*
X004995Y003841D01*
X005065Y003771D01*
X005095Y003698D01*
X005595Y003199D01*
X005595Y002545D01*
X005623Y002478D01*
X006338Y001697D01*
X008088Y001697D01*
X008161Y001727D01*
X008260Y001727D01*
X008351Y001689D01*
X008422Y001619D01*
X008460Y001528D01*
X008460Y001428D01*
X008422Y001337D01*
X008351Y001267D01*
X008260Y001229D01*
X008161Y001229D01*
X008088Y001259D01*
X006327Y001259D01*
X006323Y001255D01*
X006237Y001259D01*
X006151Y001259D01*
X006147Y001262D01*
X006141Y001263D01*
X006083Y001326D01*
X006022Y001387D01*
X006022Y001393D01*
X005295Y002186D01*
X005234Y002211D01*
X005164Y002282D01*
X005126Y002373D01*
X005126Y002472D01*
X005156Y002545D01*
X005156Y003017D01*
X004785Y003388D01*
X004727Y003412D01*
X004727Y002869D01*
X004756Y002869D01*
X004848Y002831D01*
X004918Y002761D01*
X004956Y002669D01*
X004956Y002570D01*
X004918Y002478D01*
X004848Y002408D01*
X004756Y002370D01*
X004657Y002370D01*
X004565Y002408D01*
X004495Y002478D01*
X004457Y002570D01*
X004457Y002669D01*
X004458Y002672D01*
X004449Y002680D01*
X004449Y004176D01*
X003783Y004843D01*
X001401Y004843D01*
X000935Y005309D01*
X000808Y005257D01*
X000621Y005257D01*
X000448Y005328D01*
X000329Y005448D01*
X000329Y001061D01*
X000382Y001115D01*
X000447Y001162D01*
X000519Y001198D01*
X000595Y001223D01*
X000674Y001235D01*
X000675Y001235D01*
X000675Y000765D01*
X000754Y000765D01*
X001224Y000765D01*
X001224Y000766D01*
X001211Y000845D01*
X001186Y000922D01*
X001150Y000993D01*
X001103Y001058D01*
X001046Y001115D01*
X000981Y001162D01*
X000910Y001198D01*
X000833Y001223D01*
X000754Y001235D01*
X000754Y001235D01*
X000754Y000765D01*
X000754Y000687D01*
X001224Y000687D01*
X001224Y000686D01*
X001211Y000607D01*
X001186Y000530D01*
X001150Y000459D01*
X001103Y000394D01*
X001046Y000337D01*
X001080Y000371D02*
X001405Y000371D01*
X001328Y000448D02*
X001142Y000448D01*
X001184Y000526D02*
X001289Y000526D01*
X001257Y000603D02*
X001210Y000603D01*
X001223Y000680D02*
X001245Y000680D01*
X001245Y000757D02*
X000754Y000757D01*
X000754Y000835D02*
X000675Y000835D01*
X000675Y000912D02*
X000754Y000912D01*
X000754Y000989D02*
X000675Y000989D01*
X000675Y001066D02*
X000754Y001066D01*
X000754Y001143D02*
X000675Y001143D01*
X000675Y001221D02*
X000754Y001221D01*
X000840Y001221D02*
X009575Y001221D01*
X009496Y001143D02*
X008933Y001143D01*
X009038Y001066D02*
X009391Y001066D01*
X009315Y000989D02*
X009113Y000989D01*
X009145Y000912D02*
X009283Y000912D01*
X009251Y000835D02*
X009177Y000835D01*
X009184Y000757D02*
X009245Y000757D01*
X009245Y000680D02*
X009184Y000680D01*
X009171Y000603D02*
X009257Y000603D01*
X009289Y000526D02*
X009139Y000526D01*
X009100Y000448D02*
X009328Y000448D01*
X009405Y000371D02*
X009023Y000371D01*
X008405Y000371D02*
X008023Y000371D01*
X008100Y000448D02*
X008328Y000448D01*
X008289Y000526D02*
X008139Y000526D01*
X008171Y000603D02*
X008257Y000603D01*
X008245Y000680D02*
X008184Y000680D01*
X008184Y000757D02*
X008245Y000757D01*
X008251Y000835D02*
X008177Y000835D01*
X008145Y000912D02*
X008283Y000912D01*
X008315Y000989D02*
X008113Y000989D01*
X008038Y001066D02*
X008391Y001066D01*
X008496Y001143D02*
X007933Y001143D01*
X007496Y001143D02*
X006933Y001143D01*
X007038Y001066D02*
X007391Y001066D01*
X007315Y000989D02*
X007113Y000989D01*
X007145Y000912D02*
X007283Y000912D01*
X007251Y000835D02*
X007177Y000835D01*
X007184Y000757D02*
X007245Y000757D01*
X007245Y000680D02*
X007184Y000680D01*
X007171Y000603D02*
X007257Y000603D01*
X007289Y000526D02*
X007139Y000526D01*
X007100Y000448D02*
X007328Y000448D01*
X007405Y000371D02*
X007023Y000371D01*
X006405Y000371D02*
X006023Y000371D01*
X006100Y000448D02*
X006328Y000448D01*
X006289Y000526D02*
X006139Y000526D01*
X006171Y000603D02*
X006257Y000603D01*
X006245Y000680D02*
X006184Y000680D01*
X006184Y000757D02*
X006245Y000757D01*
X006251Y000835D02*
X006177Y000835D01*
X006145Y000912D02*
X006283Y000912D01*
X006315Y000989D02*
X006113Y000989D01*
X006038Y001066D02*
X006391Y001066D01*
X006496Y001143D02*
X005933Y001143D01*
X006109Y001298D02*
X000329Y001298D01*
X000329Y001375D02*
X006034Y001375D01*
X005968Y001452D02*
X000329Y001452D01*
X000329Y001530D02*
X005897Y001530D01*
X005826Y001607D02*
X000329Y001607D01*
X000329Y001684D02*
X005755Y001684D01*
X005684Y001761D02*
X000329Y001761D01*
X000329Y001839D02*
X005613Y001839D01*
X005543Y001916D02*
X000329Y001916D01*
X000329Y001993D02*
X005472Y001993D01*
X005401Y002070D02*
X000329Y002070D01*
X000329Y002148D02*
X005330Y002148D01*
X005221Y002225D02*
X000329Y002225D01*
X000329Y002302D02*
X005156Y002302D01*
X005126Y002379D02*
X004778Y002379D01*
X004635Y002379D02*
X000329Y002379D01*
X000329Y002457D02*
X004517Y002457D01*
X004472Y002534D02*
X000329Y002534D01*
X000329Y002611D02*
X004457Y002611D01*
X004449Y002688D02*
X000329Y002688D01*
X000329Y002766D02*
X004449Y002766D01*
X004588Y002738D02*
X004588Y004234D01*
X003840Y004982D01*
X001458Y004982D01*
X000714Y005726D01*
X001148Y005546D02*
X001281Y005546D01*
X001313Y005469D02*
X001167Y005469D01*
X001245Y005392D02*
X001385Y005392D01*
X001322Y005314D02*
X001481Y005314D01*
X001399Y005237D02*
X012115Y005237D01*
X012115Y005314D02*
X011947Y005314D01*
X012044Y005392D02*
X012115Y005392D01*
X012115Y005160D02*
X001476Y005160D01*
X001238Y005006D02*
X000329Y005006D01*
X000329Y005083D02*
X001161Y005083D01*
X001084Y005160D02*
X000329Y005160D01*
X000329Y005237D02*
X001007Y005237D01*
X001316Y004928D02*
X000329Y004928D01*
X000329Y004851D02*
X001393Y004851D01*
X001947Y005314D02*
X002481Y005314D01*
X002385Y005392D02*
X002044Y005392D01*
X002116Y005469D02*
X002313Y005469D01*
X002281Y005546D02*
X002148Y005546D01*
X002180Y005623D02*
X002249Y005623D01*
X002245Y005701D02*
X002184Y005701D01*
X002184Y005778D02*
X002245Y005778D01*
X002260Y005855D02*
X002169Y005855D01*
X002137Y005932D02*
X002292Y005932D01*
X002334Y006010D02*
X002094Y006010D01*
X002017Y006087D02*
X002411Y006087D01*
X003017Y006087D02*
X003411Y006087D01*
X003334Y006010D02*
X003094Y006010D01*
X003137Y005932D02*
X003292Y005932D01*
X003260Y005855D02*
X003169Y005855D01*
X003184Y005778D02*
X003245Y005778D01*
X003245Y005701D02*
X003184Y005701D01*
X003180Y005623D02*
X003249Y005623D01*
X003281Y005546D02*
X003148Y005546D01*
X003116Y005469D02*
X003313Y005469D01*
X003385Y005392D02*
X003044Y005392D01*
X002947Y005314D02*
X003481Y005314D01*
X003947Y005314D02*
X004481Y005314D01*
X004385Y005392D02*
X004044Y005392D01*
X004116Y005469D02*
X004313Y005469D01*
X004281Y005546D02*
X004148Y005546D01*
X004180Y005623D02*
X004249Y005623D01*
X004245Y005701D02*
X004184Y005701D01*
X004184Y005778D02*
X004245Y005778D01*
X004260Y005855D02*
X004169Y005855D01*
X004137Y005932D02*
X004292Y005932D01*
X004334Y006010D02*
X004094Y006010D01*
X004017Y006087D02*
X004411Y006087D01*
X005017Y006087D02*
X005411Y006087D01*
X005334Y006010D02*
X005094Y006010D01*
X005137Y005932D02*
X005292Y005932D01*
X005260Y005855D02*
X005169Y005855D01*
X005184Y005778D02*
X005245Y005778D01*
X005245Y005701D02*
X005184Y005701D01*
X005180Y005623D02*
X005249Y005623D01*
X005281Y005546D02*
X005148Y005546D01*
X005116Y005469D02*
X005313Y005469D01*
X005385Y005392D02*
X005044Y005392D01*
X004947Y005314D02*
X005481Y005314D01*
X005947Y005314D02*
X006481Y005314D01*
X006385Y005392D02*
X006044Y005392D01*
X006116Y005469D02*
X006313Y005469D01*
X006281Y005546D02*
X006148Y005546D01*
X006180Y005623D02*
X006249Y005623D01*
X006245Y005701D02*
X006184Y005701D01*
X006184Y005778D02*
X006245Y005778D01*
X006260Y005855D02*
X006169Y005855D01*
X006137Y005932D02*
X006292Y005932D01*
X006334Y006010D02*
X006094Y006010D01*
X006017Y006087D02*
X006411Y006087D01*
X007017Y006087D02*
X007411Y006087D01*
X007334Y006010D02*
X007094Y006010D01*
X007137Y005932D02*
X007292Y005932D01*
X007260Y005855D02*
X007169Y005855D01*
X007184Y005778D02*
X007245Y005778D01*
X007245Y005701D02*
X007184Y005701D01*
X007180Y005623D02*
X007249Y005623D01*
X007281Y005546D02*
X007148Y005546D01*
X007116Y005469D02*
X007313Y005469D01*
X007385Y005392D02*
X007044Y005392D01*
X006947Y005314D02*
X007481Y005314D01*
X007947Y005314D02*
X008481Y005314D01*
X008385Y005392D02*
X008044Y005392D01*
X008116Y005469D02*
X008313Y005469D01*
X008281Y005546D02*
X008148Y005546D01*
X008180Y005623D02*
X008249Y005623D01*
X008245Y005701D02*
X008184Y005701D01*
X008184Y005778D02*
X008245Y005778D01*
X008260Y005855D02*
X008169Y005855D01*
X008137Y005932D02*
X008292Y005932D01*
X008334Y006010D02*
X008094Y006010D01*
X008017Y006087D02*
X008411Y006087D01*
X009017Y006087D02*
X009411Y006087D01*
X009334Y006010D02*
X009094Y006010D01*
X009137Y005932D02*
X009292Y005932D01*
X009260Y005855D02*
X009169Y005855D01*
X009184Y005778D02*
X009245Y005778D01*
X009245Y005701D02*
X009184Y005701D01*
X009180Y005623D02*
X009249Y005623D01*
X009281Y005546D02*
X009148Y005546D01*
X009116Y005469D02*
X009313Y005469D01*
X009385Y005392D02*
X009044Y005392D01*
X008947Y005314D02*
X009481Y005314D01*
X009947Y005314D02*
X010481Y005314D01*
X010385Y005392D02*
X010044Y005392D01*
X010116Y005469D02*
X010313Y005469D01*
X010281Y005546D02*
X010148Y005546D01*
X010180Y005623D02*
X010249Y005623D01*
X010245Y005701D02*
X010184Y005701D01*
X010184Y005778D02*
X010245Y005778D01*
X010260Y005855D02*
X010169Y005855D01*
X010137Y005932D02*
X010292Y005932D01*
X010334Y006010D02*
X010094Y006010D01*
X010017Y006087D02*
X010411Y006087D01*
X011017Y006087D02*
X011411Y006087D01*
X011334Y006010D02*
X011094Y006010D01*
X011137Y005932D02*
X011292Y005932D01*
X011260Y005855D02*
X011169Y005855D01*
X011184Y005778D02*
X011245Y005778D01*
X011245Y005701D02*
X011184Y005701D01*
X011180Y005623D02*
X011249Y005623D01*
X011281Y005546D02*
X011148Y005546D01*
X011116Y005469D02*
X011313Y005469D01*
X011385Y005392D02*
X011044Y005392D01*
X010947Y005314D02*
X011481Y005314D01*
X012115Y005083D02*
X003935Y005083D01*
X004013Y005006D02*
X012115Y005006D01*
X012115Y004928D02*
X004090Y004928D01*
X004167Y004851D02*
X012115Y004851D01*
X012115Y004774D02*
X006488Y004774D01*
X006635Y004588D02*
X006320Y004588D01*
X006095Y004697D02*
X004322Y004697D01*
X004244Y004774D02*
X006153Y004774D01*
X006071Y004619D02*
X004399Y004619D01*
X004476Y004542D02*
X006071Y004542D01*
X006102Y004465D02*
X004553Y004465D01*
X004631Y004388D02*
X006168Y004388D01*
X006473Y004388D02*
X006640Y004388D01*
X006717Y004310D02*
X004708Y004310D01*
X004727Y004233D02*
X006794Y004233D01*
X006872Y004156D02*
X004727Y004156D01*
X004727Y004079D02*
X006949Y004079D01*
X007026Y004001D02*
X004727Y004001D01*
X004727Y003924D02*
X007103Y003924D01*
X007181Y003847D02*
X004981Y003847D01*
X005066Y003770D02*
X007258Y003770D01*
X007335Y003692D02*
X006600Y003692D01*
X006579Y003706D02*
X006627Y003675D01*
X006667Y003634D01*
X006698Y003587D01*
X006720Y003534D01*
X006731Y003478D01*
X006731Y003451D01*
X006443Y003451D01*
X006441Y003451D01*
X006441Y003739D01*
X006414Y003739D01*
X006358Y003728D01*
X006305Y003706D01*
X006258Y003675D01*
X006222Y003639D01*
X006187Y003675D01*
X006139Y003706D01*
X006086Y003728D01*
X006031Y003739D01*
X006003Y003739D01*
X006003Y003451D01*
X006001Y003451D01*
X006001Y003739D01*
X005974Y003739D01*
X005918Y003728D01*
X005865Y003706D01*
X005818Y003675D01*
X005777Y003634D01*
X005746Y003587D01*
X005724Y003534D01*
X005713Y003478D01*
X005713Y003451D01*
X006001Y003451D01*
X006001Y003449D01*
X005713Y003449D01*
X005713Y003421D01*
X005724Y003366D01*
X005746Y003313D01*
X005777Y003265D01*
X005813Y003230D01*
X005777Y003194D01*
X005746Y003147D01*
X005724Y003094D01*
X005713Y003038D01*
X005713Y003011D01*
X006001Y003011D01*
X006001Y003161D01*
X006001Y003449D01*
X006003Y003449D01*
X006003Y003451D01*
X006441Y003451D01*
X006441Y003449D01*
X006291Y003449D01*
X006003Y003449D01*
X006003Y003011D01*
X006001Y003011D01*
X006001Y003009D01*
X005713Y003009D01*
X005713Y002981D01*
X005724Y002926D01*
X005746Y002873D01*
X005777Y002825D01*
X005818Y002785D01*
X005865Y002753D01*
X005918Y002732D01*
X005974Y002721D01*
X006001Y002721D01*
X006001Y003009D01*
X006003Y003009D01*
X006003Y003011D01*
X006291Y003011D01*
X006441Y003011D01*
X006441Y003299D01*
X006441Y003449D01*
X006443Y003449D01*
X006443Y003451D01*
X006443Y003739D01*
X006471Y003739D01*
X006526Y003728D01*
X006579Y003706D01*
X006443Y003692D02*
X006441Y003692D01*
X006284Y003692D02*
X006160Y003692D01*
X006003Y003692D02*
X006001Y003692D01*
X006001Y003615D02*
X006003Y003615D01*
X006001Y003538D02*
X006003Y003538D01*
X006001Y003461D02*
X006003Y003461D01*
X006001Y003383D02*
X006003Y003383D01*
X006001Y003306D02*
X006003Y003306D01*
X006001Y003229D02*
X006003Y003229D01*
X006001Y003152D02*
X006003Y003152D01*
X006001Y003075D02*
X006003Y003075D01*
X006003Y003009D02*
X006441Y003009D01*
X006441Y003011D01*
X006443Y003011D01*
X006443Y003449D01*
X006731Y003449D01*
X006731Y003421D01*
X006720Y003366D01*
X006698Y003313D01*
X006667Y003265D01*
X006631Y003230D01*
X006667Y003194D01*
X006698Y003147D01*
X006720Y003094D01*
X006731Y003038D01*
X006731Y003011D01*
X006443Y003011D01*
X006443Y003009D01*
X006731Y003009D01*
X006731Y002981D01*
X006720Y002926D01*
X006698Y002873D01*
X006667Y002825D01*
X006627Y002785D01*
X006579Y002753D01*
X006526Y002732D01*
X006471Y002721D01*
X006443Y002721D01*
X006443Y003009D01*
X006441Y003009D01*
X006441Y002721D01*
X006414Y002721D01*
X006358Y002732D01*
X006305Y002753D01*
X006258Y002785D01*
X006222Y002821D01*
X006187Y002785D01*
X006139Y002753D01*
X006086Y002732D01*
X006031Y002721D01*
X006003Y002721D01*
X006003Y003009D01*
X006001Y002997D02*
X006003Y002997D01*
X006001Y002920D02*
X006003Y002920D01*
X006001Y002843D02*
X006003Y002843D01*
X006001Y002766D02*
X006003Y002766D01*
X006157Y002766D02*
X006287Y002766D01*
X006441Y002766D02*
X006443Y002766D01*
X006441Y002843D02*
X006443Y002843D01*
X006441Y002920D02*
X006443Y002920D01*
X006441Y002997D02*
X006443Y002997D01*
X006441Y003075D02*
X006443Y003075D01*
X006441Y003152D02*
X006443Y003152D01*
X006441Y003229D02*
X006443Y003229D01*
X006441Y003306D02*
X006443Y003306D01*
X006441Y003383D02*
X006443Y003383D01*
X006441Y003461D02*
X006443Y003461D01*
X006441Y003538D02*
X006443Y003538D01*
X006441Y003615D02*
X006443Y003615D01*
X006680Y003615D02*
X007412Y003615D01*
X007489Y003538D02*
X006719Y003538D01*
X006731Y003461D02*
X007567Y003461D01*
X007644Y003383D02*
X006724Y003383D01*
X006694Y003306D02*
X007721Y003306D01*
X007798Y003229D02*
X006632Y003229D01*
X006695Y003152D02*
X007876Y003152D01*
X007953Y003075D02*
X006724Y003075D01*
X006731Y002997D02*
X008030Y002997D01*
X008107Y002920D02*
X006718Y002920D01*
X006678Y002843D02*
X008185Y002843D01*
X008262Y002766D02*
X006597Y002766D01*
X005847Y002766D02*
X005595Y002766D01*
X005595Y002688D02*
X008339Y002688D01*
X008416Y002611D02*
X005595Y002611D01*
X005600Y002534D02*
X008494Y002534D01*
X008571Y002457D02*
X005642Y002457D01*
X005713Y002379D02*
X008648Y002379D01*
X008725Y002302D02*
X005784Y002302D01*
X005855Y002225D02*
X008803Y002225D01*
X008880Y002148D02*
X005925Y002148D01*
X005996Y002070D02*
X008906Y002070D01*
X008916Y001993D02*
X006067Y001993D01*
X006138Y001916D02*
X008955Y001916D01*
X009058Y001839D02*
X006209Y001839D01*
X006279Y001761D02*
X009266Y001761D01*
X009343Y001684D02*
X008357Y001684D01*
X008427Y001607D02*
X009420Y001607D01*
X009498Y001530D02*
X008459Y001530D01*
X008460Y001452D02*
X009575Y001452D01*
X009575Y001375D02*
X008438Y001375D01*
X008383Y001298D02*
X009575Y001298D01*
X009714Y001509D02*
X009155Y002069D01*
X006635Y004588D01*
X006723Y004697D02*
X012115Y004697D01*
X012115Y004619D02*
X006801Y004619D01*
X006878Y004542D02*
X012115Y004542D01*
X012115Y004465D02*
X006955Y004465D01*
X007032Y004388D02*
X012115Y004388D01*
X012115Y004310D02*
X007109Y004310D01*
X007187Y004233D02*
X012115Y004233D01*
X012115Y004156D02*
X007264Y004156D01*
X007341Y004079D02*
X012115Y004079D01*
X012115Y004001D02*
X007418Y004001D01*
X007496Y003924D02*
X012115Y003924D01*
X012115Y003847D02*
X007573Y003847D01*
X007650Y003770D02*
X012115Y003770D01*
X012115Y003692D02*
X007727Y003692D01*
X007805Y003615D02*
X012115Y003615D01*
X012115Y003538D02*
X007882Y003538D01*
X007959Y003461D02*
X012115Y003461D01*
X012115Y003383D02*
X008036Y003383D01*
X008114Y003306D02*
X012115Y003306D01*
X012115Y003229D02*
X008191Y003229D01*
X008268Y003152D02*
X008905Y003152D01*
X009027Y003152D02*
X012115Y003152D01*
X012115Y003075D02*
X010113Y003075D01*
X010190Y002997D02*
X012115Y002997D01*
X012115Y002920D02*
X010267Y002920D01*
X010345Y002843D02*
X012115Y002843D01*
X012115Y002766D02*
X010422Y002766D01*
X010499Y002688D02*
X012115Y002688D01*
X012115Y002611D02*
X010576Y002611D01*
X010654Y002534D02*
X012115Y002534D01*
X012115Y002457D02*
X010731Y002457D01*
X010808Y002379D02*
X012115Y002379D01*
X012115Y002302D02*
X010896Y002302D01*
X011005Y002225D02*
X012115Y002225D01*
X012115Y002148D02*
X011046Y002148D01*
X011058Y002070D02*
X012115Y002070D01*
X012115Y001993D02*
X011047Y001993D01*
X011028Y001916D02*
X012115Y001916D01*
X012115Y001839D02*
X011028Y001839D01*
X011028Y001761D02*
X012115Y001761D01*
X012115Y001684D02*
X011028Y001684D01*
X011028Y001607D02*
X012115Y001607D01*
X012115Y001530D02*
X011028Y001530D01*
X011028Y001452D02*
X012115Y001452D01*
X012115Y001375D02*
X011028Y001375D01*
X011028Y001298D02*
X012115Y001298D01*
X012115Y001221D02*
X011840Y001221D01*
X011754Y001221D02*
X011675Y001221D01*
X011675Y001143D02*
X011754Y001143D01*
X011754Y001066D02*
X011675Y001066D01*
X011675Y000989D02*
X011754Y000989D01*
X011754Y000912D02*
X011675Y000912D01*
X011675Y000835D02*
X011754Y000835D01*
X011675Y000757D02*
X011184Y000757D01*
X011184Y000680D02*
X011206Y000680D01*
X011219Y000603D02*
X011171Y000603D01*
X011139Y000526D02*
X011245Y000526D01*
X011286Y000448D02*
X011100Y000448D01*
X011023Y000371D02*
X011349Y000371D01*
X011216Y000835D02*
X011177Y000835D01*
X011145Y000912D02*
X011239Y000912D01*
X011277Y000989D02*
X011113Y000989D01*
X011038Y001066D02*
X011334Y001066D01*
X011422Y001143D02*
X011028Y001143D01*
X011028Y001221D02*
X011589Y001221D01*
X012006Y001143D02*
X012115Y001143D01*
X012115Y001066D02*
X012094Y001066D01*
X010589Y001221D02*
X009853Y001221D01*
X009933Y001143D02*
X010496Y001143D01*
X010391Y001066D02*
X010038Y001066D01*
X010113Y000989D02*
X010315Y000989D01*
X010283Y000912D02*
X010145Y000912D01*
X010177Y000835D02*
X010251Y000835D01*
X010245Y000757D02*
X010184Y000757D01*
X010184Y000680D02*
X010245Y000680D01*
X010257Y000603D02*
X010171Y000603D01*
X010139Y000526D02*
X010289Y000526D01*
X010328Y000448D02*
X010100Y000448D01*
X010023Y000371D02*
X010405Y000371D01*
X009714Y000726D02*
X009714Y001509D01*
X009813Y001607D02*
X010589Y001607D01*
X010589Y001530D02*
X009853Y001530D01*
X009853Y001452D02*
X010589Y001452D01*
X010589Y001375D02*
X009853Y001375D01*
X009853Y001298D02*
X010589Y001298D01*
X010589Y001684D02*
X009736Y001684D01*
X009658Y001761D02*
X010589Y001761D01*
X010589Y001839D02*
X009581Y001839D01*
X009504Y001916D02*
X010589Y001916D01*
X010570Y001993D02*
X009427Y001993D01*
X009404Y002070D02*
X010497Y002070D01*
X010419Y002148D02*
X009392Y002148D01*
X009351Y002225D02*
X010342Y002225D01*
X010265Y002302D02*
X009243Y002302D01*
X009040Y002379D02*
X010188Y002379D01*
X010110Y002457D02*
X008963Y002457D01*
X008886Y002534D02*
X010033Y002534D01*
X009956Y002611D02*
X008809Y002611D01*
X008843Y002688D02*
X008732Y002688D01*
X008755Y002766D02*
X008654Y002766D01*
X008723Y002843D02*
X008577Y002843D01*
X008500Y002920D02*
X008717Y002920D01*
X008734Y002997D02*
X008423Y002997D01*
X008345Y003075D02*
X008781Y003075D01*
X005812Y003229D02*
X005565Y003229D01*
X005595Y003152D02*
X005749Y003152D01*
X005720Y003075D02*
X005595Y003075D01*
X005595Y002997D02*
X005713Y002997D01*
X005726Y002920D02*
X005595Y002920D01*
X005595Y002843D02*
X005766Y002843D01*
X005156Y002843D02*
X004819Y002843D01*
X004727Y002920D02*
X005156Y002920D01*
X005156Y002997D02*
X004727Y002997D01*
X004727Y003075D02*
X005099Y003075D01*
X005021Y003152D02*
X004727Y003152D01*
X004727Y003229D02*
X004944Y003229D01*
X004867Y003306D02*
X004727Y003306D01*
X004727Y003383D02*
X004790Y003383D01*
X004449Y003383D02*
X000329Y003383D01*
X000329Y003306D02*
X004449Y003306D01*
X004449Y003229D02*
X000329Y003229D01*
X000329Y003152D02*
X004449Y003152D01*
X004449Y003075D02*
X000329Y003075D01*
X000329Y002997D02*
X004449Y002997D01*
X004449Y002920D02*
X000329Y002920D01*
X000329Y002843D02*
X004449Y002843D01*
X004588Y002738D02*
X004706Y002620D01*
X004956Y002611D02*
X005156Y002611D01*
X005152Y002534D02*
X004941Y002534D01*
X004896Y002457D02*
X005126Y002457D01*
X005156Y002688D02*
X004948Y002688D01*
X004913Y002766D02*
X005156Y002766D01*
X005487Y003306D02*
X005750Y003306D01*
X005720Y003383D02*
X005410Y003383D01*
X005333Y003461D02*
X005713Y003461D01*
X005725Y003538D02*
X005256Y003538D01*
X005179Y003615D02*
X005764Y003615D01*
X005844Y003692D02*
X005101Y003692D01*
X004449Y003692D02*
X000329Y003692D01*
X000329Y003770D02*
X004449Y003770D01*
X004449Y003847D02*
X000329Y003847D01*
X000329Y003924D02*
X004449Y003924D01*
X004449Y004001D02*
X000329Y004001D01*
X000329Y004079D02*
X004449Y004079D01*
X004449Y004156D02*
X000329Y004156D01*
X000329Y004233D02*
X004393Y004233D01*
X004315Y004310D02*
X000329Y004310D01*
X000329Y004388D02*
X004238Y004388D01*
X004161Y004465D02*
X000329Y004465D01*
X000329Y004542D02*
X004084Y004542D01*
X004007Y004619D02*
X000329Y004619D01*
X000329Y004697D02*
X003929Y004697D01*
X003852Y004774D02*
X000329Y004774D01*
X000329Y005314D02*
X000481Y005314D01*
X000385Y005392D02*
X000329Y005392D01*
X001180Y005623D02*
X001249Y005623D01*
X001245Y005701D02*
X001184Y005701D01*
X001184Y005778D02*
X001245Y005778D01*
X001260Y005855D02*
X001169Y005855D01*
X001137Y005932D02*
X001292Y005932D01*
X001334Y006010D02*
X001094Y006010D01*
X001017Y006087D02*
X001411Y006087D01*
X000329Y003615D02*
X004449Y003615D01*
X004449Y003538D02*
X000329Y003538D01*
X000329Y003461D02*
X004449Y003461D01*
X000589Y001221D02*
X000329Y001221D01*
X000329Y001143D02*
X000422Y001143D01*
X000334Y001066D02*
X000329Y001066D01*
X001006Y001143D02*
X001496Y001143D01*
X001391Y001066D02*
X001094Y001066D01*
X001152Y000989D02*
X001315Y000989D01*
X001283Y000912D02*
X001189Y000912D01*
X001213Y000835D02*
X001251Y000835D01*
X001933Y001143D02*
X002496Y001143D01*
X002391Y001066D02*
X002038Y001066D01*
X002113Y000989D02*
X002315Y000989D01*
X002283Y000912D02*
X002145Y000912D01*
X002177Y000835D02*
X002251Y000835D01*
X002245Y000757D02*
X002184Y000757D01*
X002184Y000680D02*
X002245Y000680D01*
X002257Y000603D02*
X002171Y000603D01*
X002139Y000526D02*
X002289Y000526D01*
X002328Y000448D02*
X002100Y000448D01*
X002023Y000371D02*
X002405Y000371D01*
X003023Y000371D02*
X003405Y000371D01*
X003328Y000448D02*
X003100Y000448D01*
X003139Y000526D02*
X003289Y000526D01*
X003257Y000603D02*
X003171Y000603D01*
X003184Y000680D02*
X003245Y000680D01*
X003245Y000757D02*
X003184Y000757D01*
X003177Y000835D02*
X003251Y000835D01*
X003283Y000912D02*
X003145Y000912D01*
X003113Y000989D02*
X003315Y000989D01*
X003391Y001066D02*
X003038Y001066D01*
X002933Y001143D02*
X003496Y001143D01*
X003933Y001143D02*
X004496Y001143D01*
X004391Y001066D02*
X004038Y001066D01*
X004113Y000989D02*
X004315Y000989D01*
X004283Y000912D02*
X004145Y000912D01*
X004177Y000835D02*
X004251Y000835D01*
X004245Y000757D02*
X004184Y000757D01*
X004184Y000680D02*
X004245Y000680D01*
X004257Y000603D02*
X004171Y000603D01*
X004139Y000526D02*
X004289Y000526D01*
X004328Y000448D02*
X004100Y000448D01*
X004023Y000371D02*
X004405Y000371D01*
X005023Y000371D02*
X005405Y000371D01*
X005328Y000448D02*
X005100Y000448D01*
X005139Y000526D02*
X005289Y000526D01*
X005257Y000603D02*
X005171Y000603D01*
X005184Y000680D02*
X005245Y000680D01*
X005245Y000757D02*
X005184Y000757D01*
X005177Y000835D02*
X005251Y000835D01*
X005283Y000912D02*
X005145Y000912D01*
X005113Y000989D02*
X005315Y000989D01*
X005391Y001066D02*
X005038Y001066D01*
X004933Y001143D02*
X005496Y001143D01*
D13*
X006242Y001478D02*
X005376Y002423D01*
X005376Y003108D01*
X004854Y003630D01*
X008966Y002907D02*
X009970Y002907D01*
X010809Y002069D01*
X010809Y000820D01*
X010714Y000726D01*
X008210Y001478D02*
X006242Y001478D01*
M02*
