G75*
%MOIN*%
%OFA0B0*%
%FSLAX24Y24*%
%IPPOS*%
%LPD*%
%AMOC8*
5,1,8,0,0,1.08239X$1,22.5*
%
%ADD10C,0.0079*%
%ADD11R,0.0886X0.0886*%
%ADD12C,0.0300*%
%ADD13R,0.0787X0.0472*%
%ADD14C,0.0236*%
%ADD15R,0.0433X0.0394*%
%ADD16R,0.0394X0.0433*%
%ADD17R,0.0551X0.0472*%
%ADD18C,0.0740*%
%ADD19C,0.0240*%
D10*
X001034Y000329D02*
X001046Y000337D01*
X001103Y000394D01*
X001150Y000459D01*
X001186Y000530D01*
X001211Y000607D01*
X001224Y000686D01*
X001224Y000687D01*
X000754Y000687D01*
X000754Y000765D01*
X001224Y000765D01*
X001224Y000766D01*
X001211Y000845D01*
X001186Y000922D01*
X001150Y000993D01*
X001103Y001058D01*
X001046Y001115D01*
X000981Y001162D01*
X000910Y001198D01*
X000833Y001223D01*
X000754Y001235D01*
X000754Y001235D01*
X000754Y000765D01*
X000675Y000765D01*
X000675Y001235D01*
X000674Y001235D01*
X000595Y001223D01*
X000519Y001198D01*
X000447Y001162D01*
X000382Y001115D01*
X000329Y001061D01*
X000329Y005448D01*
X000448Y005328D01*
X000621Y005257D01*
X000808Y005257D01*
X000980Y005328D01*
X001112Y005460D01*
X001184Y005633D01*
X001184Y005819D01*
X001112Y005992D01*
X000980Y006124D01*
X000963Y006131D01*
X001466Y006131D01*
X001448Y006124D01*
X001316Y005992D01*
X001245Y005819D01*
X001245Y005633D01*
X001316Y005460D01*
X001448Y005328D01*
X001621Y005257D01*
X001808Y005257D01*
X001935Y005309D01*
X002165Y005079D01*
X002877Y005079D01*
X003035Y004922D01*
X003783Y004922D01*
X003940Y004764D01*
X004649Y004764D01*
X004961Y004452D01*
X004961Y003855D01*
X004904Y003879D01*
X004804Y003879D01*
X004713Y003841D01*
X004706Y003835D01*
X004706Y003952D01*
X003755Y004903D01*
X001406Y004903D01*
X001360Y004857D01*
X001360Y001721D01*
X001406Y001675D01*
X003755Y001675D01*
X003801Y001721D01*
X003801Y002187D01*
X003976Y002187D01*
X003976Y002112D01*
X004293Y002112D01*
X004293Y002409D01*
X004252Y002409D01*
X004457Y002613D01*
X004457Y002570D01*
X004495Y002478D01*
X004565Y002409D01*
X004372Y002409D01*
X004372Y002112D01*
X004293Y002112D01*
X004293Y002033D01*
X003976Y002033D01*
X003976Y001857D01*
X003986Y001822D01*
X003987Y001821D01*
X003704Y001538D01*
X003035Y001538D01*
X002877Y001380D01*
X002172Y001380D01*
X001935Y001143D01*
X001808Y001195D01*
X001621Y001195D01*
X001448Y001124D01*
X001316Y000992D01*
X001245Y000819D01*
X001245Y000633D01*
X001316Y000460D01*
X001448Y000329D01*
X001034Y000329D01*
X001080Y000371D02*
X001405Y000371D01*
X001328Y000448D02*
X001142Y000448D01*
X001184Y000526D02*
X001289Y000526D01*
X001257Y000603D02*
X001210Y000603D01*
X001223Y000680D02*
X001245Y000680D01*
X001245Y000757D02*
X000754Y000757D01*
X000754Y000835D02*
X000675Y000835D01*
X000675Y000912D02*
X000754Y000912D01*
X000754Y000989D02*
X000675Y000989D01*
X000675Y001066D02*
X000754Y001066D01*
X000754Y001143D02*
X000675Y001143D01*
X000675Y001221D02*
X000754Y001221D01*
X000840Y001221D02*
X002013Y001221D01*
X001935Y001143D02*
X001933Y001143D01*
X002230Y001242D02*
X001714Y000726D01*
X001283Y000912D02*
X001189Y000912D01*
X001152Y000989D02*
X001315Y000989D01*
X001391Y001066D02*
X001094Y001066D01*
X001006Y001143D02*
X001496Y001143D01*
X002090Y001298D02*
X000329Y001298D01*
X000329Y001375D02*
X002167Y001375D01*
X002230Y001242D02*
X002935Y001242D01*
X003092Y001399D01*
X003761Y001399D01*
X004076Y001714D01*
X005572Y001714D01*
X005691Y001832D01*
X005691Y002443D01*
X005691Y002551D02*
X005691Y002335D01*
X005691Y002335D01*
X005691Y002551D01*
X005691Y002551D01*
X005691Y002413D02*
X005691Y002413D01*
X005691Y002491D02*
X005691Y002491D01*
X005868Y002590D02*
X005868Y002334D01*
X005868Y002334D01*
X005868Y002590D01*
X005868Y002590D01*
X005868Y002412D02*
X005868Y002412D01*
X005868Y002490D02*
X005868Y002490D01*
X005868Y002568D02*
X005868Y002568D01*
X005868Y002462D02*
X005868Y001734D01*
X005691Y001557D01*
X004234Y001557D01*
X003919Y001242D01*
X003230Y001242D01*
X002714Y000726D01*
X003714Y000726D02*
X004387Y001399D01*
X005809Y001399D01*
X006045Y001635D01*
X006045Y002462D01*
X006045Y002590D02*
X006045Y002334D01*
X006045Y002334D01*
X006045Y002590D01*
X006045Y002590D01*
X006045Y002412D02*
X006045Y002412D01*
X006045Y002490D02*
X006045Y002490D01*
X006045Y002568D02*
X006045Y002568D01*
X006222Y002590D02*
X006222Y002334D01*
X006222Y002334D01*
X006222Y002590D01*
X006222Y002590D01*
X006222Y002412D02*
X006222Y002412D01*
X006222Y002490D02*
X006222Y002490D01*
X006222Y002568D02*
X006222Y002568D01*
X006222Y002462D02*
X006222Y001537D01*
X005927Y001242D01*
X005230Y001242D01*
X004714Y000726D01*
X005714Y000726D02*
X006399Y001411D01*
X006399Y002462D01*
X006399Y002590D02*
X006399Y002334D01*
X006399Y002334D01*
X006399Y002590D01*
X006399Y002590D01*
X006399Y002412D02*
X006399Y002412D01*
X006399Y002490D02*
X006399Y002490D01*
X006399Y002568D02*
X006399Y002568D01*
X006576Y002590D02*
X006576Y002334D01*
X006576Y002334D01*
X006576Y002590D01*
X006576Y002590D01*
X006576Y002412D02*
X006576Y002412D01*
X006576Y002490D02*
X006576Y002490D01*
X006576Y002568D02*
X006576Y002568D01*
X006576Y002462D02*
X006576Y001380D01*
X006714Y001242D01*
X006714Y000726D01*
X007029Y001202D02*
X006754Y001478D01*
X006754Y002443D01*
X006754Y002551D02*
X006754Y002335D01*
X006754Y002335D01*
X006754Y002551D01*
X006754Y002551D01*
X006754Y002413D02*
X006754Y002413D01*
X006754Y002491D02*
X006754Y002491D01*
X006901Y002698D02*
X007117Y002698D01*
X007117Y002698D01*
X006901Y002698D01*
X006901Y002698D01*
X007009Y002698D02*
X007009Y002246D01*
X006911Y002147D01*
X006911Y001635D01*
X007187Y001360D01*
X007895Y001360D01*
X008529Y000726D01*
X008714Y000726D01*
X007714Y000726D02*
X007238Y001202D01*
X007029Y001202D01*
X007244Y001499D02*
X007050Y001693D01*
X007050Y002090D01*
X007148Y002188D01*
X007148Y002560D01*
X007365Y002560D01*
X007483Y002442D01*
X007677Y002442D01*
X007677Y002277D01*
X007974Y002277D01*
X007974Y002198D01*
X008053Y002198D01*
X008053Y001882D01*
X008229Y001882D01*
X008264Y001891D01*
X008296Y001910D01*
X008322Y001936D01*
X008340Y001967D01*
X008350Y002003D01*
X008350Y002198D01*
X008053Y002198D01*
X008053Y002277D01*
X008350Y002277D01*
X008350Y002442D01*
X009685Y002442D01*
X010339Y003095D01*
X010512Y003095D01*
X010512Y002935D01*
X010809Y002935D01*
X010809Y002856D01*
X010887Y002856D01*
X010887Y002539D01*
X011063Y002539D01*
X011099Y002549D01*
X011130Y002567D01*
X011156Y002593D01*
X011175Y002625D01*
X011184Y002660D01*
X011184Y002856D01*
X010887Y002856D01*
X010887Y002935D01*
X011184Y002935D01*
X011184Y003095D01*
X011458Y003095D01*
X011532Y003021D01*
X011532Y002975D01*
X011354Y002975D01*
X011296Y002917D01*
X011296Y002362D01*
X011354Y002304D01*
X011988Y002304D01*
X012046Y002362D01*
X012046Y002917D01*
X011988Y002975D01*
X011810Y002975D01*
X011810Y003136D01*
X011654Y003291D01*
X011573Y003373D01*
X011144Y003373D01*
X011144Y003665D01*
X011161Y003682D01*
X011296Y003682D01*
X011296Y003543D01*
X011354Y003485D01*
X011988Y003485D01*
X012046Y003543D01*
X012046Y004098D01*
X011988Y004156D01*
X012115Y004156D01*
X012115Y004233D02*
X007640Y004233D01*
X007640Y004156D02*
X011354Y004156D01*
X011296Y004098D01*
X011296Y003959D01*
X011046Y003959D01*
X010968Y003880D01*
X010610Y003880D01*
X010552Y003822D01*
X010552Y003373D01*
X010224Y003373D01*
X009570Y002719D01*
X009131Y002719D01*
X009178Y002766D01*
X009216Y002857D01*
X009216Y002957D01*
X009178Y003048D01*
X009107Y003118D01*
X009016Y003156D01*
X008917Y003156D01*
X008844Y003126D01*
X008310Y003126D01*
X008310Y003165D01*
X008251Y003223D01*
X007775Y003223D01*
X007717Y003165D01*
X007717Y003014D01*
X007256Y003014D01*
X007256Y003110D01*
X007254Y003113D01*
X007261Y003120D01*
X007284Y003161D01*
X007296Y003206D01*
X007296Y003230D01*
X007296Y003253D01*
X007292Y003268D01*
X007323Y003268D01*
X007404Y003350D01*
X007559Y003505D01*
X007640Y003586D01*
X007640Y004531D01*
X007717Y004607D01*
X008622Y004607D01*
X008780Y004764D01*
X009449Y004764D01*
X009606Y004922D01*
X010394Y004922D01*
X010551Y005079D01*
X011264Y005079D01*
X011494Y005309D01*
X011621Y005257D01*
X011808Y005257D01*
X011980Y005328D01*
X012112Y005460D01*
X012115Y005468D01*
X012115Y001040D01*
X012103Y001058D01*
X012046Y001115D01*
X011981Y001162D01*
X011910Y001198D01*
X011833Y001223D01*
X011754Y001235D01*
X011754Y001235D01*
X011754Y000765D01*
X011675Y000765D01*
X011675Y000687D01*
X011205Y000687D01*
X011205Y000686D01*
X011217Y000607D01*
X011242Y000530D01*
X011279Y000459D01*
X011326Y000394D01*
X011382Y000337D01*
X011394Y000329D01*
X010981Y000329D01*
X011112Y000460D01*
X011184Y000633D01*
X011184Y000819D01*
X011112Y000992D01*
X010980Y001124D01*
X010808Y001195D01*
X010621Y001195D01*
X010574Y001176D01*
X010053Y001697D01*
X008332Y001697D01*
X008260Y001727D01*
X008161Y001727D01*
X008069Y001689D01*
X007999Y001619D01*
X007961Y001528D01*
X007961Y001490D01*
X007953Y001499D01*
X007244Y001499D01*
X007213Y001530D02*
X007962Y001530D01*
X007994Y001607D02*
X007136Y001607D01*
X007058Y001684D02*
X008064Y001684D01*
X007974Y001882D02*
X007798Y001882D01*
X007763Y001891D01*
X007731Y001910D01*
X007705Y001936D01*
X007687Y001967D01*
X007677Y002003D01*
X007677Y002198D01*
X007974Y002198D01*
X007974Y001882D01*
X007974Y001916D02*
X008053Y001916D01*
X008053Y001993D02*
X007974Y001993D01*
X007974Y002070D02*
X008053Y002070D01*
X008053Y002148D02*
X007974Y002148D01*
X007974Y002225D02*
X007148Y002225D01*
X007148Y002302D02*
X007677Y002302D01*
X007677Y002379D02*
X007148Y002379D01*
X007148Y002457D02*
X007468Y002457D01*
X007391Y002534D02*
X007148Y002534D01*
X007009Y002698D02*
X007423Y002698D01*
X007541Y002580D01*
X009628Y002580D01*
X010281Y003234D01*
X011515Y003234D01*
X011671Y003078D01*
X011671Y002639D01*
X012046Y002611D02*
X012115Y002611D01*
X012115Y002534D02*
X012046Y002534D01*
X012046Y002457D02*
X012115Y002457D01*
X012115Y002379D02*
X012046Y002379D01*
X012115Y002302D02*
X010896Y002302D01*
X010858Y002318D02*
X010759Y002318D01*
X010687Y002288D01*
X010636Y002288D01*
X010636Y002307D01*
X010578Y002365D01*
X010063Y002365D01*
X010005Y002307D01*
X010005Y001830D01*
X010063Y001772D01*
X010578Y001772D01*
X010636Y001830D01*
X010636Y001849D01*
X010687Y001849D01*
X010759Y001819D01*
X010858Y001819D01*
X010950Y001857D01*
X011020Y001927D01*
X011058Y002019D01*
X011058Y002118D01*
X011020Y002210D01*
X010950Y002280D01*
X010858Y002318D01*
X010721Y002302D02*
X010636Y002302D01*
X011005Y002225D02*
X012115Y002225D01*
X012115Y002148D02*
X011046Y002148D01*
X011058Y002070D02*
X012115Y002070D01*
X012115Y001993D02*
X011047Y001993D01*
X011009Y001916D02*
X012115Y001916D01*
X012115Y001839D02*
X010905Y001839D01*
X010712Y001839D02*
X010636Y001839D01*
X010143Y001607D02*
X012115Y001607D01*
X012115Y001530D02*
X010221Y001530D01*
X010298Y001452D02*
X012115Y001452D01*
X012115Y001375D02*
X010375Y001375D01*
X010452Y001298D02*
X012115Y001298D01*
X012115Y001221D02*
X011840Y001221D01*
X011754Y001221D02*
X011675Y001221D01*
X011675Y001235D02*
X011674Y001235D01*
X011595Y001223D01*
X011519Y001198D01*
X011447Y001162D01*
X011382Y001115D01*
X011326Y001058D01*
X011279Y000993D01*
X011242Y000922D01*
X011217Y000845D01*
X011205Y000766D01*
X011205Y000765D01*
X011675Y000765D01*
X011675Y001235D01*
X011589Y001221D02*
X010530Y001221D01*
X010933Y001143D02*
X011422Y001143D01*
X011334Y001066D02*
X011038Y001066D01*
X011113Y000989D02*
X011277Y000989D01*
X011239Y000912D02*
X011145Y000912D01*
X011177Y000835D02*
X011216Y000835D01*
X011184Y000757D02*
X011675Y000757D01*
X011675Y000835D02*
X011754Y000835D01*
X011754Y000912D02*
X011675Y000912D01*
X011675Y000989D02*
X011754Y000989D01*
X011754Y001066D02*
X011675Y001066D01*
X011675Y001143D02*
X011754Y001143D01*
X012006Y001143D02*
X012115Y001143D01*
X012115Y001066D02*
X012094Y001066D01*
X011206Y000680D02*
X011184Y000680D01*
X011171Y000603D02*
X011219Y000603D01*
X011245Y000526D02*
X011139Y000526D01*
X011100Y000448D02*
X011286Y000448D01*
X011349Y000371D02*
X011023Y000371D01*
X010066Y001684D02*
X012115Y001684D01*
X012115Y001761D02*
X007050Y001761D01*
X007050Y001839D02*
X009058Y001839D01*
X009014Y001857D02*
X009106Y001819D01*
X009205Y001819D01*
X009296Y001857D01*
X009335Y001896D01*
X009335Y001830D01*
X009393Y001772D01*
X009909Y001772D01*
X009967Y001830D01*
X009967Y002307D01*
X009909Y002365D01*
X009393Y002365D01*
X009335Y002307D01*
X009335Y002241D01*
X009296Y002280D01*
X009205Y002318D01*
X009106Y002318D01*
X009014Y002280D01*
X008944Y002210D01*
X008906Y002118D01*
X008906Y002019D01*
X008944Y001927D01*
X009014Y001857D01*
X008955Y001916D02*
X008302Y001916D01*
X008347Y001993D02*
X008916Y001993D01*
X008906Y002070D02*
X008350Y002070D01*
X008350Y002148D02*
X008918Y002148D01*
X008959Y002225D02*
X008053Y002225D01*
X008350Y002302D02*
X009067Y002302D01*
X009243Y002302D02*
X009335Y002302D01*
X009155Y002069D02*
X009651Y002069D01*
X009967Y002070D02*
X010005Y002070D01*
X010005Y002148D02*
X009967Y002148D01*
X009967Y002225D02*
X010005Y002225D01*
X010005Y002302D02*
X009967Y002302D01*
X009700Y002457D02*
X011296Y002457D01*
X011296Y002534D02*
X009777Y002534D01*
X009855Y002611D02*
X010529Y002611D01*
X010521Y002625D02*
X010540Y002593D01*
X010566Y002567D01*
X010597Y002549D01*
X010633Y002539D01*
X010809Y002539D01*
X010809Y002856D01*
X010512Y002856D01*
X010512Y002660D01*
X010521Y002625D01*
X010512Y002688D02*
X009932Y002688D01*
X010009Y002766D02*
X010512Y002766D01*
X010512Y002843D02*
X010086Y002843D01*
X010163Y002920D02*
X010809Y002920D01*
X010809Y002843D02*
X010887Y002843D01*
X010887Y002920D02*
X011299Y002920D01*
X011296Y002843D02*
X011184Y002843D01*
X011184Y002766D02*
X011296Y002766D01*
X011296Y002688D02*
X011184Y002688D01*
X011167Y002611D02*
X011296Y002611D01*
X010887Y002611D02*
X010809Y002611D01*
X010809Y002688D02*
X010887Y002688D01*
X010887Y002766D02*
X010809Y002766D01*
X010512Y002997D02*
X010241Y002997D01*
X010318Y003075D02*
X010512Y003075D01*
X010080Y003229D02*
X007296Y003229D01*
X007296Y003230D02*
X006990Y003230D01*
X007296Y003230D01*
X007361Y003306D02*
X010157Y003306D01*
X010003Y003152D02*
X009027Y003152D01*
X008905Y003152D02*
X008310Y003152D01*
X008013Y002907D02*
X007982Y002876D01*
X006990Y002876D01*
X006862Y002876D02*
X007118Y002876D01*
X007118Y002876D01*
X006862Y002876D01*
X006862Y002876D01*
X006990Y002876D02*
X006990Y003053D01*
X006862Y003053D02*
X007118Y003053D01*
X007118Y003053D01*
X006862Y003053D01*
X006862Y003053D01*
X006687Y003191D02*
X006669Y003191D01*
X006667Y003194D01*
X006631Y003230D01*
X006667Y003265D01*
X006669Y003269D01*
X006687Y003269D01*
X006683Y003253D01*
X006683Y003230D01*
X006990Y003230D01*
X006990Y003230D01*
X006862Y003230D02*
X007118Y003230D01*
X007118Y003230D01*
X006862Y003230D01*
X006862Y003230D01*
X006990Y003230D02*
X006683Y003230D01*
X006683Y003206D01*
X006687Y003191D01*
X006683Y003229D02*
X006632Y003229D01*
X006990Y003230D02*
X006990Y003230D01*
X006862Y003407D02*
X007118Y003407D01*
X007118Y003407D01*
X006862Y003407D01*
X006862Y003407D01*
X006990Y003407D02*
X007265Y003407D01*
X007502Y003643D01*
X007502Y004588D01*
X007659Y004746D01*
X008565Y004746D01*
X008722Y004903D01*
X009391Y004903D01*
X009549Y005061D01*
X010336Y005061D01*
X010494Y005218D01*
X011206Y005218D01*
X011714Y005726D01*
X012044Y005392D02*
X012115Y005392D01*
X012115Y005314D02*
X011947Y005314D01*
X012115Y005237D02*
X011422Y005237D01*
X011344Y005160D02*
X012115Y005160D01*
X012115Y005083D02*
X011267Y005083D01*
X010477Y005006D02*
X012115Y005006D01*
X012115Y004928D02*
X010400Y004928D01*
X010206Y005218D02*
X010714Y005726D01*
X010206Y005218D02*
X009470Y005218D01*
X009313Y005061D01*
X008643Y005061D01*
X008486Y004903D01*
X007541Y004903D01*
X007344Y004706D01*
X007344Y003761D01*
X007167Y003584D01*
X006990Y003584D01*
X006862Y003584D02*
X007118Y003584D01*
X007118Y003584D01*
X006862Y003584D01*
X006862Y003584D01*
X006901Y003761D02*
X007117Y003761D01*
X007117Y003761D01*
X006901Y003761D01*
X006901Y003761D01*
X007009Y003761D02*
X007009Y004175D01*
X007187Y004352D01*
X007187Y004824D01*
X007423Y005061D01*
X008368Y005061D01*
X008525Y005218D01*
X009206Y005218D01*
X009714Y005726D01*
X008714Y005726D02*
X008206Y005218D01*
X007305Y005218D01*
X007029Y004943D01*
X007029Y004431D01*
X006754Y004155D01*
X006754Y004017D01*
X006754Y003909D02*
X006754Y004125D01*
X006754Y004125D01*
X006754Y003909D01*
X006754Y003909D01*
X006754Y003987D02*
X006754Y003987D01*
X006754Y004065D02*
X006754Y004065D01*
X006576Y004126D02*
X006576Y003870D01*
X006576Y004126D02*
X006576Y004126D01*
X006576Y003870D01*
X006576Y003870D01*
X006576Y003948D02*
X006576Y003948D01*
X006576Y004026D02*
X006576Y004026D01*
X006576Y004104D02*
X006576Y004104D01*
X006576Y003998D02*
X006576Y004214D01*
X006872Y004509D01*
X006872Y005100D01*
X007498Y005726D01*
X007714Y005726D01*
X006714Y005726D02*
X006714Y004588D01*
X006399Y004273D01*
X006399Y003998D01*
X006399Y003870D02*
X006399Y004126D01*
X006399Y004126D01*
X006399Y003870D01*
X006399Y003870D01*
X006399Y003948D02*
X006399Y003948D01*
X006399Y004026D02*
X006399Y004026D01*
X006399Y004104D02*
X006399Y004104D01*
X006222Y004126D02*
X006222Y003870D01*
X006222Y004126D02*
X006222Y004126D01*
X006222Y003870D01*
X006222Y003870D01*
X006222Y003948D02*
X006222Y003948D01*
X006222Y004026D02*
X006222Y004026D01*
X006222Y004104D02*
X006222Y004104D01*
X006222Y003998D02*
X006222Y004490D01*
X006320Y004588D01*
X005691Y004864D02*
X005691Y004017D01*
X005691Y003909D02*
X005691Y004125D01*
X005691Y004125D01*
X005691Y003909D01*
X005691Y003909D01*
X005691Y003987D02*
X005691Y003987D01*
X005691Y004065D02*
X005691Y004065D01*
X005868Y004126D02*
X005868Y003870D01*
X005868Y004126D02*
X005868Y004126D01*
X005868Y003870D01*
X005868Y003870D01*
X005868Y003948D02*
X005868Y003948D01*
X005868Y004026D02*
X005868Y004026D01*
X005868Y004104D02*
X005868Y004104D01*
X005868Y003998D02*
X005868Y005002D01*
X005651Y005218D01*
X005222Y005218D01*
X004714Y005726D01*
X004943Y005218D02*
X004222Y005218D01*
X003714Y005726D01*
X003958Y005218D02*
X003222Y005218D01*
X002714Y005726D01*
X002007Y005237D02*
X000329Y005237D01*
X000329Y005314D02*
X000481Y005314D01*
X000385Y005392D02*
X000329Y005392D01*
X000329Y005160D02*
X002084Y005160D01*
X002161Y005083D02*
X000329Y005083D01*
X000329Y005006D02*
X002951Y005006D01*
X003028Y004928D02*
X000329Y004928D01*
X000329Y004851D02*
X001360Y004851D01*
X001360Y004774D02*
X000329Y004774D01*
X000329Y004697D02*
X001360Y004697D01*
X001360Y004619D02*
X000329Y004619D01*
X000329Y004542D02*
X001360Y004542D01*
X001360Y004465D02*
X000329Y004465D01*
X000329Y004388D02*
X001360Y004388D01*
X001360Y004310D02*
X000329Y004310D01*
X000329Y004233D02*
X001360Y004233D01*
X001360Y004156D02*
X000329Y004156D01*
X000329Y004079D02*
X001360Y004079D01*
X001360Y004001D02*
X000329Y004001D01*
X000329Y003924D02*
X001360Y003924D01*
X001360Y003847D02*
X000329Y003847D01*
X000329Y003770D02*
X001360Y003770D01*
X001360Y003692D02*
X000329Y003692D01*
X000329Y003615D02*
X001360Y003615D01*
X001360Y003538D02*
X000329Y003538D01*
X000329Y003461D02*
X001360Y003461D01*
X001360Y003383D02*
X000329Y003383D01*
X000329Y003306D02*
X001360Y003306D01*
X001360Y003229D02*
X000329Y003229D01*
X000329Y003152D02*
X001360Y003152D01*
X001360Y003075D02*
X000329Y003075D01*
X000329Y002997D02*
X001360Y002997D01*
X001360Y002920D02*
X000329Y002920D01*
X000329Y002843D02*
X001360Y002843D01*
X001360Y002766D02*
X000329Y002766D01*
X000329Y002688D02*
X001360Y002688D01*
X001360Y002611D02*
X000329Y002611D01*
X000329Y002534D02*
X001360Y002534D01*
X001360Y002457D02*
X000329Y002457D01*
X000329Y002379D02*
X001360Y002379D01*
X001360Y002302D02*
X000329Y002302D01*
X000329Y002225D02*
X001360Y002225D01*
X001360Y002148D02*
X000329Y002148D01*
X000329Y002070D02*
X001360Y002070D01*
X001360Y001993D02*
X000329Y001993D01*
X000329Y001916D02*
X001360Y001916D01*
X001360Y001839D02*
X000329Y001839D01*
X000329Y001761D02*
X001360Y001761D01*
X001397Y001684D02*
X000329Y001684D01*
X000329Y001607D02*
X003773Y001607D01*
X003764Y001684D02*
X003850Y001684D01*
X003801Y001761D02*
X003927Y001761D01*
X003981Y001839D02*
X003801Y001839D01*
X003801Y001916D02*
X003976Y001916D01*
X003976Y001993D02*
X003801Y001993D01*
X003643Y001959D02*
X003643Y001832D01*
X001517Y001832D01*
X001517Y004746D01*
X003689Y004746D01*
X004549Y003886D01*
X004549Y003611D01*
X004595Y003565D01*
X004611Y003565D01*
X004643Y003488D01*
X004713Y003418D01*
X004804Y003380D01*
X004873Y003380D01*
X004873Y003375D01*
X004896Y003352D01*
X004908Y003340D01*
X004939Y003301D01*
X004948Y003300D01*
X004978Y003270D01*
X005152Y003270D01*
X005148Y003253D01*
X005148Y003230D01*
X005454Y003230D01*
X005454Y003230D01*
X005148Y003230D01*
X005148Y003206D01*
X005152Y003191D01*
X004449Y003191D01*
X004109Y003531D01*
X004109Y003871D01*
X003981Y003999D01*
X003979Y003999D01*
X003979Y004213D01*
X003898Y004294D01*
X003898Y004294D01*
X003892Y004299D01*
X003892Y004299D01*
X003811Y004380D01*
X003664Y004380D01*
X003664Y004480D01*
X003606Y004538D01*
X003090Y004538D01*
X003032Y004480D01*
X003032Y004466D01*
X003025Y004492D01*
X003007Y004524D01*
X002981Y004550D01*
X002949Y004568D01*
X002914Y004578D01*
X002718Y004578D01*
X002718Y004281D01*
X002639Y004281D01*
X002639Y004202D01*
X002718Y004202D01*
X002718Y003906D01*
X002914Y003906D01*
X002949Y003915D01*
X002981Y003933D01*
X003007Y003959D01*
X003025Y003991D01*
X003032Y004017D01*
X003032Y004004D01*
X003090Y003946D01*
X003197Y003946D01*
X003123Y003871D01*
X003123Y003455D01*
X003250Y003327D01*
X003920Y003327D01*
X004253Y002995D01*
X004333Y002915D01*
X004149Y002731D01*
X004149Y002757D01*
X003655Y002757D01*
X003655Y002836D01*
X004149Y002836D01*
X004149Y003051D01*
X004139Y003087D01*
X004121Y003119D01*
X004095Y003145D01*
X004063Y003163D01*
X004028Y003172D01*
X003655Y003172D01*
X003655Y002836D01*
X003576Y002836D01*
X003576Y002757D01*
X003083Y002757D01*
X003083Y002680D01*
X002827Y002936D01*
X002652Y002936D01*
X002652Y003074D01*
X002594Y003132D01*
X001724Y003132D01*
X001666Y003074D01*
X001666Y002519D01*
X001724Y002461D01*
X002330Y002461D01*
X002323Y002433D01*
X002323Y002257D01*
X002639Y002257D01*
X002639Y002179D01*
X002323Y002179D01*
X002323Y002003D01*
X002332Y001967D01*
X002351Y001936D01*
X002377Y001910D01*
X002408Y001891D01*
X002444Y001882D01*
X002639Y001882D01*
X002639Y002179D01*
X002718Y002179D01*
X002718Y001882D01*
X002914Y001882D01*
X002949Y001891D01*
X002981Y001910D01*
X003007Y001936D01*
X003025Y001967D01*
X003032Y001994D01*
X003032Y001980D01*
X003090Y001922D01*
X003606Y001922D01*
X003643Y001959D01*
X003643Y001916D02*
X002987Y001916D01*
X003032Y001993D02*
X003032Y001993D01*
X002718Y001993D02*
X002639Y001993D01*
X002639Y001916D02*
X002718Y001916D01*
X002370Y001916D02*
X001517Y001916D01*
X001517Y001993D02*
X002325Y001993D01*
X002323Y002070D02*
X001517Y002070D01*
X001517Y002148D02*
X002323Y002148D01*
X002323Y002302D02*
X001517Y002302D01*
X001517Y002225D02*
X002639Y002225D01*
X002639Y002257D02*
X002639Y002507D01*
X002652Y002519D01*
X002652Y002658D01*
X002712Y002658D01*
X002816Y002554D01*
X002718Y002554D01*
X002718Y002257D01*
X002639Y002257D01*
X002639Y002302D02*
X002718Y002302D01*
X002718Y002379D02*
X002639Y002379D01*
X002639Y002457D02*
X002718Y002457D01*
X002718Y002534D02*
X002652Y002534D01*
X002652Y002611D02*
X002759Y002611D01*
X002997Y002766D02*
X003576Y002766D01*
X003576Y002836D02*
X003083Y002836D01*
X003083Y003051D01*
X003092Y003087D01*
X003111Y003119D01*
X003136Y003145D01*
X003168Y003163D01*
X003204Y003172D01*
X003576Y003172D01*
X003576Y002836D01*
X003576Y002843D02*
X003655Y002843D01*
X003655Y002920D02*
X003576Y002920D01*
X003576Y002997D02*
X003655Y002997D01*
X003655Y003075D02*
X003576Y003075D01*
X003576Y003152D02*
X003655Y003152D01*
X003942Y003306D02*
X002623Y003306D01*
X002638Y003315D02*
X002664Y003341D01*
X002683Y003373D01*
X002692Y003408D01*
X002692Y003624D01*
X002198Y003624D01*
X002198Y003287D01*
X002571Y003287D01*
X002607Y003297D01*
X002638Y003315D01*
X002685Y003383D02*
X003194Y003383D01*
X003123Y003461D02*
X002692Y003461D01*
X002692Y003538D02*
X003123Y003538D01*
X003123Y003615D02*
X002692Y003615D01*
X002692Y003702D02*
X002692Y003918D01*
X002683Y003953D01*
X002664Y003985D01*
X002639Y004010D01*
X002639Y004202D01*
X002323Y004202D01*
X002323Y004039D01*
X002198Y004039D01*
X002198Y003702D01*
X002120Y003702D01*
X002120Y003624D01*
X001626Y003624D01*
X001626Y003408D01*
X001635Y003373D01*
X001654Y003341D01*
X001680Y003315D01*
X001712Y003297D01*
X001747Y003287D01*
X002120Y003287D01*
X002120Y003624D01*
X002198Y003624D01*
X002198Y003702D01*
X002692Y003702D01*
X002692Y003770D02*
X003123Y003770D01*
X003123Y003847D02*
X002692Y003847D01*
X002690Y003924D02*
X002718Y003924D01*
X002718Y004001D02*
X002648Y004001D01*
X002639Y004079D02*
X002718Y004079D01*
X002718Y004156D02*
X002639Y004156D01*
X002639Y004233D02*
X001517Y004233D01*
X001517Y004156D02*
X002323Y004156D01*
X002323Y004079D02*
X001517Y004079D01*
X001654Y003985D02*
X001680Y004011D01*
X001712Y004029D01*
X001747Y004039D01*
X002120Y004039D01*
X002120Y003702D01*
X001626Y003702D01*
X001626Y003918D01*
X001635Y003953D01*
X001654Y003985D01*
X001670Y004001D02*
X001517Y004001D01*
X001517Y003924D02*
X001628Y003924D01*
X001626Y003847D02*
X001517Y003847D01*
X001517Y003770D02*
X001626Y003770D01*
X001517Y003692D02*
X002120Y003692D01*
X002120Y003770D02*
X002198Y003770D01*
X002198Y003847D02*
X002120Y003847D01*
X002120Y003924D02*
X002198Y003924D01*
X002198Y004001D02*
X002120Y004001D01*
X002198Y003692D02*
X003123Y003692D01*
X003176Y003924D02*
X002965Y003924D01*
X003028Y004001D02*
X003034Y004001D01*
X003348Y004242D02*
X003754Y004242D01*
X003840Y004155D01*
X003840Y003769D01*
X003880Y003730D01*
X003880Y003565D01*
X004391Y003053D01*
X005454Y003053D01*
X005582Y003053D02*
X005326Y003053D01*
X005326Y003053D01*
X005582Y003053D01*
X005582Y003053D01*
X005757Y003191D02*
X005761Y003206D01*
X005761Y003230D01*
X005454Y003230D01*
X005582Y003230D02*
X005326Y003230D01*
X005326Y003230D01*
X005582Y003230D01*
X005582Y003230D01*
X005454Y003230D02*
X005454Y003230D01*
X005761Y003230D01*
X005761Y003253D01*
X005757Y003269D01*
X005775Y003269D01*
X005777Y003265D01*
X005813Y003230D01*
X005777Y003194D01*
X005775Y003191D01*
X005757Y003191D01*
X005761Y003229D02*
X005812Y003229D01*
X005582Y003409D02*
X005326Y003409D01*
X005326Y003409D01*
X005582Y003409D01*
X005582Y003409D01*
X005454Y003409D02*
X005035Y003409D01*
X005011Y003433D01*
X004854Y003630D01*
X004622Y003538D02*
X004109Y003538D01*
X004109Y003615D02*
X004549Y003615D01*
X004549Y003692D02*
X004109Y003692D01*
X004109Y003770D02*
X004549Y003770D01*
X004549Y003847D02*
X004109Y003847D01*
X004056Y003924D02*
X004511Y003924D01*
X004434Y004001D02*
X003979Y004001D01*
X003979Y004079D02*
X004356Y004079D01*
X004279Y004156D02*
X003979Y004156D01*
X003958Y004233D02*
X004202Y004233D01*
X004125Y004310D02*
X003881Y004310D01*
X004048Y004388D02*
X003664Y004388D01*
X003664Y004465D02*
X003970Y004465D01*
X003893Y004542D02*
X002989Y004542D01*
X002718Y004542D02*
X002639Y004542D01*
X002639Y004578D02*
X002444Y004578D01*
X002408Y004568D01*
X002377Y004550D01*
X002351Y004524D01*
X002332Y004492D01*
X002323Y004457D01*
X002323Y004281D01*
X002639Y004281D01*
X002639Y004578D01*
X002639Y004465D02*
X002718Y004465D01*
X002718Y004388D02*
X002639Y004388D01*
X002639Y004310D02*
X002718Y004310D01*
X002323Y004310D02*
X001517Y004310D01*
X001517Y004388D02*
X002323Y004388D01*
X002325Y004465D02*
X001517Y004465D01*
X001517Y004542D02*
X002369Y004542D01*
X001517Y004619D02*
X003816Y004619D01*
X003739Y004697D02*
X001517Y004697D01*
X002222Y005218D02*
X001714Y005726D01*
X001281Y005546D02*
X001148Y005546D01*
X001116Y005469D02*
X001313Y005469D01*
X001385Y005392D02*
X001044Y005392D01*
X000947Y005314D02*
X001481Y005314D01*
X001249Y005623D02*
X001180Y005623D01*
X001184Y005701D02*
X001245Y005701D01*
X001245Y005778D02*
X001184Y005778D01*
X001169Y005855D02*
X001260Y005855D01*
X001292Y005932D02*
X001137Y005932D01*
X001094Y006010D02*
X001334Y006010D01*
X001411Y006087D02*
X001017Y006087D01*
X002222Y005218D02*
X002935Y005218D01*
X003092Y005061D01*
X003840Y005061D01*
X003998Y004903D01*
X004706Y004903D01*
X005100Y004509D01*
X005100Y003761D01*
X005277Y003584D01*
X005454Y003584D01*
X005582Y003584D02*
X005326Y003584D01*
X005326Y003584D01*
X005582Y003584D01*
X005582Y003584D01*
X005543Y003761D02*
X005327Y003761D01*
X005327Y003761D01*
X005543Y003761D01*
X005543Y003761D01*
X005435Y003761D02*
X005435Y004726D01*
X005257Y004903D01*
X004982Y004903D01*
X004824Y005061D01*
X004116Y005061D01*
X003958Y005218D01*
X003854Y004851D02*
X003807Y004851D01*
X003884Y004774D02*
X003931Y004774D01*
X003961Y004697D02*
X004717Y004697D01*
X004794Y004619D02*
X004038Y004619D01*
X004116Y004542D02*
X004871Y004542D01*
X004948Y004465D02*
X004193Y004465D01*
X004270Y004388D02*
X004961Y004388D01*
X004961Y004310D02*
X004347Y004310D01*
X004425Y004233D02*
X004961Y004233D01*
X004961Y004156D02*
X004502Y004156D01*
X004579Y004079D02*
X004961Y004079D01*
X004961Y004001D02*
X004656Y004001D01*
X004706Y003924D02*
X004961Y003924D01*
X004727Y003847D02*
X004706Y003847D01*
X004670Y003461D02*
X004180Y003461D01*
X004257Y003383D02*
X004796Y003383D01*
X004935Y003306D02*
X004334Y003306D01*
X004411Y003229D02*
X005148Y003229D01*
X005454Y002876D02*
X004490Y002876D01*
X003974Y002360D01*
X003411Y002360D01*
X003411Y002281D01*
X003348Y002218D01*
X002769Y002797D01*
X002159Y002797D01*
X001666Y002766D02*
X001517Y002766D01*
X001517Y002688D02*
X001666Y002688D01*
X001666Y002611D02*
X001517Y002611D01*
X001517Y002534D02*
X001666Y002534D01*
X001517Y002457D02*
X002329Y002457D01*
X002323Y002379D02*
X001517Y002379D01*
X001517Y002843D02*
X001666Y002843D01*
X001666Y002920D02*
X001517Y002920D01*
X001517Y002997D02*
X001666Y002997D01*
X001666Y003075D02*
X001517Y003075D01*
X001517Y003152D02*
X003149Y003152D01*
X003089Y003075D02*
X002652Y003075D01*
X002652Y002997D02*
X003083Y002997D01*
X003083Y002920D02*
X002842Y002920D01*
X002920Y002843D02*
X003083Y002843D01*
X003074Y002688D02*
X003083Y002688D01*
X003655Y002766D02*
X004184Y002766D01*
X004149Y002843D02*
X004261Y002843D01*
X004328Y002920D02*
X004149Y002920D01*
X004149Y002997D02*
X004251Y002997D01*
X004253Y002995D02*
X004253Y002995D01*
X004173Y003075D02*
X004143Y003075D01*
X004096Y003152D02*
X004083Y003152D01*
X004019Y003229D02*
X001517Y003229D01*
X001517Y003306D02*
X001695Y003306D01*
X001633Y003383D02*
X001517Y003383D01*
X001517Y003461D02*
X001626Y003461D01*
X001626Y003538D02*
X001517Y003538D01*
X001517Y003615D02*
X001626Y003615D01*
X002120Y003615D02*
X002198Y003615D01*
X002198Y003538D02*
X002120Y003538D01*
X002120Y003461D02*
X002198Y003461D01*
X002198Y003383D02*
X002120Y003383D01*
X002120Y003306D02*
X002198Y003306D01*
X003616Y003663D02*
X003840Y003769D01*
X005326Y002876D02*
X005582Y002876D01*
X005326Y002876D02*
X005326Y002876D01*
X005582Y002876D01*
X005582Y002876D01*
X005543Y002698D02*
X005327Y002698D01*
X005327Y002698D01*
X005543Y002698D01*
X005543Y002698D01*
X005435Y002698D02*
X004785Y002698D01*
X004706Y002620D01*
X004457Y002611D02*
X004455Y002611D01*
X004472Y002534D02*
X004377Y002534D01*
X004300Y002457D02*
X004517Y002457D01*
X004372Y002379D02*
X004293Y002379D01*
X004293Y002302D02*
X004372Y002302D01*
X004372Y002225D02*
X004293Y002225D01*
X004293Y002148D02*
X004372Y002148D01*
X004293Y002070D02*
X003801Y002070D01*
X003801Y002148D02*
X003976Y002148D01*
X003643Y001839D02*
X001517Y001839D01*
X002639Y002070D02*
X002718Y002070D01*
X002718Y002148D02*
X002639Y002148D01*
X003297Y002297D02*
X003348Y002218D01*
X003026Y001530D02*
X000329Y001530D01*
X000329Y001452D02*
X002949Y001452D01*
X001251Y000835D02*
X001213Y000835D01*
X000589Y001221D02*
X000329Y001221D01*
X000329Y001143D02*
X000422Y001143D01*
X000334Y001066D02*
X000329Y001066D01*
X005714Y000726D02*
X005726Y000726D01*
X007050Y001916D02*
X007725Y001916D01*
X007680Y001993D02*
X007050Y001993D01*
X007050Y002070D02*
X007677Y002070D01*
X007677Y002148D02*
X007108Y002148D01*
X008350Y002379D02*
X011296Y002379D01*
X012046Y002688D02*
X012115Y002688D01*
X012115Y002766D02*
X012046Y002766D01*
X012046Y002843D02*
X012115Y002843D01*
X012115Y002920D02*
X012043Y002920D01*
X012115Y002997D02*
X011810Y002997D01*
X011810Y003075D02*
X012115Y003075D01*
X012115Y003152D02*
X011794Y003152D01*
X011716Y003229D02*
X012115Y003229D01*
X012115Y003306D02*
X011639Y003306D01*
X011301Y003538D02*
X011144Y003538D01*
X011144Y003615D02*
X011296Y003615D01*
X011144Y003461D02*
X012115Y003461D01*
X012115Y003538D02*
X012041Y003538D01*
X012046Y003615D02*
X012115Y003615D01*
X012115Y003692D02*
X012046Y003692D01*
X012046Y003770D02*
X012115Y003770D01*
X012115Y003847D02*
X012046Y003847D01*
X012046Y003924D02*
X012115Y003924D01*
X012115Y004001D02*
X012046Y004001D01*
X012046Y004079D02*
X012115Y004079D01*
X011988Y004156D02*
X011354Y004156D01*
X011296Y004079D02*
X007640Y004079D01*
X007640Y004001D02*
X011296Y004001D01*
X011104Y003820D02*
X011671Y003820D01*
X011104Y003820D02*
X010848Y003565D01*
X010552Y003538D02*
X007592Y003538D01*
X007640Y003615D02*
X010552Y003615D01*
X010552Y003692D02*
X007640Y003692D01*
X007640Y003770D02*
X010552Y003770D01*
X010576Y003847D02*
X007640Y003847D01*
X007640Y003924D02*
X011011Y003924D01*
X010552Y003461D02*
X007515Y003461D01*
X007438Y003383D02*
X010552Y003383D01*
X011144Y003383D02*
X012115Y003383D01*
X011478Y003075D02*
X011184Y003075D01*
X011184Y002997D02*
X011532Y002997D01*
X009926Y003075D02*
X009151Y003075D01*
X009199Y002997D02*
X009848Y002997D01*
X009771Y002920D02*
X009216Y002920D01*
X009209Y002843D02*
X009694Y002843D01*
X009617Y002766D02*
X009177Y002766D01*
X008013Y002907D02*
X008006Y002899D01*
X007717Y003075D02*
X007256Y003075D01*
X007279Y003152D02*
X007717Y003152D01*
X007404Y003350D02*
X007404Y003350D01*
X006045Y003870D02*
X006045Y004126D01*
X006045Y004126D01*
X006045Y003870D01*
X006045Y003870D01*
X006045Y003948D02*
X006045Y003948D01*
X006045Y004026D02*
X006045Y004026D01*
X006045Y004104D02*
X006045Y004104D01*
X006045Y003998D02*
X006045Y005395D01*
X005714Y005726D01*
X005100Y005061D02*
X004943Y005218D01*
X005100Y005061D02*
X005494Y005061D01*
X005691Y004864D01*
X007652Y004542D02*
X012115Y004542D01*
X012115Y004465D02*
X007640Y004465D01*
X007640Y004388D02*
X012115Y004388D01*
X012115Y004310D02*
X007640Y004310D01*
X008634Y004619D02*
X012115Y004619D01*
X012115Y004697D02*
X008712Y004697D01*
X009458Y004774D02*
X012115Y004774D01*
X012115Y004851D02*
X009535Y004851D01*
X009967Y001993D02*
X010005Y001993D01*
X010005Y001916D02*
X009967Y001916D01*
X009967Y001839D02*
X010005Y001839D01*
X009335Y001839D02*
X009252Y001839D01*
D11*
X006222Y003230D03*
D12*
X006002Y003450D03*
X006442Y003450D03*
X006442Y003010D03*
X006002Y003010D03*
X005376Y002423D03*
X004706Y002620D03*
X004854Y003630D03*
X006320Y004588D03*
X008966Y002907D03*
X009785Y003328D03*
X009155Y002069D03*
X008210Y001478D03*
X007383Y001950D03*
X010809Y002069D03*
D13*
X003616Y002797D03*
X002159Y002797D03*
X002159Y003663D03*
D14*
X003341Y003781D02*
X003891Y003781D01*
X003891Y003545D01*
X003341Y003545D01*
X003341Y003781D01*
X003341Y003780D02*
X003891Y003780D01*
D15*
X003348Y004242D03*
X002679Y004242D03*
X002679Y002218D03*
X003348Y002218D03*
X004332Y002072D03*
X005002Y002072D03*
X009651Y002069D03*
X010320Y002069D03*
D16*
X010848Y002895D03*
X010848Y003565D03*
X008013Y002907D03*
X008013Y002238D03*
D17*
X011671Y002639D03*
X011671Y003820D03*
D18*
X011714Y005726D03*
X010714Y005726D03*
X009714Y005726D03*
X008714Y005726D03*
X007714Y005726D03*
X006714Y005726D03*
X005714Y005726D03*
X004714Y005726D03*
X003714Y005726D03*
X002714Y005726D03*
X001714Y005726D03*
X000714Y005726D03*
X000714Y000726D03*
X001714Y000726D03*
X002714Y000726D03*
X003714Y000726D03*
X004714Y000726D03*
X005714Y000726D03*
X006714Y000726D03*
X007714Y000726D03*
X008714Y000726D03*
X009714Y000726D03*
X010714Y000726D03*
X011714Y000726D03*
D19*
X010714Y000726D02*
X009962Y001478D01*
X008210Y001478D01*
X010320Y002069D02*
X010809Y002069D01*
X008966Y002907D02*
X008013Y002907D01*
X005376Y002423D02*
X005025Y002072D01*
X005002Y002072D01*
M02*
