G75*
%MOIN*%
%OFA0B0*%
%FSLAX24Y24*%
%IPPOS*%
%LPD*%
%AMOC8*
5,1,8,0,0,1.08239X$1,22.5*
%
%ADD10C,0.0000*%
%ADD11C,0.0060*%
%ADD12C,0.0059*%
%ADD13C,0.0020*%
D10*
X000533Y000139D02*
X011911Y000139D01*
X011950Y000141D01*
X011988Y000147D01*
X012025Y000156D01*
X012062Y000169D01*
X012097Y000186D01*
X012130Y000205D01*
X012161Y000228D01*
X012190Y000254D01*
X012216Y000283D01*
X012239Y000314D01*
X012258Y000347D01*
X012275Y000382D01*
X012288Y000419D01*
X012297Y000456D01*
X012303Y000494D01*
X012305Y000533D01*
X012305Y005927D01*
X012303Y005966D01*
X012297Y006004D01*
X012288Y006041D01*
X012275Y006078D01*
X012258Y006113D01*
X012239Y006146D01*
X012216Y006177D01*
X012190Y006206D01*
X012161Y006232D01*
X012130Y006255D01*
X012097Y006274D01*
X012062Y006291D01*
X012025Y006304D01*
X011988Y006313D01*
X011950Y006319D01*
X011911Y006321D01*
X011911Y006320D02*
X000533Y006320D01*
X000533Y006321D02*
X000494Y006319D01*
X000456Y006313D01*
X000419Y006304D01*
X000382Y006291D01*
X000347Y006274D01*
X000314Y006255D01*
X000283Y006232D01*
X000254Y006206D01*
X000228Y006177D01*
X000205Y006146D01*
X000186Y006113D01*
X000169Y006078D01*
X000156Y006041D01*
X000147Y006004D01*
X000141Y005966D01*
X000139Y005927D01*
X000139Y000533D01*
X000141Y000494D01*
X000147Y000456D01*
X000156Y000419D01*
X000169Y000382D01*
X000186Y000347D01*
X000205Y000314D01*
X000228Y000283D01*
X000254Y000254D01*
X000283Y000228D01*
X000314Y000205D01*
X000347Y000186D01*
X000382Y000169D01*
X000419Y000156D01*
X000456Y000147D01*
X000494Y000141D01*
X000533Y000139D01*
D11*
X011355Y001560D02*
X011355Y001880D01*
X011782Y001880D01*
X011995Y002098D02*
X011355Y002098D01*
X011355Y002418D01*
X011462Y002525D01*
X011889Y002525D01*
X011995Y002418D01*
X011995Y002098D01*
X011462Y001453D02*
X011355Y001560D01*
X011462Y001453D02*
X011782Y001453D01*
X011782Y002742D02*
X011462Y002742D01*
X011355Y002849D01*
X011355Y003170D01*
X011782Y003170D01*
X011782Y003387D02*
X011782Y003494D01*
X011355Y003494D01*
X011355Y003387D02*
X011355Y003601D01*
X011355Y003817D02*
X011782Y003817D01*
X011782Y004137D01*
X011675Y004244D01*
X011355Y004244D01*
X011462Y004461D02*
X011355Y004568D01*
X011355Y004782D01*
X011462Y004888D01*
X011675Y004888D01*
X011782Y004782D01*
X011782Y004568D01*
X011675Y004461D01*
X011462Y004461D01*
X011995Y003494D02*
X012102Y003494D01*
D12*
X011527Y001452D02*
X011214Y001452D01*
D13*
X010604Y001504D02*
X010384Y001504D01*
X010384Y001431D02*
X010384Y001578D01*
X010420Y001652D02*
X010567Y001799D01*
X010420Y001799D01*
X010384Y001762D01*
X010384Y001688D01*
X010420Y001652D01*
X010567Y001652D01*
X010604Y001688D01*
X010604Y001762D01*
X010567Y001799D01*
X010384Y001873D02*
X010604Y002020D01*
X010567Y002094D02*
X010604Y002130D01*
X010604Y002204D01*
X010567Y002241D01*
X010420Y002094D01*
X010384Y002130D01*
X010384Y002204D01*
X010420Y002241D01*
X010567Y002241D01*
X010604Y002315D02*
X010494Y002315D01*
X010530Y002388D01*
X010530Y002425D01*
X010494Y002462D01*
X010420Y002462D01*
X010384Y002425D01*
X010384Y002351D01*
X010420Y002315D01*
X010604Y002315D02*
X010604Y002462D01*
X010604Y002683D02*
X010384Y002536D01*
X010384Y002757D02*
X010384Y002903D01*
X010384Y002830D02*
X010604Y002830D01*
X010530Y002757D01*
X010494Y002978D02*
X010494Y003124D01*
X010384Y003088D02*
X010604Y003088D01*
X010494Y002978D01*
X010420Y002094D02*
X010567Y002094D01*
X010604Y001504D02*
X010530Y001431D01*
X010530Y004135D02*
X010384Y004135D01*
X010457Y004135D02*
X010530Y004209D01*
X010530Y004245D01*
X010494Y004319D02*
X010420Y004319D01*
X010384Y004356D01*
X010384Y004430D01*
X010457Y004466D02*
X010457Y004319D01*
X010494Y004319D02*
X010530Y004356D01*
X010530Y004430D01*
X010494Y004466D01*
X010457Y004466D01*
X010530Y004540D02*
X010384Y004614D01*
X010530Y004687D01*
X010530Y004761D02*
X010604Y004835D01*
X010384Y004835D01*
X010384Y004908D02*
X010384Y004761D01*
M02*
