%
M48
M72
T01C0.0160
T02C0.0400
%
T01
X4706Y2620
X5376Y2423
X6002Y3010
X6442Y3010
X6442Y3450
X6002Y3450
X4854Y3630
X6320Y4588
X8966Y2907
X9785Y3328
X9155Y2069
X8210Y1478
X7383Y1950
X10809Y2069
T02
X714Y726
X1714Y726
X2714Y726
X3714Y726
X4714Y726
X5714Y726
X6714Y726
X7714Y726
X8714Y726
X9714Y726
X10714Y726
X11714Y726
X11714Y5726
X10714Y5726
X9714Y5726
X8714Y5726
X7714Y5726
X6714Y5726
X5714Y5726
X4714Y5726
X3714Y5726
X2714Y5726
X1714Y5726
X714Y5726
M30
