G75*
%MOIN*%
%OFA0B0*%
%FSLAX24Y24*%
%IPPOS*%
%LPD*%
%AMOC8*
5,1,8,0,0,1.08239X$1,22.5*
%
%ADD10C,0.0000*%
%ADD11C,0.0020*%
%ADD12C,0.0220*%
%ADD13C,0.0010*%
%ADD14R,0.0180X0.0300*%
%ADD15C,0.0080*%
%ADD16R,0.0300X0.0180*%
D10*
X000533Y000139D02*
X011911Y000139D01*
X011950Y000141D01*
X011988Y000147D01*
X012025Y000156D01*
X012062Y000169D01*
X012097Y000186D01*
X012130Y000205D01*
X012161Y000228D01*
X012190Y000254D01*
X012216Y000283D01*
X012239Y000314D01*
X012258Y000347D01*
X012275Y000382D01*
X012288Y000419D01*
X012297Y000456D01*
X012303Y000494D01*
X012305Y000533D01*
X012305Y005927D01*
X012303Y005966D01*
X012297Y006004D01*
X012288Y006041D01*
X012275Y006078D01*
X012258Y006113D01*
X012239Y006146D01*
X012216Y006177D01*
X012190Y006206D01*
X012161Y006232D01*
X012130Y006255D01*
X012097Y006274D01*
X012062Y006291D01*
X012025Y006304D01*
X011988Y006313D01*
X011950Y006319D01*
X011911Y006321D01*
X011911Y006320D02*
X000533Y006320D01*
X000533Y006321D02*
X000494Y006319D01*
X000456Y006313D01*
X000419Y006304D01*
X000382Y006291D01*
X000347Y006274D01*
X000314Y006255D01*
X000283Y006232D01*
X000254Y006206D01*
X000228Y006177D01*
X000205Y006146D01*
X000186Y006113D01*
X000169Y006078D01*
X000156Y006041D01*
X000147Y006004D01*
X000141Y005966D01*
X000139Y005927D01*
X000139Y000533D01*
X000141Y000494D01*
X000147Y000456D01*
X000156Y000419D01*
X000169Y000382D01*
X000186Y000347D01*
X000205Y000314D01*
X000228Y000283D01*
X000254Y000254D01*
X000283Y000228D01*
X000314Y000205D01*
X000347Y000186D01*
X000382Y000169D01*
X000419Y000156D01*
X000456Y000147D01*
X000494Y000141D01*
X000533Y000139D01*
D11*
X000521Y001388D02*
X000447Y001388D01*
X000410Y001424D01*
X000410Y001571D01*
X000447Y001608D01*
X000521Y001608D01*
X000557Y001571D01*
X000557Y001498D02*
X000484Y001498D01*
X000557Y001498D02*
X000557Y001424D01*
X000521Y001388D01*
X000631Y001388D02*
X000631Y001608D01*
X000778Y001388D01*
X000778Y001608D01*
X000852Y001608D02*
X000962Y001608D01*
X000999Y001571D01*
X000999Y001424D01*
X000962Y001388D01*
X000852Y001388D01*
X000852Y001608D01*
X001393Y001745D02*
X001393Y001965D01*
X001503Y001965D01*
X001539Y001928D01*
X001539Y001855D01*
X001503Y001818D01*
X001393Y001818D01*
X001614Y001745D02*
X001687Y001818D01*
X001760Y001745D01*
X001760Y001965D01*
X001835Y001965D02*
X001908Y001892D01*
X001981Y001965D01*
X001981Y001745D01*
X001835Y001745D02*
X001835Y001965D01*
X001614Y001965D02*
X001614Y001745D01*
X001613Y001605D02*
X001503Y001605D01*
X001503Y001385D01*
X001613Y001385D01*
X001650Y001422D01*
X001650Y001568D01*
X001613Y001605D01*
X001724Y001495D02*
X001834Y001495D01*
X001871Y001458D01*
X001871Y001422D01*
X001834Y001385D01*
X001761Y001385D01*
X001724Y001422D01*
X001724Y001495D01*
X001798Y001568D01*
X001871Y001605D01*
X002562Y001604D02*
X002562Y001384D01*
X002672Y001384D01*
X002709Y001420D01*
X002709Y001567D01*
X002672Y001604D01*
X002562Y001604D01*
X002783Y001604D02*
X002930Y001604D01*
X002930Y001567D01*
X002783Y001420D01*
X002783Y001384D01*
X003509Y001388D02*
X003619Y001388D01*
X003656Y001424D01*
X003656Y001571D01*
X003619Y001608D01*
X003509Y001608D01*
X003509Y001388D01*
X003730Y001424D02*
X003730Y001461D01*
X003767Y001498D01*
X003840Y001498D01*
X003877Y001461D01*
X003877Y001424D01*
X003840Y001388D01*
X003767Y001388D01*
X003730Y001424D01*
X003767Y001498D02*
X003730Y001534D01*
X003730Y001571D01*
X003767Y001608D01*
X003840Y001608D01*
X003877Y001571D01*
X003877Y001534D01*
X003840Y001498D01*
X004424Y001627D02*
X004424Y001847D01*
X004534Y001847D01*
X004571Y001810D01*
X004571Y001737D01*
X004534Y001700D01*
X004424Y001700D01*
X004645Y001627D02*
X004645Y001847D01*
X004792Y001847D02*
X004792Y001627D01*
X004719Y001700D01*
X004645Y001627D01*
X004645Y001487D02*
X004535Y001487D01*
X004535Y001267D01*
X004645Y001267D01*
X004681Y001303D01*
X004681Y001450D01*
X004645Y001487D01*
X004756Y001450D02*
X004756Y001413D01*
X004792Y001377D01*
X004902Y001377D01*
X004902Y001450D02*
X004902Y001303D01*
X004866Y001267D01*
X004792Y001267D01*
X004756Y001303D01*
X004756Y001450D02*
X004792Y001487D01*
X004866Y001487D01*
X004902Y001450D01*
X004866Y001627D02*
X004866Y001847D01*
X004940Y001773D01*
X005013Y001847D01*
X005013Y001627D01*
X005408Y001605D02*
X005519Y001605D01*
X005555Y001568D01*
X005555Y001422D01*
X005519Y001385D01*
X005408Y001385D01*
X005408Y001605D01*
X005629Y001532D02*
X005703Y001605D01*
X005703Y001385D01*
X005776Y001385D02*
X005629Y001385D01*
X005850Y001422D02*
X005887Y001385D01*
X005961Y001385D01*
X005997Y001422D01*
X005997Y001568D01*
X005850Y001422D01*
X005850Y001568D01*
X005887Y001605D01*
X005961Y001605D01*
X005997Y001568D01*
X005997Y001745D02*
X005997Y001965D01*
X005924Y001892D01*
X005850Y001965D01*
X005850Y001745D01*
X005776Y001745D02*
X005776Y001965D01*
X005629Y001965D02*
X005629Y001745D01*
X005703Y001818D01*
X005776Y001745D01*
X005555Y001855D02*
X005555Y001928D01*
X005519Y001965D01*
X005408Y001965D01*
X005408Y001745D01*
X005408Y001818D02*
X005519Y001818D01*
X005555Y001855D01*
X006432Y001818D02*
X006542Y001818D01*
X006579Y001855D01*
X006579Y001928D01*
X006542Y001965D01*
X006432Y001965D01*
X006432Y001745D01*
X006653Y001745D02*
X006726Y001818D01*
X006800Y001745D01*
X006800Y001965D01*
X006874Y001965D02*
X006947Y001892D01*
X007021Y001965D01*
X007021Y001745D01*
X006874Y001745D02*
X006874Y001965D01*
X006653Y001965D02*
X006653Y001745D01*
X006726Y001605D02*
X006726Y001385D01*
X006653Y001385D02*
X006800Y001385D01*
X006874Y001385D02*
X007021Y001385D01*
X006947Y001385D02*
X006947Y001605D01*
X006874Y001532D01*
X006726Y001605D02*
X006653Y001532D01*
X006579Y001568D02*
X006579Y001422D01*
X006542Y001385D01*
X006432Y001385D01*
X006432Y001605D01*
X006542Y001605D01*
X006579Y001568D01*
X007416Y001606D02*
X007416Y001386D01*
X007526Y001386D01*
X007563Y001422D01*
X007563Y001569D01*
X007526Y001606D01*
X007416Y001606D01*
X007637Y001532D02*
X007711Y001606D01*
X007711Y001386D01*
X007784Y001386D02*
X007637Y001386D01*
X007858Y001386D02*
X008005Y001532D01*
X008005Y001569D01*
X007968Y001606D01*
X007895Y001606D01*
X007858Y001569D01*
X007858Y001386D02*
X008005Y001386D01*
X008401Y001390D02*
X008401Y001610D01*
X008511Y001610D01*
X008547Y001573D01*
X008547Y001426D01*
X008511Y001390D01*
X008401Y001390D01*
X008622Y001390D02*
X008768Y001390D01*
X008695Y001390D02*
X008695Y001610D01*
X008622Y001536D01*
X008843Y001573D02*
X008879Y001610D01*
X008953Y001610D01*
X008989Y001573D01*
X008989Y001536D01*
X008953Y001500D01*
X008989Y001463D01*
X008989Y001426D01*
X008953Y001390D01*
X008879Y001390D01*
X008843Y001426D01*
X008916Y001500D02*
X008953Y001500D01*
X009199Y001457D02*
X009309Y001457D01*
X009346Y001494D01*
X009346Y001567D01*
X009309Y001604D01*
X009199Y001604D01*
X009199Y001384D01*
X009273Y001457D02*
X009346Y001384D01*
X009420Y001384D02*
X009567Y001384D01*
X009641Y001420D02*
X009678Y001384D01*
X009751Y001384D01*
X009788Y001420D01*
X009788Y001457D01*
X009751Y001494D01*
X009678Y001494D01*
X009641Y001530D01*
X009641Y001567D01*
X009678Y001604D01*
X009751Y001604D01*
X009788Y001567D01*
X009862Y001604D02*
X009862Y001384D01*
X010009Y001384D01*
X010157Y001384D02*
X010157Y001604D01*
X010230Y001604D02*
X010083Y001604D01*
X010009Y001604D02*
X009862Y001604D01*
X009862Y001494D02*
X009936Y001494D01*
X009567Y001604D02*
X009420Y001604D01*
X009420Y001384D01*
X009420Y001494D02*
X009494Y001494D01*
X010430Y001455D02*
X010503Y001382D01*
X010577Y001455D01*
X010577Y001602D01*
X010651Y001565D02*
X010651Y001418D01*
X010688Y001382D01*
X010761Y001382D01*
X010798Y001418D01*
X010872Y001418D02*
X010909Y001382D01*
X010982Y001382D01*
X011019Y001418D01*
X010872Y001418D02*
X010872Y001565D01*
X010909Y001602D01*
X010982Y001602D01*
X011019Y001565D01*
X010798Y001565D02*
X010761Y001602D01*
X010688Y001602D01*
X010651Y001565D01*
X010430Y001602D02*
X010430Y001455D01*
X011393Y001422D02*
X011429Y001386D01*
X011503Y001386D01*
X011539Y001422D01*
X011539Y001496D01*
X011466Y001496D01*
X011393Y001569D02*
X011393Y001422D01*
X011393Y001569D02*
X011429Y001606D01*
X011503Y001606D01*
X011539Y001569D01*
X011614Y001606D02*
X011760Y001386D01*
X011760Y001606D01*
X011835Y001606D02*
X011945Y001606D01*
X011981Y001569D01*
X011981Y001422D01*
X011945Y001386D01*
X011835Y001386D01*
X011835Y001606D01*
X011614Y001606D02*
X011614Y001386D01*
X011614Y001959D02*
X011760Y001959D01*
X011687Y001959D02*
X011687Y002179D01*
X011614Y002105D01*
X011539Y002142D02*
X011503Y002179D01*
X011393Y002179D01*
X011393Y001959D01*
X011503Y001959D01*
X011539Y001995D01*
X011539Y002142D01*
X011835Y002142D02*
X011871Y002179D01*
X011945Y002179D01*
X011981Y002142D01*
X011981Y002105D01*
X011945Y002069D01*
X011981Y002032D01*
X011981Y001995D01*
X011945Y001959D01*
X011871Y001959D01*
X011835Y001995D01*
X011908Y002069D02*
X011945Y002069D01*
X011838Y004854D02*
X011765Y004927D01*
X011765Y005074D01*
X011690Y005037D02*
X011544Y004891D01*
X011544Y005037D01*
X011580Y005074D01*
X011654Y005074D01*
X011690Y005037D01*
X011690Y004891D01*
X011654Y004854D01*
X011580Y004854D01*
X011544Y004891D01*
X011765Y004964D02*
X011911Y004964D01*
X011911Y004927D02*
X011838Y004854D01*
X011911Y004927D02*
X011911Y005074D01*
X010902Y005074D02*
X010902Y004927D01*
X010828Y004854D01*
X010755Y004927D01*
X010755Y005074D01*
X010681Y005074D02*
X010534Y005074D01*
X010607Y005074D02*
X010607Y004854D01*
X010681Y004927D01*
X010755Y004964D02*
X010902Y004964D01*
X009892Y004964D02*
X009745Y004964D01*
X009745Y004927D02*
X009745Y005074D01*
X009671Y005074D02*
X009524Y004927D01*
X009524Y004891D01*
X009561Y004854D01*
X009634Y004854D01*
X009671Y004891D01*
X009745Y004927D02*
X009818Y004854D01*
X009892Y004927D01*
X009892Y005074D01*
X009671Y005074D02*
X009524Y005074D01*
X008970Y005078D02*
X008970Y004931D01*
X008897Y004858D01*
X008824Y004931D01*
X008824Y005078D01*
X008749Y005041D02*
X008713Y005078D01*
X008639Y005078D01*
X008603Y005041D01*
X008603Y005005D01*
X008639Y004968D01*
X008676Y004968D01*
X008639Y004968D02*
X008603Y004931D01*
X008603Y004895D01*
X008639Y004858D01*
X008713Y004858D01*
X008749Y004895D01*
X008824Y004968D02*
X008970Y004968D01*
X007909Y004970D02*
X007763Y004970D01*
X007763Y004933D02*
X007763Y005080D01*
X007909Y005080D02*
X007909Y004933D01*
X007836Y004860D01*
X007763Y004933D01*
X007688Y004970D02*
X007542Y004970D01*
X007578Y005080D02*
X007578Y004860D01*
X007688Y004970D01*
X006921Y004964D02*
X006774Y004964D01*
X006774Y004927D02*
X006774Y005074D01*
X006700Y005037D02*
X006664Y005074D01*
X006590Y005074D01*
X006553Y005037D01*
X006553Y004964D01*
X006590Y004927D01*
X006627Y004927D01*
X006700Y004964D01*
X006700Y004854D01*
X006553Y004854D01*
X006774Y004927D02*
X006848Y004854D01*
X006921Y004927D01*
X006921Y005074D01*
X005941Y005075D02*
X005941Y004855D01*
X005831Y004855D01*
X005794Y004892D01*
X005794Y005038D01*
X005831Y005075D01*
X005941Y005075D01*
X005720Y005038D02*
X005573Y004892D01*
X005573Y005038D01*
X005610Y005075D01*
X005683Y005075D01*
X005720Y005038D01*
X005720Y004892D01*
X005683Y004855D01*
X005610Y004855D01*
X005573Y004892D01*
X005573Y004715D02*
X005720Y004495D01*
X005794Y004532D02*
X005794Y004605D01*
X005831Y004642D01*
X005941Y004642D01*
X005941Y004715D02*
X005941Y004495D01*
X005831Y004495D01*
X005794Y004532D01*
X005868Y004642D02*
X005794Y004715D01*
X005720Y004715D02*
X005573Y004495D01*
X004917Y004495D02*
X004770Y004495D01*
X004696Y004495D02*
X004550Y004715D01*
X004696Y004715D02*
X004550Y004495D01*
X004844Y004495D02*
X004844Y004715D01*
X004807Y004855D02*
X004917Y004855D01*
X004917Y005075D01*
X004807Y005075D01*
X004770Y005038D01*
X004770Y004892D01*
X004807Y004855D01*
X004696Y004928D02*
X004623Y004855D01*
X004623Y005075D01*
X004696Y005075D02*
X004550Y005075D01*
X003931Y005078D02*
X003931Y004858D01*
X003821Y004858D01*
X003784Y004895D01*
X003784Y005041D01*
X003821Y005078D01*
X003931Y005078D01*
X003710Y005078D02*
X003563Y004931D01*
X003563Y004895D01*
X003600Y004858D01*
X003673Y004858D01*
X003710Y004895D01*
X003710Y005078D02*
X003563Y005078D01*
X002909Y005075D02*
X002909Y004855D01*
X002799Y004855D01*
X002763Y004892D01*
X002763Y005038D01*
X002799Y005075D01*
X002909Y005075D01*
X002688Y005038D02*
X002652Y005075D01*
X002578Y005075D01*
X002542Y005038D01*
X002542Y005002D01*
X002578Y004965D01*
X002615Y004965D01*
X002578Y004965D02*
X002542Y004928D01*
X002542Y004892D01*
X002578Y004855D01*
X002652Y004855D01*
X002688Y004892D01*
X002652Y004715D02*
X002652Y004495D01*
X002578Y004495D02*
X002505Y004568D01*
X002431Y004495D01*
X002431Y004715D01*
X002578Y004715D02*
X002578Y004495D01*
X002726Y004642D02*
X002652Y004715D01*
X002726Y004642D02*
X002799Y004715D01*
X002799Y004495D01*
X002873Y004532D02*
X002873Y004605D01*
X002910Y004642D01*
X003020Y004642D01*
X003020Y004715D02*
X003020Y004495D01*
X002910Y004495D01*
X002873Y004532D01*
X001925Y004856D02*
X001925Y005076D01*
X001815Y005076D01*
X001778Y005039D01*
X001778Y004893D01*
X001815Y004856D01*
X001925Y004856D01*
X001704Y004966D02*
X001557Y004966D01*
X001594Y004856D02*
X001704Y004966D01*
X001594Y005076D02*
X001594Y004856D01*
X001012Y004715D02*
X001012Y004495D01*
X000902Y004495D01*
X000865Y004532D01*
X000865Y004605D01*
X000902Y004642D01*
X001012Y004642D01*
X000791Y004715D02*
X000791Y004495D01*
X000644Y004495D02*
X000644Y004715D01*
X000718Y004642D01*
X000791Y004715D01*
X000570Y004715D02*
X000570Y004495D01*
X000497Y004568D01*
X000423Y004495D01*
X000423Y004715D01*
X000534Y004855D02*
X000681Y004855D01*
X000681Y004965D01*
X000607Y004928D01*
X000570Y004928D01*
X000534Y004965D01*
X000534Y005038D01*
X000570Y005075D01*
X000644Y005075D01*
X000681Y005038D01*
X000755Y005038D02*
X000791Y005075D01*
X000902Y005075D01*
X000902Y004855D01*
X000791Y004855D01*
X000755Y004892D01*
X000755Y005038D01*
D12*
X003013Y004254D02*
X003013Y004230D01*
X003013Y002230D02*
X003013Y002206D01*
X004667Y002084D02*
X004667Y002060D01*
X008001Y002572D02*
X008025Y002572D01*
D13*
X007983Y003255D02*
X007933Y003255D01*
X007908Y003280D01*
X007908Y003380D01*
X007933Y003405D01*
X007983Y003405D01*
X008008Y003380D01*
X008055Y003330D02*
X008156Y003330D01*
X008131Y003255D02*
X008131Y003405D01*
X008055Y003330D01*
X008008Y003280D02*
X007983Y003255D01*
X010727Y003936D02*
X010727Y004086D01*
X010802Y004086D01*
X010827Y004061D01*
X010827Y004011D01*
X010802Y003986D01*
X010727Y003986D01*
X010777Y003986D02*
X010827Y003936D01*
X010874Y003936D02*
X010974Y004036D01*
X010974Y004061D01*
X010949Y004086D01*
X010899Y004086D01*
X010874Y004061D01*
X010874Y003936D02*
X010974Y003936D01*
X011409Y004261D02*
X011509Y004261D01*
X011556Y004261D02*
X011656Y004261D01*
X011704Y004261D02*
X011779Y004261D01*
X011804Y004286D01*
X011804Y004386D01*
X011779Y004411D01*
X011704Y004411D01*
X011704Y004261D01*
X011851Y004261D02*
X011951Y004261D01*
X011901Y004261D02*
X011901Y004411D01*
X011851Y004361D01*
X011656Y004411D02*
X011556Y004411D01*
X011556Y004261D01*
X011409Y004261D02*
X011409Y004411D01*
X011556Y004336D02*
X011606Y004336D01*
X010070Y001751D02*
X010070Y001601D01*
X010020Y001601D02*
X010120Y001601D01*
X009973Y001601D02*
X009923Y001651D01*
X009948Y001651D02*
X009873Y001651D01*
X009873Y001601D02*
X009873Y001751D01*
X009948Y001751D01*
X009973Y001726D01*
X009973Y001676D01*
X009948Y001651D01*
X010020Y001701D02*
X010070Y001751D01*
X004801Y002339D02*
X004776Y002314D01*
X004726Y002314D01*
X004701Y002339D01*
X004654Y002339D02*
X004629Y002314D01*
X004579Y002314D01*
X004554Y002339D01*
X004554Y002439D01*
X004579Y002464D01*
X004629Y002464D01*
X004654Y002439D01*
X004701Y002439D02*
X004726Y002464D01*
X004776Y002464D01*
X004801Y002439D01*
X004801Y002414D01*
X004776Y002389D01*
X004801Y002364D01*
X004801Y002339D01*
X004776Y002389D02*
X004751Y002389D01*
X002282Y002269D02*
X002282Y002244D01*
X002181Y002144D01*
X002282Y002144D01*
X002134Y002169D02*
X002109Y002144D01*
X002059Y002144D01*
X002034Y002169D01*
X002034Y002269D01*
X002059Y002294D01*
X002109Y002294D01*
X002134Y002269D01*
X002181Y002269D02*
X002206Y002294D01*
X002257Y002294D01*
X002282Y002269D01*
X002282Y004168D02*
X002181Y004168D01*
X002232Y004168D02*
X002232Y004318D01*
X002181Y004268D01*
X002134Y004293D02*
X002109Y004318D01*
X002059Y004318D01*
X002034Y004293D01*
X002034Y004193D01*
X002059Y004168D01*
X002109Y004168D01*
X002134Y004193D01*
D14*
X009986Y002069D03*
D15*
X000964Y000226D02*
X000464Y000226D01*
X000214Y000476D01*
X000214Y000976D01*
X000464Y001226D01*
X000964Y001226D01*
X001214Y000976D01*
X001464Y001226D01*
X001964Y001226D01*
X002214Y000976D01*
X002464Y001226D01*
X002964Y001226D01*
X003214Y000976D01*
X003464Y001226D01*
X003964Y001226D01*
X004214Y000976D01*
X004464Y001226D01*
X004964Y001226D01*
X005214Y000976D01*
X005464Y001226D01*
X005964Y001226D01*
X006214Y000976D01*
X006464Y001226D01*
X006964Y001226D01*
X007214Y000976D01*
X007464Y001226D01*
X007964Y001226D01*
X008214Y000976D01*
X008464Y001226D01*
X008964Y001226D01*
X009214Y000976D01*
X009464Y001226D01*
X009964Y001226D01*
X010214Y000976D01*
X010464Y001226D01*
X010964Y001226D01*
X011214Y000976D01*
X011464Y001226D01*
X011964Y001226D01*
X012214Y000976D01*
X012214Y000476D01*
X011964Y000226D01*
X011464Y000226D01*
X011214Y000476D01*
X010964Y000226D01*
X010464Y000226D01*
X010214Y000476D01*
X009964Y000226D01*
X009464Y000226D01*
X009214Y000476D01*
X008964Y000226D01*
X008464Y000226D01*
X008214Y000476D01*
X007964Y000226D01*
X007464Y000226D01*
X007214Y000476D01*
X006964Y000226D01*
X006464Y000226D01*
X006214Y000476D01*
X005964Y000226D01*
X005464Y000226D01*
X005214Y000476D01*
X004964Y000226D01*
X004464Y000226D01*
X004214Y000476D01*
X003964Y000226D01*
X003464Y000226D01*
X003214Y000476D01*
X002964Y000226D01*
X002464Y000226D01*
X002214Y000476D01*
X001964Y000226D01*
X001464Y000226D01*
X001214Y000476D01*
X000964Y000226D01*
X000964Y005226D02*
X000464Y005226D01*
X000214Y005476D01*
X000214Y005976D01*
X000464Y006226D01*
X000964Y006226D01*
X001214Y005976D01*
X001464Y006226D01*
X001964Y006226D01*
X002214Y005976D01*
X002464Y006226D01*
X002964Y006226D01*
X003214Y005976D01*
X003464Y006226D01*
X003964Y006226D01*
X004214Y005976D01*
X004464Y006226D01*
X004964Y006226D01*
X005214Y005976D01*
X005464Y006226D01*
X005964Y006226D01*
X006214Y005976D01*
X006464Y006226D01*
X006964Y006226D01*
X007214Y005976D01*
X007464Y006226D01*
X007964Y006226D01*
X008214Y005976D01*
X008464Y006226D01*
X008964Y006226D01*
X009214Y005976D01*
X009464Y006226D01*
X009964Y006226D01*
X010214Y005976D01*
X010464Y006226D01*
X010964Y006226D01*
X011214Y005976D01*
X011464Y006226D01*
X011964Y006226D01*
X012214Y005976D01*
X012214Y005476D01*
X011964Y005226D01*
X011464Y005226D01*
X011214Y005476D01*
X010964Y005226D01*
X010464Y005226D01*
X010214Y005476D01*
X009964Y005226D01*
X009464Y005226D01*
X009214Y005476D01*
X008964Y005226D01*
X008464Y005226D01*
X008214Y005476D01*
X007964Y005226D01*
X007464Y005226D01*
X007214Y005476D01*
X006964Y005226D01*
X006464Y005226D01*
X006214Y005476D01*
X005964Y005226D01*
X005464Y005226D01*
X005214Y005476D01*
X004964Y005226D01*
X004464Y005226D01*
X004214Y005476D01*
X003964Y005226D01*
X003464Y005226D01*
X003214Y005476D01*
X002964Y005226D01*
X002464Y005226D01*
X002214Y005476D01*
X001964Y005226D01*
X001464Y005226D01*
X001214Y005476D01*
X000964Y005226D01*
X011395Y003348D02*
X011671Y003348D01*
X011907Y003112D01*
X011435Y003112D01*
X011671Y003348D01*
X011946Y003348D01*
D16*
X010848Y003230D03*
M02*
