G75*
%MOIN*%
%OFA0B0*%
%FSLAX24Y24*%
%IPPOS*%
%LPD*%
%AMOC8*
5,1,8,0,0,1.08239X$1,22.5*
%
%ADD10C,0.0118*%
%ADD11C,0.0360*%
%ADD12C,0.0250*%
%ADD13R,0.0847X0.0532*%
%ADD14C,0.0266*%
%ADD15R,0.0493X0.0454*%
%ADD16R,0.0454X0.0493*%
%ADD17R,0.0611X0.0532*%
%ADD18C,0.0800*%
D10*
X005317Y002698D02*
X005553Y002698D01*
X005691Y002561D02*
X005691Y002324D01*
X005868Y002324D02*
X005868Y002600D01*
X006045Y002600D02*
X006045Y002324D01*
X006222Y002324D02*
X006222Y002600D01*
X006399Y002600D02*
X006399Y002324D01*
X006576Y002324D02*
X006576Y002600D01*
X006754Y002561D02*
X006754Y002324D01*
X006891Y002698D02*
X007128Y002698D01*
X007128Y002876D02*
X006852Y002876D01*
X006852Y003053D02*
X007128Y003053D01*
X007128Y003230D02*
X006852Y003230D01*
X006852Y003407D02*
X007128Y003407D01*
X007128Y003584D02*
X006852Y003584D01*
X006891Y003761D02*
X007128Y003761D01*
X006754Y003899D02*
X006754Y004135D01*
X006576Y004135D02*
X006576Y003860D01*
X006399Y003860D02*
X006399Y004135D01*
X006222Y004135D02*
X006222Y003860D01*
X006045Y003860D02*
X006045Y004135D01*
X005868Y004135D02*
X005868Y003860D01*
X005691Y003899D02*
X005691Y004135D01*
X005553Y003761D02*
X005317Y003761D01*
X005317Y003584D02*
X005592Y003584D01*
X005592Y003407D02*
X005317Y003407D01*
X005317Y003230D02*
X005592Y003230D01*
X005592Y003053D02*
X005317Y003053D01*
X005317Y002876D02*
X005592Y002876D01*
D11*
X006002Y003010D03*
X006442Y003010D03*
X006442Y003450D03*
X006002Y003450D03*
X004854Y003630D03*
X006320Y004588D03*
X008966Y002907D03*
X009785Y003328D03*
X009155Y002069D03*
X008210Y001478D03*
X007383Y001950D03*
X005376Y002423D03*
X004706Y002620D03*
X010809Y002069D03*
D12*
X006097Y003230D02*
X006099Y003252D01*
X006105Y003273D01*
X006114Y003292D01*
X006126Y003310D01*
X006142Y003326D01*
X006159Y003338D01*
X006179Y003347D01*
X006200Y003353D01*
X006222Y003355D01*
X006244Y003353D01*
X006265Y003347D01*
X006284Y003338D01*
X006302Y003326D01*
X006318Y003310D01*
X006330Y003292D01*
X006339Y003273D01*
X006345Y003252D01*
X006347Y003230D01*
X006345Y003208D01*
X006339Y003187D01*
X006330Y003168D01*
X006318Y003150D01*
X006302Y003134D01*
X006285Y003122D01*
X006265Y003113D01*
X006244Y003107D01*
X006222Y003105D01*
X006200Y003107D01*
X006179Y003113D01*
X006159Y003122D01*
X006142Y003134D01*
X006126Y003150D01*
X006114Y003167D01*
X006105Y003187D01*
X006099Y003208D01*
X006097Y003230D01*
D13*
X003616Y002797D03*
X002159Y002797D03*
X002159Y003663D03*
D14*
X003326Y003796D02*
X003906Y003796D01*
X003906Y003530D01*
X003326Y003530D01*
X003326Y003796D01*
X003326Y003795D02*
X003906Y003795D01*
D15*
X003348Y004242D03*
X002679Y004242D03*
X002679Y002218D03*
X003348Y002218D03*
X004332Y002072D03*
X005002Y002072D03*
X009651Y002069D03*
X010320Y002069D03*
D16*
X010848Y002895D03*
X010848Y003565D03*
X008013Y002907D03*
X008013Y002238D03*
D17*
X011671Y002639D03*
X011671Y003820D03*
D18*
X000714Y000726D03*
X001714Y000726D03*
X002714Y000726D03*
X003714Y000726D03*
X004714Y000726D03*
X005714Y000726D03*
X006714Y000726D03*
X007714Y000726D03*
X008714Y000726D03*
X009714Y000726D03*
X010714Y000726D03*
X011714Y000726D03*
X011714Y005726D03*
X010714Y005726D03*
X009714Y005726D03*
X008714Y005726D03*
X007714Y005726D03*
X006714Y005726D03*
X005714Y005726D03*
X004714Y005726D03*
X003714Y005726D03*
X002714Y005726D03*
X001714Y005726D03*
X000714Y005726D03*
M02*
