G75*
%MOIN*%
%OFA0B0*%
%FSLAX24Y24*%
%IPPOS*%
%LPD*%
%AMOC8*
5,1,8,0,0,1.08239X$1,22.5*
%
%ADD10C,0.0000*%
D10*
X000533Y000139D02*
X011911Y000139D01*
X011950Y000141D01*
X011988Y000147D01*
X012025Y000156D01*
X012062Y000169D01*
X012097Y000186D01*
X012130Y000205D01*
X012161Y000228D01*
X012190Y000254D01*
X012216Y000283D01*
X012239Y000314D01*
X012258Y000347D01*
X012275Y000382D01*
X012288Y000419D01*
X012297Y000456D01*
X012303Y000494D01*
X012305Y000533D01*
X012305Y005927D01*
X012303Y005966D01*
X012297Y006004D01*
X012288Y006041D01*
X012275Y006078D01*
X012258Y006113D01*
X012239Y006146D01*
X012216Y006177D01*
X012190Y006206D01*
X012161Y006232D01*
X012130Y006255D01*
X012097Y006274D01*
X012062Y006291D01*
X012025Y006304D01*
X011988Y006313D01*
X011950Y006319D01*
X011911Y006321D01*
X011911Y006320D02*
X000533Y006320D01*
X000533Y006321D02*
X000494Y006319D01*
X000456Y006313D01*
X000419Y006304D01*
X000382Y006291D01*
X000347Y006274D01*
X000314Y006255D01*
X000283Y006232D01*
X000254Y006206D01*
X000228Y006177D01*
X000205Y006146D01*
X000186Y006113D01*
X000169Y006078D01*
X000156Y006041D01*
X000147Y006004D01*
X000141Y005966D01*
X000139Y005927D01*
X000139Y000533D01*
X000141Y000494D01*
X000147Y000456D01*
X000156Y000419D01*
X000169Y000382D01*
X000186Y000347D01*
X000205Y000314D01*
X000228Y000283D01*
X000254Y000254D01*
X000283Y000228D01*
X000314Y000205D01*
X000347Y000186D01*
X000382Y000169D01*
X000419Y000156D01*
X000456Y000147D01*
X000494Y000141D01*
X000533Y000139D01*
M02*
