G75*
%MOIN*%
%OFA0B0*%
%FSLAX24Y24*%
%IPPOS*%
%LPD*%
%AMOC8*
5,1,8,0,0,1.08239X$1,22.5*
%
%ADD10R,0.0315X0.0354*%
%ADD11R,0.0433X0.0394*%
%ADD12C,0.0740*%
%ADD13C,0.0080*%
%ADD14C,0.0160*%
D10*
X000529Y001746D03*
X001277Y001746D03*
X002041Y001746D03*
X002789Y001746D03*
X003553Y001746D03*
X004301Y001746D03*
X005065Y001746D03*
X005813Y001746D03*
X005439Y002572D03*
X003927Y002572D03*
X002415Y002572D03*
X000903Y002572D03*
D11*
X000580Y003013D03*
X001250Y003013D03*
X002069Y003013D03*
X002738Y003013D03*
X003592Y003013D03*
X004261Y003013D03*
X005116Y003013D03*
X005785Y003013D03*
X005785Y001305D03*
X005116Y001305D03*
X004261Y001305D03*
X003592Y001305D03*
X002746Y001305D03*
X002076Y001305D03*
X001250Y001305D03*
X000580Y001305D03*
D12*
X000671Y000671D03*
X001671Y000671D03*
X002671Y000671D03*
X003671Y000671D03*
X004671Y000671D03*
X005671Y000671D03*
X005671Y003655D03*
X004671Y003655D03*
X003671Y003655D03*
X002671Y003655D03*
X001671Y003655D03*
X000671Y003655D03*
D13*
X000671Y003104D01*
X000580Y003013D01*
X000580Y002895D01*
X000903Y002572D01*
X001250Y003013D02*
X001986Y002277D01*
X002856Y002277D01*
X003565Y002277D01*
X003565Y003013D01*
X003592Y003013D01*
X003927Y002572D02*
X004261Y002907D01*
X004261Y003013D01*
X004671Y003423D01*
X004671Y003655D01*
X005116Y003013D02*
X005116Y002277D01*
X003565Y002277D01*
X003545Y002041D02*
X003545Y001746D01*
X003553Y001746D01*
X003592Y001706D01*
X003592Y001746D02*
X003553Y001746D01*
X003545Y002041D02*
X001990Y002041D01*
X001990Y001746D01*
X002041Y001746D01*
X002076Y001746D01*
X002076Y001305D01*
X002088Y000761D02*
X002631Y001305D01*
X002746Y001305D01*
X002746Y001702D01*
X002789Y001746D01*
X003545Y002041D02*
X004769Y002041D01*
X005065Y001746D01*
X005065Y001356D01*
X005116Y001305D01*
X005671Y001191D02*
X005671Y000671D01*
X005671Y001191D02*
X005785Y001305D01*
X005785Y001718D01*
X005813Y001746D01*
X005439Y002572D02*
X005785Y002919D01*
X005785Y003013D01*
X005671Y003128D01*
X005671Y003655D01*
X004301Y001746D02*
X004301Y001344D01*
X004261Y001305D01*
X004671Y000895D01*
X004671Y000671D01*
X002088Y000761D02*
X001761Y000761D01*
X001671Y000671D01*
X001250Y001250D02*
X001250Y001305D01*
X001250Y001746D01*
X001277Y001746D01*
X000580Y001746D02*
X000580Y001305D01*
X000580Y001746D02*
X000529Y001746D01*
X000529Y002041D01*
X001990Y002041D01*
X002415Y002572D02*
X002069Y002919D01*
X002069Y003013D01*
X001671Y003411D01*
X001671Y003655D01*
X002738Y003013D02*
X002757Y003013D01*
X001250Y001250D02*
X000671Y000671D01*
D14*
X002671Y000671D02*
X002777Y000671D01*
X003411Y001305D01*
X003592Y001305D01*
X003553Y001344D01*
X003553Y001746D01*
X002856Y002277D02*
X002856Y002915D01*
X002757Y003013D01*
X002738Y003013D02*
X002671Y003080D01*
X002671Y003655D01*
M02*
