G75*
%MOIN*%
%OFA0B0*%
%FSLAX24Y24*%
%IPPOS*%
%LPD*%
%AMOC8*
5,1,8,0,0,1.08239X$1,22.5*
%
%ADD10C,0.0000*%
D10*
X000533Y000139D02*
X005809Y000139D01*
X005848Y000141D01*
X005886Y000147D01*
X005923Y000156D01*
X005960Y000169D01*
X005995Y000186D01*
X006028Y000205D01*
X006059Y000228D01*
X006088Y000254D01*
X006114Y000283D01*
X006137Y000314D01*
X006156Y000347D01*
X006173Y000382D01*
X006186Y000419D01*
X006195Y000456D01*
X006201Y000494D01*
X006203Y000533D01*
X006202Y000533D02*
X006202Y003793D01*
X006203Y003793D02*
X006201Y003832D01*
X006195Y003870D01*
X006186Y003907D01*
X006173Y003944D01*
X006156Y003979D01*
X006137Y004012D01*
X006114Y004043D01*
X006088Y004072D01*
X006059Y004098D01*
X006028Y004121D01*
X005995Y004140D01*
X005960Y004157D01*
X005923Y004170D01*
X005886Y004179D01*
X005848Y004185D01*
X005809Y004187D01*
X000533Y004187D01*
X000494Y004185D01*
X000456Y004179D01*
X000419Y004170D01*
X000382Y004157D01*
X000347Y004140D01*
X000314Y004121D01*
X000283Y004098D01*
X000254Y004072D01*
X000228Y004043D01*
X000205Y004012D01*
X000186Y003979D01*
X000169Y003944D01*
X000156Y003907D01*
X000147Y003870D01*
X000141Y003832D01*
X000139Y003793D01*
X000139Y000533D01*
X000141Y000494D01*
X000147Y000456D01*
X000156Y000419D01*
X000169Y000382D01*
X000186Y000347D01*
X000205Y000314D01*
X000228Y000283D01*
X000254Y000254D01*
X000283Y000228D01*
X000314Y000205D01*
X000347Y000186D01*
X000382Y000169D01*
X000419Y000156D01*
X000456Y000147D01*
X000494Y000141D01*
X000533Y000139D01*
M02*
