G75*
%MOIN*%
%OFA0B0*%
%FSLAX24Y24*%
%IPPOS*%
%LPD*%
%AMOC8*
5,1,8,0,0,1.08239X$1,22.5*
%
%ADD10C,0.0000*%
%ADD11C,0.0010*%
D10*
X000533Y000139D02*
X005809Y000139D01*
X005848Y000141D01*
X005886Y000147D01*
X005923Y000156D01*
X005960Y000169D01*
X005995Y000186D01*
X006028Y000205D01*
X006059Y000228D01*
X006088Y000254D01*
X006114Y000283D01*
X006137Y000314D01*
X006156Y000347D01*
X006173Y000382D01*
X006186Y000419D01*
X006195Y000456D01*
X006201Y000494D01*
X006203Y000533D01*
X006202Y000533D02*
X006202Y003793D01*
X006203Y003793D02*
X006201Y003832D01*
X006195Y003870D01*
X006186Y003907D01*
X006173Y003944D01*
X006156Y003979D01*
X006137Y004012D01*
X006114Y004043D01*
X006088Y004072D01*
X006059Y004098D01*
X006028Y004121D01*
X005995Y004140D01*
X005960Y004157D01*
X005923Y004170D01*
X005886Y004179D01*
X005848Y004185D01*
X005809Y004187D01*
X000533Y004187D01*
X000494Y004185D01*
X000456Y004179D01*
X000419Y004170D01*
X000382Y004157D01*
X000347Y004140D01*
X000314Y004121D01*
X000283Y004098D01*
X000254Y004072D01*
X000228Y004043D01*
X000205Y004012D01*
X000186Y003979D01*
X000169Y003944D01*
X000156Y003907D01*
X000147Y003870D01*
X000141Y003832D01*
X000139Y003793D01*
X000139Y000533D01*
X000141Y000494D01*
X000147Y000456D01*
X000156Y000419D01*
X000169Y000382D01*
X000186Y000347D01*
X000205Y000314D01*
X000228Y000283D01*
X000254Y000254D01*
X000283Y000228D01*
X000314Y000205D01*
X000347Y000186D01*
X000382Y000169D01*
X000419Y000156D01*
X000456Y000147D01*
X000494Y000141D01*
X000533Y000139D01*
D11*
X000518Y001148D02*
X000518Y001298D01*
X000568Y001248D01*
X000615Y001198D02*
X000615Y001298D01*
X000715Y001298D02*
X000715Y001198D01*
X000665Y001148D01*
X000615Y001198D01*
X000568Y001148D02*
X000468Y001148D01*
X000763Y001148D02*
X000863Y001148D01*
X000863Y001298D01*
X001472Y001273D02*
X001472Y001248D01*
X001572Y001148D01*
X001472Y001148D01*
X001619Y001198D02*
X001619Y001298D01*
X001572Y001273D02*
X001547Y001298D01*
X001497Y001298D01*
X001472Y001273D01*
X001619Y001198D02*
X001669Y001148D01*
X001719Y001198D01*
X001719Y001298D01*
X001867Y001298D02*
X001867Y001148D01*
X001767Y001148D01*
X002544Y001198D02*
X002594Y001148D01*
X002645Y001198D01*
X002645Y001298D01*
X002544Y001298D02*
X002544Y001198D01*
X002692Y001148D02*
X002792Y001148D01*
X002792Y001298D01*
X003480Y001273D02*
X003480Y001173D01*
X003505Y001148D01*
X003580Y001148D01*
X003580Y001298D01*
X003505Y001298D01*
X003480Y001273D01*
X003627Y001298D02*
X003627Y001148D01*
X003727Y001298D01*
X003727Y001148D01*
X003774Y001173D02*
X003774Y001223D01*
X003824Y001223D01*
X003774Y001173D02*
X003799Y001148D01*
X003850Y001148D01*
X003875Y001173D01*
X003875Y001273D01*
X003850Y001298D01*
X003799Y001298D01*
X003774Y001273D01*
X004464Y001273D02*
X004464Y001248D01*
X004489Y001223D01*
X004464Y001198D01*
X004464Y001173D01*
X004489Y001148D01*
X004539Y001148D01*
X004564Y001173D01*
X004611Y001198D02*
X004611Y001298D01*
X004564Y001273D02*
X004539Y001298D01*
X004489Y001298D01*
X004464Y001273D01*
X004489Y001223D02*
X004514Y001223D01*
X004611Y001198D02*
X004661Y001148D01*
X004711Y001198D01*
X004711Y001298D01*
X004859Y001298D02*
X004859Y001148D01*
X004759Y001148D01*
X005468Y001223D02*
X005568Y001223D01*
X005493Y001298D01*
X005493Y001148D01*
X005615Y001198D02*
X005615Y001298D01*
X005715Y001298D02*
X005715Y001198D01*
X005665Y001148D01*
X005615Y001198D01*
X005763Y001148D02*
X005863Y001148D01*
X005863Y001298D01*
X005807Y001776D02*
X005757Y001776D01*
X005807Y001776D02*
X005832Y001801D01*
X005832Y001851D01*
X005807Y001876D01*
X005757Y001876D01*
X005732Y001851D01*
X005732Y001826D01*
X005832Y001826D01*
X005880Y001876D02*
X005905Y001876D01*
X005955Y001826D01*
X005955Y001776D02*
X005955Y001876D01*
X005685Y001876D02*
X005635Y001776D01*
X005585Y001876D01*
X005538Y001876D02*
X005488Y001926D01*
X005488Y001776D01*
X005538Y001776D02*
X005438Y001776D01*
X005445Y002244D02*
X005495Y002244D01*
X005520Y002269D01*
X005520Y002319D01*
X005495Y002344D01*
X005445Y002344D01*
X005420Y002319D01*
X005420Y002294D01*
X005520Y002294D01*
X005568Y002344D02*
X005618Y002244D01*
X005668Y002344D01*
X005715Y002319D02*
X005715Y002294D01*
X005815Y002294D01*
X005815Y002269D02*
X005815Y002319D01*
X005790Y002344D01*
X005740Y002344D01*
X005715Y002319D01*
X005790Y002244D02*
X005815Y002269D01*
X005790Y002244D02*
X005740Y002244D01*
X005862Y002244D02*
X005962Y002244D01*
X005962Y002394D01*
X005962Y002484D02*
X005887Y002484D01*
X005862Y002509D01*
X005862Y002534D01*
X005887Y002559D01*
X005962Y002559D01*
X005962Y002484D02*
X005962Y002634D01*
X005887Y002634D01*
X005862Y002609D01*
X005862Y002584D01*
X005887Y002559D01*
X005815Y002584D02*
X005790Y002584D01*
X005790Y002484D01*
X005815Y002484D02*
X005765Y002484D01*
X005717Y002559D02*
X005617Y002559D01*
X005569Y002634D02*
X005569Y002484D01*
X005494Y002484D01*
X005469Y002509D01*
X005469Y002609D01*
X005494Y002634D01*
X005569Y002634D01*
X005422Y002584D02*
X005397Y002584D01*
X005397Y002484D01*
X005422Y002484D02*
X005372Y002484D01*
X005324Y002484D02*
X005324Y002584D01*
X005324Y002534D02*
X005274Y002584D01*
X005249Y002584D01*
X005201Y002559D02*
X005176Y002584D01*
X005126Y002584D01*
X005101Y002559D01*
X005101Y002534D01*
X005201Y002534D01*
X005201Y002509D02*
X005201Y002559D01*
X005201Y002509D02*
X005176Y002484D01*
X005126Y002484D01*
X005054Y002509D02*
X005029Y002484D01*
X004954Y002484D01*
X005054Y002509D02*
X005054Y002559D01*
X005029Y002584D01*
X004954Y002584D01*
X004906Y002584D02*
X004856Y002584D01*
X004881Y002609D02*
X004881Y002509D01*
X004856Y002484D01*
X004808Y002484D02*
X004758Y002484D01*
X004783Y002484D02*
X004783Y002584D01*
X004808Y002584D01*
X004783Y002634D02*
X004783Y002660D01*
X004685Y002584D02*
X004710Y002559D01*
X004710Y002509D01*
X004685Y002484D01*
X004635Y002484D01*
X004610Y002509D01*
X004610Y002559D01*
X004635Y002584D01*
X004685Y002584D01*
X004563Y002584D02*
X004563Y002484D01*
X004463Y002484D02*
X004463Y002559D01*
X004488Y002584D01*
X004563Y002584D01*
X004415Y002509D02*
X004390Y002484D01*
X004315Y002484D01*
X004315Y002559D01*
X004340Y002584D01*
X004390Y002584D01*
X004390Y002534D02*
X004315Y002534D01*
X004268Y002484D02*
X004218Y002484D01*
X004243Y002484D02*
X004243Y002634D01*
X004268Y002634D01*
X004390Y002534D02*
X004415Y002509D01*
X004391Y002344D02*
X004391Y002244D01*
X004463Y002244D02*
X004513Y002244D01*
X004538Y002269D01*
X004538Y002319D01*
X004513Y002344D01*
X004463Y002344D01*
X004438Y002319D01*
X004438Y002294D01*
X004538Y002294D01*
X004586Y002244D02*
X004611Y002269D01*
X004611Y002369D01*
X004636Y002344D02*
X004586Y002344D01*
X004685Y002319D02*
X004735Y002319D01*
X004710Y002369D02*
X004685Y002394D01*
X004710Y002369D02*
X004710Y002244D01*
X004783Y002244D02*
X004833Y002244D01*
X004808Y002244D02*
X004808Y002344D01*
X004833Y002344D01*
X004880Y002319D02*
X004880Y002244D01*
X004880Y002319D02*
X004905Y002344D01*
X004955Y002344D01*
X004980Y002319D01*
X005027Y002294D02*
X005027Y002269D01*
X005052Y002244D01*
X005102Y002244D01*
X005127Y002269D01*
X005102Y002319D02*
X005052Y002319D01*
X005027Y002294D01*
X005027Y002369D02*
X005052Y002394D01*
X005102Y002394D01*
X005127Y002369D01*
X005127Y002344D01*
X005102Y002319D01*
X004980Y002394D02*
X004980Y002244D01*
X004808Y002394D02*
X004808Y002420D01*
X004391Y002294D02*
X004341Y002344D01*
X004316Y002344D01*
X004509Y003018D02*
X004559Y003018D01*
X004584Y003043D01*
X004631Y003068D02*
X004681Y003018D01*
X004731Y003068D01*
X004731Y003169D01*
X004778Y003169D02*
X004778Y003018D01*
X004878Y003018D02*
X004878Y003169D01*
X004878Y003093D02*
X004778Y003093D01*
X004631Y003068D02*
X004631Y003169D01*
X004584Y003143D02*
X004559Y003169D01*
X004509Y003169D01*
X004484Y003143D01*
X004484Y003118D01*
X004509Y003093D01*
X004484Y003068D01*
X004484Y003043D01*
X004509Y003018D01*
X004509Y003093D02*
X004534Y003093D01*
X003875Y003043D02*
X003850Y003018D01*
X003799Y003018D01*
X003774Y003043D01*
X003774Y003093D01*
X003824Y003093D01*
X003774Y003143D02*
X003799Y003169D01*
X003850Y003169D01*
X003875Y003143D01*
X003875Y003043D01*
X003727Y003018D02*
X003727Y003169D01*
X003627Y003018D01*
X003627Y003169D01*
X003580Y003169D02*
X003505Y003169D01*
X003480Y003143D01*
X003480Y003043D01*
X003505Y003018D01*
X003580Y003018D01*
X003580Y003169D01*
X002792Y003169D02*
X002792Y003018D01*
X002792Y003093D02*
X002692Y003093D01*
X002645Y003068D02*
X002594Y003018D01*
X002544Y003068D01*
X002544Y003169D01*
X002645Y003169D02*
X002645Y003068D01*
X002692Y003018D02*
X002692Y003169D01*
X001867Y003169D02*
X001867Y003018D01*
X001867Y003093D02*
X001767Y003093D01*
X001719Y003068D02*
X001669Y003018D01*
X001619Y003068D01*
X001619Y003169D01*
X001572Y003143D02*
X001547Y003169D01*
X001497Y003169D01*
X001472Y003143D01*
X001472Y003118D01*
X001572Y003018D01*
X001472Y003018D01*
X001719Y003068D02*
X001719Y003169D01*
X001767Y003169D02*
X001767Y003018D01*
X000863Y003018D02*
X000863Y003169D01*
X000763Y003169D02*
X000763Y003018D01*
X000715Y003068D02*
X000665Y003018D01*
X000615Y003068D01*
X000615Y003169D01*
X000568Y003118D02*
X000518Y003169D01*
X000518Y003018D01*
X000568Y003018D02*
X000468Y003018D01*
X000715Y003068D02*
X000715Y003169D01*
X000763Y003093D02*
X000863Y003093D01*
X005323Y002244D02*
X005373Y002244D01*
X005348Y002244D02*
X005348Y002394D01*
X005373Y002394D01*
X005397Y002634D02*
X005397Y002660D01*
X005790Y002660D02*
X005790Y002634D01*
X005763Y003018D02*
X005763Y003169D01*
X005715Y003169D02*
X005715Y003068D01*
X005665Y003018D01*
X005615Y003068D01*
X005615Y003169D01*
X005568Y003093D02*
X005468Y003093D01*
X005493Y003169D02*
X005568Y003093D01*
X005493Y003018D02*
X005493Y003169D01*
X005763Y003093D02*
X005863Y003093D01*
X005863Y003018D02*
X005863Y003169D01*
M02*
