G75*
%MOIN*%
%OFA0B0*%
%FSLAX24Y24*%
%IPPOS*%
%LPD*%
%AMOC8*
5,1,8,0,0,1.08239X$1,22.5*
%
%ADD10C,0.0740*%
%ADD11C,0.0079*%
D10*
X000671Y000671D03*
X001671Y000671D03*
X002671Y000671D03*
X003671Y000671D03*
X004671Y000671D03*
X005671Y000671D03*
X005671Y003655D03*
X004671Y003655D03*
X003671Y003655D03*
X002671Y003655D03*
X001671Y003655D03*
X000671Y003655D03*
D11*
X000993Y003997D02*
X001069Y003921D01*
X001140Y003748D01*
X001140Y003562D01*
X001069Y003389D01*
X000937Y003257D01*
X000764Y003186D01*
X000578Y003186D01*
X000405Y003257D01*
X000329Y003333D01*
X000329Y000993D01*
X000405Y001069D01*
X000578Y001140D01*
X000764Y001140D01*
X000937Y001069D01*
X001069Y000937D01*
X001140Y000764D01*
X001140Y000578D01*
X001069Y000405D01*
X000993Y000329D01*
X001349Y000329D01*
X001273Y000405D01*
X001201Y000578D01*
X001201Y000764D01*
X001273Y000937D01*
X001405Y001069D01*
X001578Y001140D01*
X001764Y001140D01*
X001937Y001069D01*
X002069Y000937D01*
X002140Y000764D01*
X002140Y000578D01*
X002069Y000405D01*
X001993Y000329D01*
X002349Y000329D01*
X002273Y000405D01*
X002201Y000578D01*
X002201Y000764D01*
X002273Y000937D01*
X002405Y001069D01*
X002578Y001140D01*
X002764Y001140D01*
X002937Y001069D01*
X003069Y000937D01*
X003140Y000764D01*
X003140Y000578D01*
X003069Y000405D01*
X002993Y000329D01*
X003293Y000329D01*
X003282Y000339D01*
X003235Y000404D01*
X003199Y000475D01*
X003174Y000552D01*
X003161Y000631D01*
X003161Y000631D01*
X003631Y000631D01*
X003631Y000710D01*
X003161Y000710D01*
X003161Y000711D01*
X003174Y000790D01*
X003199Y000866D01*
X003235Y000938D01*
X003282Y001003D01*
X003339Y001059D01*
X003404Y001107D01*
X003475Y001143D01*
X003552Y001168D01*
X003631Y001180D01*
X003631Y001180D01*
X003631Y000710D01*
X003710Y000710D01*
X003710Y001180D01*
X003711Y001180D01*
X003790Y001168D01*
X003866Y001143D01*
X003938Y001107D01*
X004003Y001059D01*
X004059Y001003D01*
X004107Y000938D01*
X004143Y000866D01*
X004168Y000790D01*
X004180Y000711D01*
X004180Y000710D01*
X003710Y000710D01*
X003710Y000631D01*
X004180Y000631D01*
X004180Y000631D01*
X004168Y000552D01*
X004143Y000475D01*
X004107Y000404D01*
X004059Y000339D01*
X004049Y000329D01*
X004349Y000329D01*
X004273Y000405D01*
X004201Y000578D01*
X004201Y000764D01*
X004273Y000937D01*
X004405Y001069D01*
X004578Y001140D01*
X004764Y001140D01*
X004937Y001069D01*
X005069Y000937D01*
X005140Y000764D01*
X005140Y000578D01*
X005069Y000405D01*
X004993Y000329D01*
X005349Y000329D01*
X005273Y000405D01*
X005201Y000578D01*
X005201Y000764D01*
X005273Y000937D01*
X005405Y001069D01*
X005578Y001140D01*
X005764Y001140D01*
X005937Y001069D01*
X006013Y000993D01*
X006013Y003333D01*
X005937Y003257D01*
X005764Y003186D01*
X005578Y003186D01*
X005405Y003257D01*
X005273Y003389D01*
X005201Y003562D01*
X005201Y003748D01*
X005273Y003921D01*
X005349Y003997D01*
X004993Y003997D01*
X005069Y003921D01*
X005140Y003748D01*
X005140Y003562D01*
X005069Y003389D01*
X004937Y003257D01*
X004764Y003186D01*
X004578Y003186D01*
X004405Y003257D01*
X004273Y003389D01*
X004201Y003562D01*
X004201Y003748D01*
X004273Y003921D01*
X004349Y003997D01*
X004049Y003997D01*
X004059Y003987D01*
X004107Y003922D01*
X004143Y003851D01*
X004168Y003774D01*
X004180Y003695D01*
X004180Y003694D01*
X003710Y003694D01*
X003710Y003616D01*
X004180Y003616D01*
X004180Y003615D01*
X004168Y003536D01*
X004143Y003460D01*
X004107Y003388D01*
X004059Y003323D01*
X004003Y003267D01*
X003938Y003219D01*
X003866Y003183D01*
X003790Y003158D01*
X003711Y003146D01*
X003710Y003146D01*
X003710Y003616D01*
X003631Y003616D01*
X003161Y003616D01*
X003161Y003615D01*
X003174Y003536D01*
X003199Y003460D01*
X003235Y003388D01*
X003282Y003323D01*
X003339Y003267D01*
X003404Y003219D01*
X003475Y003183D01*
X003552Y003158D01*
X003631Y003146D01*
X003631Y003146D01*
X003631Y003616D01*
X003631Y003694D01*
X003161Y003694D01*
X003161Y003695D01*
X003174Y003774D01*
X003199Y003851D01*
X003235Y003922D01*
X003282Y003987D01*
X003293Y003997D01*
X002993Y003997D01*
X003069Y003921D01*
X003140Y003748D01*
X003140Y003562D01*
X003069Y003389D01*
X002937Y003257D01*
X002764Y003186D01*
X002578Y003186D01*
X002405Y003257D01*
X002273Y003389D01*
X002201Y003562D01*
X002201Y003748D01*
X002273Y003921D01*
X002349Y003997D01*
X001993Y003997D01*
X002069Y003921D01*
X002140Y003748D01*
X002140Y003562D01*
X002069Y003389D01*
X001937Y003257D01*
X001764Y003186D01*
X001578Y003186D01*
X001405Y003257D01*
X001273Y003389D01*
X001201Y003562D01*
X001201Y003748D01*
X001273Y003921D01*
X001349Y003997D01*
X000993Y003997D01*
X001066Y003924D02*
X001276Y003924D01*
X001242Y003847D02*
X001099Y003847D01*
X001131Y003770D02*
X001210Y003770D01*
X001201Y003692D02*
X001140Y003692D01*
X001140Y003615D02*
X001201Y003615D01*
X001211Y003538D02*
X001130Y003538D01*
X001098Y003461D02*
X001243Y003461D01*
X001279Y003383D02*
X001063Y003383D01*
X000986Y003306D02*
X001356Y003306D01*
X001473Y003229D02*
X000869Y003229D01*
X000473Y003229D02*
X000329Y003229D01*
X000329Y003306D02*
X000356Y003306D01*
X000329Y003152D02*
X003593Y003152D01*
X003631Y003152D02*
X003710Y003152D01*
X003749Y003152D02*
X006013Y003152D01*
X006013Y003075D02*
X000329Y003075D01*
X000329Y002997D02*
X006013Y002997D01*
X006013Y002920D02*
X000329Y002920D01*
X000329Y002843D02*
X006013Y002843D01*
X006013Y002766D02*
X000329Y002766D01*
X000329Y002688D02*
X006013Y002688D01*
X006013Y002611D02*
X000329Y002611D01*
X000329Y002534D02*
X006013Y002534D01*
X006013Y002457D02*
X000329Y002457D01*
X000329Y002379D02*
X006013Y002379D01*
X006013Y002302D02*
X000329Y002302D01*
X000329Y002225D02*
X006013Y002225D01*
X006013Y002148D02*
X000329Y002148D01*
X000329Y002070D02*
X006013Y002070D01*
X006013Y001993D02*
X000329Y001993D01*
X000329Y001916D02*
X006013Y001916D01*
X006013Y001839D02*
X000329Y001839D01*
X000329Y001761D02*
X006013Y001761D01*
X006013Y001684D02*
X000329Y001684D01*
X000329Y001607D02*
X006013Y001607D01*
X006013Y001530D02*
X000329Y001530D01*
X000329Y001452D02*
X006013Y001452D01*
X006013Y001375D02*
X000329Y001375D01*
X000329Y001298D02*
X006013Y001298D01*
X006013Y001221D02*
X000329Y001221D01*
X000329Y001143D02*
X003477Y001143D01*
X003348Y001066D02*
X002939Y001066D01*
X003017Y000989D02*
X003272Y000989D01*
X003222Y000912D02*
X003079Y000912D01*
X003111Y000835D02*
X003188Y000835D01*
X003169Y000757D02*
X003140Y000757D01*
X003140Y000680D02*
X003631Y000680D01*
X003710Y000680D02*
X004201Y000680D01*
X004201Y000603D02*
X004176Y000603D01*
X004159Y000526D02*
X004223Y000526D01*
X004255Y000448D02*
X004129Y000448D01*
X004083Y000371D02*
X004307Y000371D01*
X004201Y000757D02*
X004173Y000757D01*
X004153Y000835D02*
X004231Y000835D01*
X004263Y000912D02*
X004120Y000912D01*
X004069Y000989D02*
X004325Y000989D01*
X004402Y001066D02*
X003993Y001066D01*
X003865Y001143D02*
X006013Y001143D01*
X006013Y001066D02*
X005939Y001066D01*
X005402Y001066D02*
X004939Y001066D01*
X005017Y000989D02*
X005325Y000989D01*
X005263Y000912D02*
X005079Y000912D01*
X005111Y000835D02*
X005231Y000835D01*
X005201Y000757D02*
X005140Y000757D01*
X005140Y000680D02*
X005201Y000680D01*
X005201Y000603D02*
X005140Y000603D01*
X005119Y000526D02*
X005223Y000526D01*
X005255Y000448D02*
X005087Y000448D01*
X005035Y000371D02*
X005307Y000371D01*
X003710Y000757D02*
X003631Y000757D01*
X003631Y000835D02*
X003710Y000835D01*
X003710Y000912D02*
X003631Y000912D01*
X003631Y000989D02*
X003710Y000989D01*
X003710Y001066D02*
X003631Y001066D01*
X003631Y001143D02*
X003710Y001143D01*
X003166Y000603D02*
X003140Y000603D01*
X003119Y000526D02*
X003182Y000526D01*
X003213Y000448D02*
X003087Y000448D01*
X003035Y000371D02*
X003259Y000371D01*
X002307Y000371D02*
X002035Y000371D01*
X002087Y000448D02*
X002255Y000448D01*
X002223Y000526D02*
X002119Y000526D01*
X002140Y000603D02*
X002201Y000603D01*
X002201Y000680D02*
X002140Y000680D01*
X002140Y000757D02*
X002201Y000757D01*
X002231Y000835D02*
X002111Y000835D01*
X002079Y000912D02*
X002263Y000912D01*
X002325Y000989D02*
X002017Y000989D01*
X001939Y001066D02*
X002402Y001066D01*
X001402Y001066D02*
X000939Y001066D01*
X001017Y000989D02*
X001325Y000989D01*
X001263Y000912D02*
X001079Y000912D01*
X001111Y000835D02*
X001231Y000835D01*
X001201Y000757D02*
X001140Y000757D01*
X001140Y000680D02*
X001201Y000680D01*
X001201Y000603D02*
X001140Y000603D01*
X001119Y000526D02*
X001223Y000526D01*
X001255Y000448D02*
X001087Y000448D01*
X001035Y000371D02*
X001307Y000371D01*
X000402Y001066D02*
X000329Y001066D01*
X001869Y003229D02*
X002473Y003229D01*
X002356Y003306D02*
X001986Y003306D01*
X002063Y003383D02*
X002279Y003383D01*
X002243Y003461D02*
X002098Y003461D01*
X002130Y003538D02*
X002211Y003538D01*
X002201Y003615D02*
X002140Y003615D01*
X002140Y003692D02*
X002201Y003692D01*
X002210Y003770D02*
X002131Y003770D01*
X002099Y003847D02*
X002242Y003847D01*
X002276Y003924D02*
X002066Y003924D01*
X002986Y003306D02*
X003299Y003306D01*
X003239Y003383D02*
X003063Y003383D01*
X003098Y003461D02*
X003198Y003461D01*
X003174Y003538D02*
X003130Y003538D01*
X003140Y003615D02*
X003161Y003615D01*
X003140Y003692D02*
X003631Y003692D01*
X003710Y003692D02*
X004201Y003692D01*
X004201Y003615D02*
X004180Y003615D01*
X004168Y003538D02*
X004211Y003538D01*
X004243Y003461D02*
X004143Y003461D01*
X004103Y003383D02*
X004279Y003383D01*
X004356Y003306D02*
X004042Y003306D01*
X003951Y003229D02*
X004473Y003229D01*
X004869Y003229D02*
X005473Y003229D01*
X005356Y003306D02*
X004986Y003306D01*
X005063Y003383D02*
X005279Y003383D01*
X005243Y003461D02*
X005098Y003461D01*
X005130Y003538D02*
X005211Y003538D01*
X005201Y003615D02*
X005140Y003615D01*
X005140Y003692D02*
X005201Y003692D01*
X005210Y003770D02*
X005131Y003770D01*
X005099Y003847D02*
X005242Y003847D01*
X005276Y003924D02*
X005066Y003924D01*
X004276Y003924D02*
X004105Y003924D01*
X004144Y003847D02*
X004242Y003847D01*
X004210Y003770D02*
X004168Y003770D01*
X003710Y003615D02*
X003631Y003615D01*
X003631Y003538D02*
X003710Y003538D01*
X003710Y003461D02*
X003631Y003461D01*
X003631Y003383D02*
X003710Y003383D01*
X003710Y003306D02*
X003631Y003306D01*
X003631Y003229D02*
X003710Y003229D01*
X003391Y003229D02*
X002869Y003229D01*
X003131Y003770D02*
X003173Y003770D01*
X003198Y003847D02*
X003099Y003847D01*
X003066Y003924D02*
X003237Y003924D01*
X005869Y003229D02*
X006013Y003229D01*
X006013Y003306D02*
X005986Y003306D01*
M02*
