G75*
%MOIN*%
%OFA0B0*%
%FSLAX24Y24*%
%IPPOS*%
%LPD*%
%AMOC8*
5,1,8,0,0,1.08239X$1,22.5*
%
%ADD10R,0.0114X0.0276*%
%ADD11R,0.0276X0.0114*%
%ADD12R,0.0433X0.0394*%
%ADD13C,0.0740*%
%ADD14C,0.0080*%
%ADD15C,0.0079*%
%ADD16C,0.0300*%
D10*
X003621Y004815D03*
X003818Y004815D03*
X004015Y004815D03*
X004211Y004815D03*
X004408Y004815D03*
X004605Y004815D03*
X004605Y006291D03*
X004408Y006291D03*
X004211Y006291D03*
X004015Y006291D03*
X003818Y006291D03*
X003621Y006291D03*
D11*
X003375Y006045D03*
X003375Y005848D03*
X003375Y005651D03*
X003375Y005455D03*
X003375Y005258D03*
X003375Y005061D03*
X004851Y005061D03*
X004851Y005258D03*
X004851Y005455D03*
X004851Y005651D03*
X004851Y005848D03*
X004851Y006045D03*
D12*
X005846Y006067D03*
X006516Y006067D03*
X006516Y005399D03*
X005847Y005399D03*
X002664Y005399D03*
X002665Y006065D03*
X001996Y006065D03*
X001994Y005399D03*
D13*
X001868Y002159D03*
X002868Y002159D03*
X003868Y002159D03*
X004868Y002159D03*
X005868Y002159D03*
X006868Y002159D03*
X006868Y001159D03*
X005868Y001159D03*
X004868Y001159D03*
X003868Y001159D03*
X002868Y001159D03*
X001868Y001159D03*
X000868Y001159D03*
X000868Y002159D03*
D14*
X001360Y001651D02*
X001360Y006242D01*
X001773Y006655D01*
X002915Y006655D01*
X003072Y006498D01*
X003072Y005946D01*
X003171Y005848D01*
X003375Y005848D01*
X003375Y006045D02*
X003375Y006412D01*
X002974Y006813D01*
X001694Y006813D01*
X001143Y006261D01*
X001143Y003407D01*
X000356Y002620D01*
X000356Y000946D01*
X000651Y000651D01*
X001360Y000651D01*
X001868Y001159D01*
X001360Y001651D02*
X000868Y001159D01*
X001852Y002175D02*
X001868Y002159D01*
X001852Y002175D02*
X001852Y003939D01*
X002344Y004431D01*
X003151Y004431D01*
X003535Y004815D01*
X003621Y004815D01*
X003818Y004815D02*
X003818Y004625D01*
X003683Y004490D01*
X003545Y004490D01*
X003328Y004273D01*
X003328Y002620D01*
X002868Y002159D01*
X003868Y002159D02*
X004211Y002503D01*
X004211Y004815D01*
X004408Y004815D02*
X004408Y002619D01*
X004868Y002159D01*
X005139Y002887D02*
X005139Y004234D01*
X005454Y004293D02*
X005454Y003053D01*
X005671Y002836D01*
X006191Y002836D01*
X006868Y002159D01*
X005868Y002159D02*
X005139Y002887D01*
X005454Y004293D02*
X004932Y004815D01*
X004605Y004815D01*
X004015Y004815D02*
X004015Y004585D01*
X003643Y004214D01*
X003375Y005061D02*
X003002Y005061D01*
X002664Y005399D01*
X003053Y005651D02*
X002665Y006039D01*
X002665Y006065D01*
X003053Y005651D02*
X003375Y005651D01*
X003375Y005455D01*
X003375Y005258D01*
X003621Y006291D02*
X003621Y006520D01*
X003092Y007049D01*
X003545Y006990D02*
X003818Y006717D01*
X003818Y006291D01*
X004015Y006291D02*
X004015Y006953D01*
X003978Y006990D01*
X004431Y006754D02*
X004211Y006534D01*
X004211Y006291D01*
X004408Y006291D02*
X004408Y006475D01*
X004509Y006576D01*
X005159Y006576D01*
X005668Y006067D01*
X005846Y006067D01*
X005238Y006008D02*
X005238Y006163D01*
X005110Y006291D01*
X004605Y006291D01*
X004431Y006754D02*
X005829Y006754D01*
X006516Y006067D01*
X005847Y005399D02*
X005238Y006008D01*
X002324Y004805D02*
X001994Y005135D01*
X001994Y005399D01*
X001994Y006063D01*
X001996Y006065D01*
X001996Y005401D02*
X001994Y005399D01*
D15*
X000329Y000777D02*
X000329Y000329D01*
X007430Y000329D01*
X007430Y007430D01*
X000329Y007430D01*
X000329Y002790D01*
X001004Y003465D01*
X001004Y006319D01*
X001637Y006952D01*
X002862Y006952D01*
X002843Y006999D01*
X002843Y007098D01*
X002881Y007190D01*
X002951Y007260D01*
X003043Y007298D01*
X003142Y007298D01*
X003233Y007260D01*
X003304Y007190D01*
X003331Y007124D01*
X003333Y007131D01*
X003404Y007201D01*
X003495Y007239D01*
X003594Y007239D01*
X003686Y007201D01*
X003756Y007131D01*
X003761Y007119D01*
X003767Y007131D01*
X003837Y007201D01*
X003928Y007239D01*
X004028Y007239D01*
X004119Y007201D01*
X004189Y007131D01*
X004227Y007039D01*
X004227Y006940D01*
X004189Y006849D01*
X004154Y006813D01*
X004154Y006674D01*
X004291Y006811D01*
X004373Y006893D01*
X005887Y006893D01*
X006417Y006364D01*
X006773Y006364D01*
X006832Y006305D01*
X006832Y005829D01*
X006773Y005771D01*
X006258Y005771D01*
X006200Y005829D01*
X006200Y006186D01*
X006162Y006224D01*
X006162Y005829D01*
X006104Y005771D01*
X005672Y005771D01*
X005748Y005695D01*
X006105Y005695D01*
X006163Y005637D01*
X006163Y005624D01*
X006170Y005650D01*
X006188Y005682D01*
X006214Y005708D01*
X006246Y005726D01*
X006281Y005735D01*
X006477Y005735D01*
X006477Y005439D01*
X006556Y005439D01*
X006556Y005735D01*
X006751Y005735D01*
X006787Y005726D01*
X006818Y005708D01*
X006844Y005682D01*
X006863Y005650D01*
X006872Y005614D01*
X006872Y005439D01*
X006556Y005439D01*
X006556Y005360D01*
X006872Y005360D01*
X006872Y005184D01*
X006863Y005149D01*
X006844Y005117D01*
X006818Y005091D01*
X006787Y005072D01*
X006751Y005063D01*
X006556Y005063D01*
X006556Y005360D01*
X006477Y005360D01*
X006477Y005063D01*
X006281Y005063D01*
X006246Y005072D01*
X006214Y005091D01*
X006188Y005117D01*
X006170Y005149D01*
X006163Y005175D01*
X006163Y005161D01*
X006105Y005103D01*
X005589Y005103D01*
X005531Y005161D01*
X005531Y005518D01*
X005180Y005869D01*
X005128Y005921D01*
X005128Y005848D01*
X004851Y005848D01*
X004851Y005651D01*
X004851Y005651D01*
X004851Y005455D01*
X004851Y005455D01*
X004851Y005455D01*
X004851Y005651D01*
X004574Y005651D01*
X004574Y005576D01*
X004580Y005553D01*
X004574Y005530D01*
X004574Y005455D01*
X004851Y005455D01*
X004851Y005455D01*
X005128Y005455D01*
X005128Y005530D01*
X005122Y005553D01*
X005128Y005576D01*
X005128Y005651D01*
X004851Y005651D01*
X004851Y005651D01*
X004851Y005651D01*
X004574Y005651D01*
X004574Y005727D01*
X004580Y005750D01*
X004574Y005773D01*
X004574Y005848D01*
X004851Y005848D01*
X004851Y005848D01*
X004851Y005848D01*
X004851Y005848D01*
X004851Y005651D01*
X004851Y005651D01*
X005128Y005651D01*
X005128Y005727D01*
X005122Y005750D01*
X005128Y005773D01*
X005128Y005848D01*
X004851Y005848D01*
X004574Y005848D01*
X004574Y005924D01*
X004580Y005947D01*
X004574Y005970D01*
X004574Y006045D01*
X004851Y006045D01*
X004851Y006045D01*
X004851Y006045D01*
X004851Y006045D01*
X004574Y006045D01*
X004574Y006054D01*
X004507Y006054D01*
X004507Y006054D01*
X004506Y006054D01*
X004310Y006054D01*
X004310Y006054D01*
X004310Y006054D01*
X004113Y006054D01*
X004113Y006054D01*
X004113Y006054D01*
X003916Y006054D01*
X003916Y006054D01*
X003719Y006054D01*
X003719Y006054D01*
X003612Y006054D01*
X003612Y005947D01*
X003612Y005947D01*
X003612Y005946D01*
X003612Y005750D01*
X003612Y005750D01*
X003612Y005750D01*
X003612Y005553D01*
X003612Y005553D01*
X003612Y005553D01*
X003612Y005356D01*
X003612Y005356D01*
X003612Y005159D01*
X003612Y005159D01*
X003612Y005052D01*
X003719Y005052D01*
X003719Y005052D01*
X003719Y005052D01*
X003916Y005052D01*
X003916Y005052D01*
X003916Y005052D01*
X004113Y005052D01*
X004113Y005052D01*
X004310Y005052D01*
X004310Y005052D01*
X004506Y005052D01*
X004507Y005052D01*
X004614Y005052D01*
X004614Y005103D01*
X004602Y005115D01*
X004583Y005147D01*
X004574Y005182D01*
X004574Y005258D01*
X004851Y005258D01*
X004851Y005454D01*
X004851Y005455D01*
X004851Y005455D01*
X004574Y005455D01*
X004574Y005379D01*
X004580Y005356D01*
X004574Y005333D01*
X004574Y005258D01*
X004851Y005258D01*
X004851Y005258D01*
X004851Y005258D01*
X004851Y005455D01*
X005128Y005455D01*
X005128Y005379D01*
X005122Y005356D01*
X005128Y005333D01*
X005128Y005258D01*
X004851Y005258D01*
X004851Y005258D01*
X005128Y005258D01*
X005128Y005182D01*
X005119Y005147D01*
X005100Y005115D01*
X005088Y005103D01*
X005088Y004963D01*
X005035Y004909D01*
X005072Y004872D01*
X005072Y004872D01*
X005512Y004432D01*
X005512Y004432D01*
X005594Y004351D01*
X005594Y003110D01*
X005729Y002976D01*
X006248Y002976D01*
X006648Y002576D01*
X006774Y002628D01*
X006961Y002628D01*
X007134Y002557D01*
X007266Y002425D01*
X007337Y002252D01*
X007337Y002066D01*
X007266Y001893D01*
X007134Y001761D01*
X006961Y001690D01*
X006774Y001690D01*
X006602Y001761D01*
X006470Y001893D01*
X006398Y002066D01*
X006398Y002252D01*
X006451Y002379D01*
X006133Y002697D01*
X005613Y002697D01*
X005531Y002778D01*
X005315Y002995D01*
X005315Y004057D01*
X005281Y004022D01*
X005279Y004022D01*
X005279Y002945D01*
X005648Y002576D01*
X005774Y002628D01*
X005961Y002628D01*
X006134Y002557D01*
X006266Y002425D01*
X006337Y002252D01*
X006337Y002066D01*
X006266Y001893D01*
X006134Y001761D01*
X005961Y001690D01*
X005774Y001690D01*
X005602Y001761D01*
X005470Y001893D01*
X005398Y002066D01*
X005398Y002252D01*
X005451Y002379D01*
X005082Y002748D01*
X005000Y002830D01*
X005000Y004022D01*
X004998Y004022D01*
X004928Y004093D01*
X004890Y004184D01*
X004890Y004283D01*
X004928Y004375D01*
X004998Y004445D01*
X005074Y004477D01*
X004875Y004675D01*
X004762Y004675D01*
X004762Y004636D01*
X004703Y004578D01*
X004548Y004578D01*
X004548Y002676D01*
X004648Y002576D01*
X004774Y002628D01*
X004961Y002628D01*
X005134Y002557D01*
X005266Y002425D01*
X005337Y002252D01*
X005337Y002066D01*
X005266Y001893D01*
X005134Y001761D01*
X004961Y001690D01*
X004774Y001690D01*
X004602Y001761D01*
X004470Y001893D01*
X004398Y002066D01*
X004398Y002252D01*
X004451Y002379D01*
X004351Y002479D01*
X004351Y002445D01*
X004285Y002379D01*
X004337Y002252D01*
X004337Y002066D01*
X004266Y001893D01*
X004134Y001761D01*
X003961Y001690D01*
X003774Y001690D01*
X003602Y001761D01*
X003470Y001893D01*
X003398Y002066D01*
X003398Y002252D01*
X003470Y002425D01*
X003602Y002557D01*
X003774Y002628D01*
X003961Y002628D01*
X004072Y002582D01*
X004072Y004446D01*
X003892Y004266D01*
X003893Y004264D01*
X003893Y004165D01*
X003855Y004073D01*
X003785Y004003D01*
X003693Y003965D01*
X003594Y003965D01*
X003502Y004003D01*
X003468Y004037D01*
X003468Y002562D01*
X003285Y002379D01*
X003337Y002252D01*
X003337Y002066D01*
X003266Y001893D01*
X003134Y001761D01*
X002961Y001690D01*
X002774Y001690D01*
X002602Y001761D01*
X002470Y001893D01*
X002398Y002066D01*
X002398Y002252D01*
X002470Y002425D01*
X002602Y002557D01*
X002774Y002628D01*
X002961Y002628D01*
X003088Y002576D01*
X003189Y002677D01*
X003189Y004291D01*
X002402Y004291D01*
X001991Y003881D01*
X001991Y002616D01*
X002134Y002557D01*
X002266Y002425D01*
X002337Y002252D01*
X002337Y002066D01*
X002266Y001893D01*
X002134Y001761D01*
X001961Y001690D01*
X001774Y001690D01*
X001602Y001761D01*
X001499Y001864D01*
X001499Y001593D01*
X001418Y001512D01*
X001285Y001379D01*
X001337Y001252D01*
X001337Y001066D01*
X001398Y001066D01*
X001451Y000939D01*
X001302Y000791D01*
X001163Y000791D01*
X001266Y000893D01*
X001337Y001066D01*
X001398Y001066D02*
X001398Y001252D01*
X001470Y001425D01*
X001602Y001557D01*
X001774Y001628D01*
X001961Y001628D01*
X002134Y001557D01*
X002266Y001425D01*
X002337Y001252D01*
X002337Y001066D01*
X002398Y001066D01*
X002470Y000893D01*
X002602Y000761D01*
X002774Y000690D01*
X002961Y000690D01*
X003134Y000761D01*
X003266Y000893D01*
X003337Y001066D01*
X003398Y001066D01*
X003470Y000893D01*
X003602Y000761D01*
X003774Y000690D01*
X003961Y000690D01*
X004134Y000761D01*
X004266Y000893D01*
X004337Y001066D01*
X004398Y001066D01*
X004470Y000893D01*
X004602Y000761D01*
X004774Y000690D01*
X004961Y000690D01*
X005134Y000761D01*
X005266Y000893D01*
X005337Y001066D01*
X005367Y001066D01*
X005371Y001040D02*
X005396Y000964D01*
X005432Y000892D01*
X005479Y000827D01*
X005536Y000771D01*
X005601Y000723D01*
X005672Y000687D01*
X005748Y000662D01*
X005828Y000650D01*
X005828Y001120D01*
X005358Y001120D01*
X005358Y001119D01*
X005371Y001040D01*
X005337Y001066D02*
X005337Y001252D01*
X005266Y001425D01*
X005134Y001557D01*
X004961Y001628D01*
X004774Y001628D01*
X004602Y001557D01*
X004470Y001425D01*
X004398Y001252D01*
X004398Y001066D01*
X004337Y001066D02*
X004337Y001252D01*
X004266Y001425D01*
X004134Y001557D01*
X003961Y001628D01*
X003774Y001628D01*
X003602Y001557D01*
X003470Y001425D01*
X003398Y001252D01*
X003398Y001066D01*
X003337Y001066D02*
X003337Y001252D01*
X003266Y001425D01*
X003134Y001557D01*
X002961Y001628D01*
X002774Y001628D01*
X002602Y001557D01*
X002470Y001425D01*
X002398Y001252D01*
X002398Y001066D01*
X002337Y001066D02*
X002266Y000893D01*
X002134Y000761D01*
X001961Y000690D01*
X001774Y000690D01*
X001648Y000742D01*
X001418Y000512D01*
X000593Y000512D01*
X000329Y000777D01*
X000329Y000757D02*
X000348Y000757D01*
X000329Y000680D02*
X000425Y000680D01*
X000502Y000603D02*
X000329Y000603D01*
X000329Y000526D02*
X000580Y000526D01*
X000329Y000448D02*
X007430Y000448D01*
X007430Y000371D02*
X000329Y000371D01*
X001207Y000835D02*
X001346Y000835D01*
X001273Y000912D02*
X001423Y000912D01*
X001430Y000989D02*
X001305Y000989D01*
X001337Y001143D02*
X001398Y001143D01*
X001398Y001221D02*
X001337Y001221D01*
X001318Y001298D02*
X001417Y001298D01*
X001449Y001375D02*
X001286Y001375D01*
X001358Y001452D02*
X001497Y001452D01*
X001435Y001530D02*
X001575Y001530D01*
X001499Y001607D02*
X001722Y001607D01*
X001602Y001761D02*
X001499Y001761D01*
X001499Y001684D02*
X007430Y001684D01*
X007430Y001607D02*
X007111Y001607D01*
X007135Y001595D02*
X007063Y001631D01*
X006987Y001656D01*
X006908Y001668D01*
X006907Y001668D01*
X006907Y001198D01*
X007377Y001198D01*
X007377Y001199D01*
X007365Y001278D01*
X007340Y001355D01*
X007303Y001426D01*
X007256Y001491D01*
X007200Y001548D01*
X007135Y001595D01*
X007217Y001530D02*
X007430Y001530D01*
X007430Y001452D02*
X007284Y001452D01*
X007329Y001375D02*
X007430Y001375D01*
X007430Y001298D02*
X007358Y001298D01*
X007374Y001221D02*
X007430Y001221D01*
X007430Y001143D02*
X006907Y001143D01*
X006907Y001120D02*
X006907Y001198D01*
X006828Y001198D01*
X006828Y001120D01*
X006377Y001120D01*
X005907Y001120D01*
X005907Y001198D01*
X006828Y001198D01*
X006828Y001668D01*
X006828Y001668D01*
X006748Y001656D01*
X006672Y001631D01*
X006601Y001595D01*
X006536Y001548D01*
X006479Y001491D01*
X006432Y001426D01*
X006396Y001355D01*
X006371Y001278D01*
X006368Y001258D01*
X006365Y001278D01*
X006340Y001355D01*
X006303Y001426D01*
X006256Y001491D01*
X006200Y001548D01*
X006135Y001595D01*
X006063Y001631D01*
X005987Y001656D01*
X005908Y001668D01*
X005907Y001668D01*
X005907Y001198D01*
X005828Y001198D01*
X005828Y001120D01*
X005907Y001120D01*
X005907Y000650D01*
X005908Y000650D01*
X005987Y000662D01*
X006063Y000687D01*
X006135Y000723D01*
X006200Y000771D01*
X006256Y000827D01*
X006303Y000892D01*
X006340Y000964D01*
X006365Y001040D01*
X006368Y001060D01*
X006371Y001040D01*
X006396Y000964D01*
X006432Y000892D01*
X006479Y000827D01*
X006536Y000771D01*
X006601Y000723D01*
X006672Y000687D01*
X006748Y000662D01*
X006828Y000650D01*
X006828Y001120D01*
X006907Y001120D01*
X007377Y001120D01*
X007377Y001119D01*
X007365Y001040D01*
X007340Y000964D01*
X007303Y000892D01*
X007256Y000827D01*
X007200Y000771D01*
X007135Y000723D01*
X007063Y000687D01*
X006987Y000662D01*
X006908Y000650D01*
X006907Y000650D01*
X006907Y001120D01*
X006907Y001066D02*
X006828Y001066D01*
X006828Y000989D02*
X006907Y000989D01*
X006907Y000912D02*
X006828Y000912D01*
X006828Y000835D02*
X006907Y000835D01*
X006907Y000757D02*
X006828Y000757D01*
X006828Y000680D02*
X006907Y000680D01*
X006828Y000650D02*
X006828Y000650D01*
X006694Y000680D02*
X006042Y000680D01*
X005907Y000680D02*
X005828Y000680D01*
X005828Y000650D02*
X005828Y000650D01*
X005828Y000757D02*
X005907Y000757D01*
X005907Y000835D02*
X005828Y000835D01*
X005828Y000912D02*
X005907Y000912D01*
X005907Y000989D02*
X005828Y000989D01*
X005828Y001066D02*
X005907Y001066D01*
X005907Y001143D02*
X006828Y001143D01*
X006828Y001221D02*
X006907Y001221D01*
X006907Y001298D02*
X006828Y001298D01*
X006828Y001375D02*
X006907Y001375D01*
X006907Y001452D02*
X006828Y001452D01*
X006828Y001530D02*
X006907Y001530D01*
X006907Y001607D02*
X006828Y001607D01*
X006625Y001607D02*
X006111Y001607D01*
X006217Y001530D02*
X006518Y001530D01*
X006451Y001452D02*
X006284Y001452D01*
X006329Y001375D02*
X006406Y001375D01*
X006377Y001298D02*
X006358Y001298D01*
X006348Y000989D02*
X006387Y000989D01*
X006422Y000912D02*
X006313Y000912D01*
X006262Y000835D02*
X006474Y000835D01*
X006554Y000757D02*
X006181Y000757D01*
X005828Y001143D02*
X005337Y001143D01*
X005358Y001198D02*
X005828Y001198D01*
X005828Y001668D01*
X005828Y001668D01*
X005748Y001656D01*
X005672Y001631D01*
X005601Y001595D01*
X005536Y001548D01*
X005479Y001491D01*
X005432Y001426D01*
X005396Y001355D01*
X005371Y001278D01*
X005358Y001199D01*
X005358Y001198D01*
X005362Y001221D02*
X005337Y001221D01*
X005318Y001298D02*
X005377Y001298D01*
X005406Y001375D02*
X005286Y001375D01*
X005238Y001452D02*
X005451Y001452D01*
X005518Y001530D02*
X005161Y001530D01*
X005013Y001607D02*
X005625Y001607D01*
X005602Y001761D02*
X005134Y001761D01*
X005211Y001839D02*
X005524Y001839D01*
X005460Y001916D02*
X005275Y001916D01*
X005307Y001993D02*
X005428Y001993D01*
X005398Y002070D02*
X005337Y002070D01*
X005337Y002148D02*
X005398Y002148D01*
X005398Y002225D02*
X005337Y002225D01*
X005317Y002302D02*
X005419Y002302D01*
X005450Y002379D02*
X005285Y002379D01*
X005234Y002457D02*
X005373Y002457D01*
X005296Y002534D02*
X005157Y002534D01*
X005219Y002611D02*
X005003Y002611D01*
X005141Y002688D02*
X004548Y002688D01*
X004548Y002766D02*
X005064Y002766D01*
X005000Y002843D02*
X004548Y002843D01*
X004548Y002920D02*
X005000Y002920D01*
X005000Y002997D02*
X004548Y002997D01*
X004548Y003075D02*
X005000Y003075D01*
X005000Y003152D02*
X004548Y003152D01*
X004548Y003229D02*
X005000Y003229D01*
X005000Y003306D02*
X004548Y003306D01*
X004548Y003383D02*
X005000Y003383D01*
X005000Y003461D02*
X004548Y003461D01*
X004548Y003538D02*
X005000Y003538D01*
X005000Y003615D02*
X004548Y003615D01*
X004548Y003692D02*
X005000Y003692D01*
X005000Y003770D02*
X004548Y003770D01*
X004548Y003847D02*
X005000Y003847D01*
X005000Y003924D02*
X004548Y003924D01*
X004548Y004001D02*
X005000Y004001D01*
X004942Y004079D02*
X004548Y004079D01*
X004548Y004156D02*
X004902Y004156D01*
X004890Y004233D02*
X004548Y004233D01*
X004548Y004310D02*
X004901Y004310D01*
X004940Y004388D02*
X004548Y004388D01*
X004548Y004465D02*
X005045Y004465D01*
X005008Y004542D02*
X004548Y004542D01*
X004745Y004619D02*
X004931Y004619D01*
X005093Y004851D02*
X007430Y004851D01*
X007430Y004774D02*
X005171Y004774D01*
X005248Y004697D02*
X007430Y004697D01*
X007430Y004619D02*
X005325Y004619D01*
X005402Y004542D02*
X007430Y004542D01*
X007430Y004465D02*
X005480Y004465D01*
X005557Y004388D02*
X007430Y004388D01*
X007430Y004310D02*
X005594Y004310D01*
X005594Y004233D02*
X007430Y004233D01*
X007430Y004156D02*
X005594Y004156D01*
X005594Y004079D02*
X007430Y004079D01*
X007430Y004001D02*
X005594Y004001D01*
X005594Y003924D02*
X007430Y003924D01*
X007430Y003847D02*
X005594Y003847D01*
X005594Y003770D02*
X007430Y003770D01*
X007430Y003692D02*
X005594Y003692D01*
X005594Y003615D02*
X007430Y003615D01*
X007430Y003538D02*
X005594Y003538D01*
X005594Y003461D02*
X007430Y003461D01*
X007430Y003383D02*
X005594Y003383D01*
X005594Y003306D02*
X007430Y003306D01*
X007430Y003229D02*
X005594Y003229D01*
X005594Y003152D02*
X007430Y003152D01*
X007430Y003075D02*
X005630Y003075D01*
X005707Y002997D02*
X007430Y002997D01*
X007430Y002920D02*
X006304Y002920D01*
X006381Y002843D02*
X007430Y002843D01*
X007430Y002766D02*
X006458Y002766D01*
X006536Y002688D02*
X007430Y002688D01*
X007430Y002611D02*
X007003Y002611D01*
X007157Y002534D02*
X007430Y002534D01*
X007430Y002457D02*
X007234Y002457D01*
X007285Y002379D02*
X007430Y002379D01*
X007430Y002302D02*
X007317Y002302D01*
X007337Y002225D02*
X007430Y002225D01*
X007430Y002148D02*
X007337Y002148D01*
X007337Y002070D02*
X007430Y002070D01*
X007430Y001993D02*
X007307Y001993D01*
X007275Y001916D02*
X007430Y001916D01*
X007430Y001839D02*
X007211Y001839D01*
X007134Y001761D02*
X007430Y001761D01*
X007430Y001066D02*
X007369Y001066D01*
X007348Y000989D02*
X007430Y000989D01*
X007430Y000912D02*
X007313Y000912D01*
X007262Y000835D02*
X007430Y000835D01*
X007430Y000757D02*
X007181Y000757D01*
X007042Y000680D02*
X007430Y000680D01*
X007430Y000603D02*
X001509Y000603D01*
X001586Y000680D02*
X005694Y000680D01*
X005554Y000757D02*
X005124Y000757D01*
X005207Y000835D02*
X005474Y000835D01*
X005422Y000912D02*
X005273Y000912D01*
X005305Y000989D02*
X005387Y000989D01*
X005828Y001221D02*
X005907Y001221D01*
X005907Y001298D02*
X005828Y001298D01*
X005828Y001375D02*
X005907Y001375D01*
X005907Y001452D02*
X005828Y001452D01*
X005828Y001530D02*
X005907Y001530D01*
X005907Y001607D02*
X005828Y001607D01*
X006134Y001761D02*
X006602Y001761D01*
X006524Y001839D02*
X006211Y001839D01*
X006275Y001916D02*
X006460Y001916D01*
X006428Y001993D02*
X006307Y001993D01*
X006337Y002070D02*
X006398Y002070D01*
X006398Y002148D02*
X006337Y002148D01*
X006337Y002225D02*
X006398Y002225D01*
X006419Y002302D02*
X006317Y002302D01*
X006285Y002379D02*
X006450Y002379D01*
X006373Y002457D02*
X006234Y002457D01*
X006296Y002534D02*
X006157Y002534D01*
X006219Y002611D02*
X006003Y002611D01*
X006141Y002688D02*
X005536Y002688D01*
X005544Y002766D02*
X005458Y002766D01*
X005467Y002843D02*
X005381Y002843D01*
X005390Y002920D02*
X005304Y002920D01*
X005315Y002997D02*
X005279Y002997D01*
X005279Y003075D02*
X005315Y003075D01*
X005315Y003152D02*
X005279Y003152D01*
X005279Y003229D02*
X005315Y003229D01*
X005315Y003306D02*
X005279Y003306D01*
X005279Y003383D02*
X005315Y003383D01*
X005315Y003461D02*
X005279Y003461D01*
X005279Y003538D02*
X005315Y003538D01*
X005315Y003615D02*
X005279Y003615D01*
X005279Y003692D02*
X005315Y003692D01*
X005315Y003770D02*
X005279Y003770D01*
X005279Y003847D02*
X005315Y003847D01*
X005315Y003924D02*
X005279Y003924D01*
X005279Y004001D02*
X005315Y004001D01*
X005054Y004928D02*
X007430Y004928D01*
X007430Y005006D02*
X005088Y005006D01*
X005088Y005083D02*
X006228Y005083D01*
X006167Y005160D02*
X006162Y005160D01*
X006477Y005160D02*
X006556Y005160D01*
X006556Y005237D02*
X006477Y005237D01*
X006477Y005314D02*
X006556Y005314D01*
X006556Y005392D02*
X007430Y005392D01*
X007430Y005469D02*
X006872Y005469D01*
X006872Y005546D02*
X007430Y005546D01*
X007430Y005623D02*
X006870Y005623D01*
X006825Y005701D02*
X007430Y005701D01*
X007430Y005778D02*
X006780Y005778D01*
X006832Y005855D02*
X007430Y005855D01*
X007430Y005932D02*
X006832Y005932D01*
X006832Y006010D02*
X007430Y006010D01*
X007430Y006087D02*
X006832Y006087D01*
X006832Y006164D02*
X007430Y006164D01*
X007430Y006241D02*
X006832Y006241D01*
X006818Y006319D02*
X007430Y006319D01*
X007430Y006396D02*
X006384Y006396D01*
X006307Y006473D02*
X007430Y006473D01*
X007430Y006550D02*
X006230Y006550D01*
X006152Y006628D02*
X007430Y006628D01*
X007430Y006705D02*
X006075Y006705D01*
X005998Y006782D02*
X007430Y006782D01*
X007430Y006859D02*
X005921Y006859D01*
X006162Y006164D02*
X006200Y006164D01*
X006200Y006087D02*
X006162Y006087D01*
X006162Y006010D02*
X006200Y006010D01*
X006200Y005932D02*
X006162Y005932D01*
X006162Y005855D02*
X006200Y005855D01*
X006251Y005778D02*
X006111Y005778D01*
X006207Y005701D02*
X005743Y005701D01*
X005531Y005469D02*
X005128Y005469D01*
X005128Y005392D02*
X005531Y005392D01*
X005531Y005314D02*
X005128Y005314D01*
X005128Y005237D02*
X005531Y005237D01*
X005532Y005160D02*
X005122Y005160D01*
X004851Y005314D02*
X004851Y005314D01*
X004851Y005392D02*
X004851Y005392D01*
X004851Y005455D02*
X004851Y005455D01*
X004851Y005469D02*
X004851Y005469D01*
X004851Y005546D02*
X004851Y005546D01*
X004851Y005623D02*
X004851Y005623D01*
X004851Y005701D02*
X004851Y005701D01*
X004851Y005778D02*
X004851Y005778D01*
X004851Y005848D02*
X004851Y005848D01*
X004851Y006045D01*
X004851Y005848D01*
X004851Y005848D01*
X004851Y005855D02*
X004851Y005855D01*
X004851Y005932D02*
X004851Y005932D01*
X004851Y006010D02*
X004851Y006010D01*
X004574Y006010D02*
X003612Y006010D01*
X003612Y005932D02*
X004576Y005932D01*
X004574Y005855D02*
X003612Y005855D01*
X003612Y005778D02*
X004574Y005778D01*
X004574Y005701D02*
X003612Y005701D01*
X003612Y005623D02*
X004574Y005623D01*
X004578Y005546D02*
X003612Y005546D01*
X003612Y005469D02*
X004574Y005469D01*
X004574Y005392D02*
X003612Y005392D01*
X003612Y005356D02*
X003612Y005356D01*
X003612Y005314D02*
X004574Y005314D01*
X004574Y005237D02*
X003612Y005237D01*
X003612Y005160D02*
X004580Y005160D01*
X004614Y005083D02*
X003612Y005083D01*
X003612Y005159D02*
X003612Y005159D01*
X004113Y005052D02*
X004113Y005052D01*
X004310Y005052D02*
X004310Y005052D01*
X004507Y005052D02*
X004507Y005052D01*
X005124Y005546D02*
X005503Y005546D01*
X005426Y005623D02*
X005128Y005623D01*
X005128Y005701D02*
X005348Y005701D01*
X005271Y005778D02*
X005128Y005778D01*
X005128Y005855D02*
X005194Y005855D01*
X004262Y006782D02*
X004154Y006782D01*
X004154Y006705D02*
X004185Y006705D01*
X004194Y006859D02*
X004339Y006859D01*
X004226Y006937D02*
X007430Y006937D01*
X007430Y007014D02*
X004227Y007014D01*
X004206Y007091D02*
X007430Y007091D01*
X007430Y007168D02*
X004152Y007168D01*
X003804Y007168D02*
X003719Y007168D01*
X003371Y007168D02*
X003313Y007168D01*
X003248Y007245D02*
X007430Y007245D01*
X007430Y007323D02*
X000329Y007323D01*
X000329Y007400D02*
X007430Y007400D01*
X006556Y005701D02*
X006477Y005701D01*
X006477Y005623D02*
X006556Y005623D01*
X006556Y005546D02*
X006477Y005546D01*
X006477Y005469D02*
X006556Y005469D01*
X006872Y005314D02*
X007430Y005314D01*
X007430Y005237D02*
X006872Y005237D01*
X006866Y005160D02*
X007430Y005160D01*
X007430Y005083D02*
X006804Y005083D01*
X006556Y005083D02*
X006477Y005083D01*
X004072Y004388D02*
X004014Y004388D01*
X004072Y004310D02*
X003937Y004310D01*
X003893Y004233D02*
X004072Y004233D01*
X004072Y004156D02*
X003889Y004156D01*
X003857Y004079D02*
X004072Y004079D01*
X004072Y004001D02*
X003781Y004001D01*
X003505Y004001D02*
X003468Y004001D01*
X003468Y003924D02*
X004072Y003924D01*
X004072Y003847D02*
X003468Y003847D01*
X003468Y003770D02*
X004072Y003770D01*
X004072Y003692D02*
X003468Y003692D01*
X003468Y003615D02*
X004072Y003615D01*
X004072Y003538D02*
X003468Y003538D01*
X003468Y003461D02*
X004072Y003461D01*
X004072Y003383D02*
X003468Y003383D01*
X003468Y003306D02*
X004072Y003306D01*
X004072Y003229D02*
X003468Y003229D01*
X003468Y003152D02*
X004072Y003152D01*
X004072Y003075D02*
X003468Y003075D01*
X003468Y002997D02*
X004072Y002997D01*
X004072Y002920D02*
X003468Y002920D01*
X003468Y002843D02*
X004072Y002843D01*
X004072Y002766D02*
X003468Y002766D01*
X003468Y002688D02*
X004072Y002688D01*
X004072Y002611D02*
X004003Y002611D01*
X003732Y002611D02*
X003468Y002611D01*
X003440Y002534D02*
X003579Y002534D01*
X003501Y002457D02*
X003362Y002457D01*
X003285Y002379D02*
X003451Y002379D01*
X003419Y002302D02*
X003317Y002302D01*
X003337Y002225D02*
X003398Y002225D01*
X003398Y002148D02*
X003337Y002148D01*
X003337Y002070D02*
X003398Y002070D01*
X003428Y001993D02*
X003307Y001993D01*
X003275Y001916D02*
X003460Y001916D01*
X003524Y001839D02*
X003211Y001839D01*
X003134Y001761D02*
X003602Y001761D01*
X003722Y001607D02*
X003013Y001607D01*
X003161Y001530D02*
X003575Y001530D01*
X003497Y001452D02*
X003238Y001452D01*
X003286Y001375D02*
X003449Y001375D01*
X003417Y001298D02*
X003318Y001298D01*
X003337Y001221D02*
X003398Y001221D01*
X003398Y001143D02*
X003337Y001143D01*
X003305Y000989D02*
X003430Y000989D01*
X003462Y000912D02*
X003273Y000912D01*
X003207Y000835D02*
X003528Y000835D01*
X003611Y000757D02*
X003124Y000757D01*
X002611Y000757D02*
X002124Y000757D01*
X002207Y000835D02*
X002528Y000835D01*
X002462Y000912D02*
X002273Y000912D01*
X002305Y000989D02*
X002430Y000989D01*
X002398Y001143D02*
X002337Y001143D01*
X002337Y001221D02*
X002398Y001221D01*
X002417Y001298D02*
X002318Y001298D01*
X002286Y001375D02*
X002449Y001375D01*
X002497Y001452D02*
X002238Y001452D01*
X002161Y001530D02*
X002575Y001530D01*
X002722Y001607D02*
X002013Y001607D01*
X002134Y001761D02*
X002602Y001761D01*
X002524Y001839D02*
X002211Y001839D01*
X002275Y001916D02*
X002460Y001916D01*
X002428Y001993D02*
X002307Y001993D01*
X002337Y002070D02*
X002398Y002070D01*
X002398Y002148D02*
X002337Y002148D01*
X002337Y002225D02*
X002398Y002225D01*
X002419Y002302D02*
X002317Y002302D01*
X002285Y002379D02*
X002451Y002379D01*
X002501Y002457D02*
X002234Y002457D01*
X002157Y002534D02*
X002579Y002534D01*
X002732Y002611D02*
X002003Y002611D01*
X001991Y002688D02*
X003189Y002688D01*
X003189Y002766D02*
X001991Y002766D01*
X001991Y002843D02*
X003189Y002843D01*
X003189Y002920D02*
X001991Y002920D01*
X001991Y002997D02*
X003189Y002997D01*
X003189Y003075D02*
X001991Y003075D01*
X001991Y003152D02*
X003189Y003152D01*
X003189Y003229D02*
X001991Y003229D01*
X001991Y003306D02*
X003189Y003306D01*
X003189Y003383D02*
X001991Y003383D01*
X001991Y003461D02*
X003189Y003461D01*
X003189Y003538D02*
X001991Y003538D01*
X001991Y003615D02*
X003189Y003615D01*
X003189Y003692D02*
X001991Y003692D01*
X001991Y003770D02*
X003189Y003770D01*
X003189Y003847D02*
X001991Y003847D01*
X002035Y003924D02*
X003189Y003924D01*
X003189Y004001D02*
X002112Y004001D01*
X002189Y004079D02*
X003189Y004079D01*
X003189Y004156D02*
X002266Y004156D01*
X002344Y004233D02*
X003189Y004233D01*
X003123Y002611D02*
X003003Y002611D01*
X004013Y001607D02*
X004722Y001607D01*
X004575Y001530D02*
X004161Y001530D01*
X004238Y001452D02*
X004497Y001452D01*
X004449Y001375D02*
X004286Y001375D01*
X004318Y001298D02*
X004417Y001298D01*
X004398Y001221D02*
X004337Y001221D01*
X004337Y001143D02*
X004398Y001143D01*
X004430Y000989D02*
X004305Y000989D01*
X004273Y000912D02*
X004462Y000912D01*
X004528Y000835D02*
X004207Y000835D01*
X004124Y000757D02*
X004611Y000757D01*
X004602Y001761D02*
X004134Y001761D01*
X004211Y001839D02*
X004524Y001839D01*
X004460Y001916D02*
X004275Y001916D01*
X004307Y001993D02*
X004428Y001993D01*
X004398Y002070D02*
X004337Y002070D01*
X004337Y002148D02*
X004398Y002148D01*
X004398Y002225D02*
X004337Y002225D01*
X004317Y002302D02*
X004419Y002302D01*
X004450Y002379D02*
X004285Y002379D01*
X004351Y002457D02*
X004373Y002457D01*
X004613Y002611D02*
X004732Y002611D01*
X005613Y002611D02*
X005732Y002611D01*
X006613Y002611D02*
X006732Y002611D01*
X007430Y000526D02*
X001431Y000526D01*
X001499Y001839D02*
X001524Y001839D01*
X000459Y002920D02*
X000329Y002920D01*
X000329Y002843D02*
X000382Y002843D01*
X000329Y002997D02*
X000536Y002997D01*
X000614Y003075D02*
X000329Y003075D01*
X000329Y003152D02*
X000691Y003152D01*
X000768Y003229D02*
X000329Y003229D01*
X000329Y003306D02*
X000845Y003306D01*
X000923Y003383D02*
X000329Y003383D01*
X000329Y003461D02*
X001000Y003461D01*
X001004Y003538D02*
X000329Y003538D01*
X000329Y003615D02*
X001004Y003615D01*
X001004Y003692D02*
X000329Y003692D01*
X000329Y003770D02*
X001004Y003770D01*
X001004Y003847D02*
X000329Y003847D01*
X000329Y003924D02*
X001004Y003924D01*
X001004Y004001D02*
X000329Y004001D01*
X000329Y004079D02*
X001004Y004079D01*
X001004Y004156D02*
X000329Y004156D01*
X000329Y004233D02*
X001004Y004233D01*
X001004Y004310D02*
X000329Y004310D01*
X000329Y004388D02*
X001004Y004388D01*
X001004Y004465D02*
X000329Y004465D01*
X000329Y004542D02*
X001004Y004542D01*
X001004Y004619D02*
X000329Y004619D01*
X000329Y004697D02*
X001004Y004697D01*
X001004Y004774D02*
X000329Y004774D01*
X000329Y004851D02*
X001004Y004851D01*
X001004Y004928D02*
X000329Y004928D01*
X000329Y005006D02*
X001004Y005006D01*
X001004Y005083D02*
X000329Y005083D01*
X000329Y005160D02*
X001004Y005160D01*
X001004Y005237D02*
X000329Y005237D01*
X000329Y005314D02*
X001004Y005314D01*
X001004Y005392D02*
X000329Y005392D01*
X000329Y005469D02*
X001004Y005469D01*
X001004Y005546D02*
X000329Y005546D01*
X000329Y005623D02*
X001004Y005623D01*
X001004Y005701D02*
X000329Y005701D01*
X000329Y005778D02*
X001004Y005778D01*
X001004Y005855D02*
X000329Y005855D01*
X000329Y005932D02*
X001004Y005932D01*
X001004Y006010D02*
X000329Y006010D01*
X000329Y006087D02*
X001004Y006087D01*
X001004Y006164D02*
X000329Y006164D01*
X000329Y006241D02*
X001004Y006241D01*
X001004Y006319D02*
X000329Y006319D01*
X000329Y006396D02*
X001081Y006396D01*
X001158Y006473D02*
X000329Y006473D01*
X000329Y006550D02*
X001235Y006550D01*
X001312Y006628D02*
X000329Y006628D01*
X000329Y006705D02*
X001390Y006705D01*
X001467Y006782D02*
X000329Y006782D01*
X000329Y006859D02*
X001544Y006859D01*
X001621Y006937D02*
X000329Y006937D01*
X000329Y007014D02*
X002843Y007014D01*
X002843Y007091D02*
X000329Y007091D01*
X000329Y007168D02*
X002872Y007168D01*
X002936Y007245D02*
X000329Y007245D01*
X003719Y006054D02*
X003719Y006054D01*
X003916Y006054D02*
X003916Y006054D01*
D16*
X003978Y006990D03*
X003545Y006990D03*
X003092Y007049D03*
X002324Y004805D03*
X003643Y004214D03*
X005139Y004234D03*
M02*
