G75*
%MOIN*%
%OFA0B0*%
%FSLAX24Y24*%
%IPPOS*%
%LPD*%
%AMOC8*
5,1,8,0,0,1.08239X$1,22.5*
%
%ADD10C,0.0000*%
%ADD11C,0.0010*%
%ADD12C,0.0020*%
%ADD13C,0.0050*%
%ADD14C,0.0220*%
%ADD15C,0.0080*%
D10*
X000139Y000139D02*
X000139Y007620D01*
X007620Y007620D01*
X007620Y000139D01*
X000139Y000139D01*
D11*
X000504Y000399D02*
X000541Y000399D01*
X000523Y000399D02*
X000523Y000509D01*
X000541Y000509D02*
X000504Y000509D01*
X000578Y000509D02*
X000578Y000399D01*
X000651Y000399D02*
X000578Y000509D01*
X000651Y000509D02*
X000651Y000399D01*
X000725Y000399D02*
X000725Y000509D01*
X000689Y000509D02*
X000762Y000509D01*
X000799Y000491D02*
X000817Y000509D01*
X000854Y000509D01*
X000872Y000491D01*
X000872Y000473D01*
X000799Y000399D01*
X000872Y000399D01*
X000910Y000381D02*
X000983Y000381D01*
X001020Y000399D02*
X001093Y000509D01*
X001131Y000509D02*
X001167Y000473D01*
X001204Y000509D01*
X001204Y000399D01*
X001131Y000399D02*
X001131Y000509D01*
X001020Y000509D02*
X001093Y000399D01*
X001508Y000399D02*
X001545Y000399D01*
X001527Y000399D02*
X001527Y000509D01*
X001545Y000509D02*
X001508Y000509D01*
X001582Y000509D02*
X001582Y000399D01*
X001655Y000399D02*
X001582Y000509D01*
X001655Y000509D02*
X001655Y000399D01*
X001729Y000399D02*
X001729Y000509D01*
X001692Y000509D02*
X001766Y000509D01*
X001803Y000473D02*
X001840Y000509D01*
X001840Y000399D01*
X001876Y000399D02*
X001803Y000399D01*
X001913Y000381D02*
X001987Y000381D01*
X002024Y000399D02*
X002097Y000509D01*
X002134Y000509D02*
X002171Y000473D01*
X002208Y000509D01*
X002208Y000399D01*
X002134Y000399D02*
X002134Y000509D01*
X002024Y000509D02*
X002097Y000399D01*
X002549Y000399D02*
X002604Y000399D01*
X002623Y000418D01*
X002623Y000491D01*
X002604Y000509D01*
X002549Y000509D01*
X002549Y000399D01*
X002660Y000399D02*
X002660Y000509D01*
X002715Y000509D01*
X002733Y000491D01*
X002733Y000454D01*
X002715Y000436D01*
X002660Y000436D01*
X002696Y000436D02*
X002733Y000399D01*
X002770Y000399D02*
X002825Y000399D01*
X002843Y000418D01*
X002843Y000491D01*
X002825Y000509D01*
X002770Y000509D01*
X002770Y000399D01*
X002881Y000491D02*
X002917Y000454D01*
X002917Y000399D01*
X002917Y000454D02*
X002954Y000491D01*
X002954Y000509D01*
X002881Y000509D02*
X002881Y000491D01*
X002991Y000381D02*
X003064Y000381D01*
X003102Y000418D02*
X003120Y000399D01*
X003157Y000399D01*
X003175Y000418D01*
X003175Y000454D01*
X003138Y000454D01*
X003102Y000418D02*
X003102Y000491D01*
X003120Y000509D01*
X003157Y000509D01*
X003175Y000491D01*
X003627Y000509D02*
X003663Y000509D01*
X003645Y000509D02*
X003645Y000399D01*
X003627Y000399D02*
X003663Y000399D01*
X003700Y000399D02*
X003700Y000509D01*
X003774Y000399D01*
X003774Y000509D01*
X003811Y000509D02*
X003884Y000509D01*
X003848Y000509D02*
X003848Y000399D01*
X003921Y000381D02*
X003995Y000381D01*
X004032Y000418D02*
X004050Y000399D01*
X004087Y000399D01*
X004105Y000418D01*
X004105Y000454D01*
X004069Y000454D01*
X004105Y000491D02*
X004087Y000509D01*
X004050Y000509D01*
X004032Y000491D01*
X004032Y000418D01*
X004612Y000399D02*
X004667Y000399D01*
X004686Y000418D01*
X004686Y000491D01*
X004667Y000509D01*
X004612Y000509D01*
X004612Y000399D01*
X004723Y000399D02*
X004723Y000509D01*
X004796Y000509D01*
X004833Y000509D02*
X004833Y000399D01*
X004796Y000399D02*
X004723Y000399D01*
X004723Y000454D02*
X004759Y000454D01*
X004833Y000509D02*
X004907Y000399D01*
X004907Y000509D01*
X004944Y000381D02*
X005017Y000381D01*
X005054Y000418D02*
X005073Y000399D01*
X005109Y000399D01*
X005128Y000418D01*
X005128Y000454D01*
X005091Y000454D01*
X005054Y000418D02*
X005054Y000491D01*
X005073Y000509D01*
X005109Y000509D01*
X005128Y000491D01*
X005707Y000491D02*
X005707Y000418D01*
X005725Y000399D01*
X005762Y000399D01*
X005780Y000418D01*
X005780Y000454D01*
X005744Y000454D01*
X005780Y000491D02*
X005762Y000509D01*
X005725Y000509D01*
X005707Y000491D01*
X005817Y000509D02*
X005817Y000399D01*
X005891Y000399D02*
X005817Y000509D01*
X005891Y000509D02*
X005891Y000399D01*
X005928Y000399D02*
X005928Y000509D01*
X005983Y000509D01*
X006001Y000491D01*
X006001Y000418D01*
X005983Y000399D01*
X005928Y000399D01*
X006711Y000418D02*
X006729Y000399D01*
X006766Y000399D01*
X006784Y000418D01*
X006784Y000454D01*
X006748Y000454D01*
X006784Y000491D02*
X006766Y000509D01*
X006729Y000509D01*
X006711Y000491D01*
X006711Y000418D01*
X006821Y000399D02*
X006821Y000509D01*
X006895Y000399D01*
X006895Y000509D01*
X006932Y000509D02*
X006932Y000399D01*
X006987Y000399D01*
X007005Y000418D01*
X007005Y000491D01*
X006987Y000509D01*
X006932Y000509D01*
X004942Y002783D02*
X004869Y002783D01*
X004832Y002819D02*
X004832Y002893D01*
X004813Y002911D01*
X004777Y002911D01*
X004758Y002893D01*
X004758Y002819D01*
X004777Y002801D01*
X004813Y002801D01*
X004832Y002819D01*
X004721Y002819D02*
X004721Y002893D01*
X004703Y002911D01*
X004648Y002911D01*
X004648Y002801D01*
X004703Y002801D01*
X004721Y002819D01*
X004611Y002819D02*
X004592Y002801D01*
X004556Y002801D01*
X004537Y002819D01*
X004556Y002856D02*
X004592Y002856D01*
X004611Y002838D01*
X004611Y002819D01*
X004556Y002856D02*
X004537Y002874D01*
X004537Y002893D01*
X004556Y002911D01*
X004592Y002911D01*
X004611Y002893D01*
X004979Y002911D02*
X005053Y002801D01*
X005090Y002801D02*
X005090Y002911D01*
X005126Y002874D01*
X005163Y002911D01*
X005163Y002801D01*
X005053Y002911D02*
X004979Y002801D01*
X005707Y002819D02*
X005725Y002801D01*
X005762Y002801D01*
X005780Y002819D01*
X005780Y002838D01*
X005762Y002856D01*
X005725Y002856D01*
X005707Y002874D01*
X005707Y002893D01*
X005725Y002911D01*
X005762Y002911D01*
X005780Y002893D01*
X005817Y002893D02*
X005817Y002819D01*
X005836Y002801D01*
X005873Y002801D01*
X005891Y002819D01*
X005928Y002801D02*
X005928Y002911D01*
X005891Y002893D02*
X005873Y002911D01*
X005836Y002911D01*
X005817Y002893D01*
X005928Y002801D02*
X006001Y002801D01*
X006711Y002819D02*
X006729Y002801D01*
X006766Y002801D01*
X006784Y002819D01*
X006784Y002838D01*
X006766Y002856D01*
X006729Y002856D01*
X006711Y002874D01*
X006711Y002893D01*
X006729Y002911D01*
X006766Y002911D01*
X006784Y002893D01*
X006821Y002911D02*
X006876Y002911D01*
X006895Y002893D01*
X006895Y002819D01*
X006876Y002801D01*
X006821Y002801D01*
X006821Y002911D01*
X006932Y002874D02*
X006932Y002801D01*
X006932Y002856D02*
X007005Y002856D01*
X007005Y002874D02*
X007005Y002801D01*
X007005Y002874D02*
X006969Y002911D01*
X006932Y002874D01*
X006896Y005330D02*
X006921Y005355D01*
X006896Y005330D02*
X006846Y005330D01*
X006821Y005355D01*
X006821Y005455D01*
X006846Y005480D01*
X006896Y005480D01*
X006921Y005455D01*
X006968Y005405D02*
X007068Y005405D01*
X007043Y005330D02*
X007043Y005480D01*
X006968Y005405D01*
X006993Y005998D02*
X006968Y006023D01*
X006993Y005998D02*
X007043Y005998D01*
X007068Y006023D01*
X007068Y006048D01*
X007043Y006073D01*
X007018Y006073D01*
X007043Y006073D02*
X007068Y006098D01*
X007068Y006123D01*
X007043Y006148D01*
X006993Y006148D01*
X006968Y006123D01*
X006920Y006123D02*
X006895Y006148D01*
X006845Y006148D01*
X006820Y006123D01*
X006820Y006023D01*
X006845Y005998D01*
X006895Y005998D01*
X006920Y006023D01*
X004218Y005028D02*
X004118Y005028D01*
X004168Y005028D02*
X004168Y005178D01*
X004118Y005128D01*
X004071Y005178D02*
X004071Y005053D01*
X004046Y005028D01*
X003996Y005028D01*
X003971Y005053D01*
X003971Y005178D01*
X001720Y005330D02*
X001620Y005330D01*
X001720Y005430D01*
X001720Y005455D01*
X001695Y005480D01*
X001645Y005480D01*
X001620Y005455D01*
X001572Y005455D02*
X001547Y005480D01*
X001497Y005480D01*
X001472Y005455D01*
X001472Y005355D01*
X001497Y005330D01*
X001547Y005330D01*
X001572Y005355D01*
X001541Y006003D02*
X001566Y006028D01*
X001541Y006003D02*
X001491Y006003D01*
X001466Y006028D01*
X001466Y006128D01*
X001491Y006153D01*
X001541Y006153D01*
X001566Y006128D01*
X001613Y006103D02*
X001663Y006153D01*
X001663Y006003D01*
X001613Y006003D02*
X001713Y006003D01*
X001711Y002911D02*
X001674Y002911D01*
X001656Y002893D01*
X001656Y002819D01*
X001674Y002801D01*
X001711Y002801D01*
X001729Y002819D01*
X001766Y002819D02*
X001785Y002801D01*
X001821Y002801D01*
X001840Y002819D01*
X001840Y002838D01*
X001821Y002856D01*
X001785Y002856D01*
X001766Y002874D01*
X001766Y002893D01*
X001785Y002911D01*
X001821Y002911D01*
X001840Y002893D01*
X001729Y002893D02*
X001711Y002911D01*
X001877Y002783D02*
X001950Y002783D01*
X001987Y002819D02*
X002005Y002801D01*
X002042Y002801D01*
X002061Y002819D01*
X002061Y002856D01*
X002024Y002856D01*
X002061Y002893D02*
X002042Y002911D01*
X002005Y002911D01*
X001987Y002893D01*
X001987Y002819D01*
X002604Y002819D02*
X002623Y002801D01*
X002659Y002801D01*
X002678Y002819D01*
X002715Y002819D02*
X002733Y002801D01*
X002770Y002801D01*
X002788Y002819D01*
X002788Y002838D01*
X002770Y002856D01*
X002733Y002856D01*
X002715Y002874D01*
X002715Y002893D01*
X002733Y002911D01*
X002770Y002911D01*
X002788Y002893D01*
X002678Y002893D02*
X002659Y002911D01*
X002623Y002911D01*
X002604Y002893D01*
X002604Y002819D01*
X002825Y002783D02*
X002899Y002783D01*
X002936Y002801D02*
X003009Y002911D01*
X003046Y002911D02*
X003046Y002801D01*
X003009Y002801D02*
X002936Y002911D01*
X003046Y002911D02*
X003083Y002874D01*
X003120Y002911D01*
X003120Y002801D01*
X003589Y002819D02*
X003607Y002801D01*
X003644Y002801D01*
X003662Y002819D01*
X003662Y002838D01*
X003644Y002856D01*
X003607Y002856D01*
X003589Y002874D01*
X003589Y002893D01*
X003607Y002911D01*
X003644Y002911D01*
X003662Y002893D01*
X003699Y002911D02*
X003754Y002911D01*
X003772Y002893D01*
X003772Y002819D01*
X003754Y002801D01*
X003699Y002801D01*
X003699Y002911D01*
X003810Y002893D02*
X003810Y002819D01*
X003828Y002801D01*
X003865Y002801D01*
X003883Y002819D01*
X003883Y002893D01*
X003865Y002911D01*
X003828Y002911D01*
X003810Y002893D01*
X003920Y002783D02*
X003993Y002783D01*
X004031Y002819D02*
X004049Y002801D01*
X004086Y002801D01*
X004104Y002819D01*
X004104Y002856D01*
X004067Y002856D01*
X004031Y002893D02*
X004031Y002819D01*
X004031Y002893D02*
X004049Y002911D01*
X004086Y002911D01*
X004104Y002893D01*
X001001Y002893D02*
X000983Y002911D01*
X000946Y002911D01*
X000928Y002893D01*
X000928Y002819D01*
X000946Y002801D01*
X000983Y002801D01*
X001001Y002819D01*
X000891Y002819D02*
X000873Y002801D01*
X000836Y002801D01*
X000817Y002819D01*
X000817Y002893D01*
X000836Y002911D01*
X000873Y002911D01*
X000891Y002893D01*
X000780Y002911D02*
X000780Y002838D01*
X000744Y002801D01*
X000707Y002838D01*
X000707Y002911D01*
D12*
X000682Y006523D02*
X000682Y006669D01*
X000682Y006596D02*
X000756Y006669D01*
X000792Y006669D01*
X000866Y006633D02*
X000866Y006559D01*
X000903Y006523D01*
X000976Y006523D01*
X001013Y006596D02*
X000866Y006596D01*
X000866Y006633D02*
X000903Y006669D01*
X000976Y006669D01*
X001013Y006633D01*
X001013Y006596D01*
X001087Y006559D02*
X001124Y006596D01*
X001234Y006596D01*
X001234Y006633D02*
X001234Y006523D01*
X001124Y006523D01*
X001087Y006559D01*
X001124Y006669D02*
X001197Y006669D01*
X001234Y006633D01*
X001308Y006596D02*
X001418Y006669D01*
X001492Y006633D02*
X001492Y006559D01*
X001529Y006523D01*
X001602Y006523D01*
X001639Y006559D01*
X001639Y006633D01*
X001602Y006669D01*
X001529Y006669D01*
X001492Y006633D01*
X001418Y006523D02*
X001308Y006596D01*
X001308Y006523D02*
X001308Y006743D01*
X001271Y006883D02*
X001198Y006883D01*
X001161Y006919D01*
X001198Y006993D02*
X001161Y007029D01*
X001161Y007066D01*
X001198Y007103D01*
X001271Y007103D01*
X001308Y007066D01*
X001308Y006919D01*
X001271Y006883D01*
X001382Y006883D02*
X001492Y006883D01*
X001529Y006919D01*
X001529Y007066D01*
X001492Y007103D01*
X001382Y007103D01*
X001382Y006883D01*
X001308Y006993D02*
X001198Y006993D01*
X001087Y007103D02*
X001087Y006883D01*
X000940Y006883D02*
X000940Y007103D01*
X001013Y007029D01*
X001087Y007103D01*
X000866Y007066D02*
X000829Y007103D01*
X000756Y007103D01*
X000719Y007066D01*
X000719Y007029D01*
X000756Y006993D01*
X000829Y006993D01*
X000866Y006956D01*
X000866Y006919D01*
X000829Y006883D01*
X000756Y006883D01*
X000719Y006919D01*
X000645Y006883D02*
X000498Y006883D01*
X000498Y007103D01*
X000461Y006743D02*
X000571Y006743D01*
X000608Y006706D01*
X000608Y006669D01*
X000571Y006633D01*
X000461Y006633D01*
X000461Y006523D02*
X000461Y006743D01*
X000571Y006633D02*
X000608Y006596D01*
X000608Y006559D01*
X000571Y006523D01*
X000461Y006523D01*
X001603Y006919D02*
X001640Y006883D01*
X001713Y006883D01*
X001750Y006919D01*
X001750Y006956D01*
X001713Y006993D01*
X001640Y006993D01*
X001603Y007029D01*
X001603Y007066D01*
X001640Y007103D01*
X001713Y007103D01*
X001750Y007066D01*
X001824Y007066D02*
X001824Y006919D01*
X001861Y006883D01*
X001934Y006883D01*
X001971Y006919D01*
X001971Y007066D01*
X001934Y007103D01*
X001861Y007103D01*
X001824Y007066D01*
X001971Y006706D02*
X001971Y006559D01*
X002008Y006523D01*
X002008Y006669D02*
X001934Y006669D01*
X001860Y006669D02*
X001860Y006523D01*
X001750Y006523D01*
X001713Y006559D01*
X001713Y006669D01*
D13*
X003326Y006340D02*
X003326Y006183D01*
X003326Y006340D02*
X003483Y006340D01*
X004743Y006340D02*
X004900Y006340D01*
X004900Y006183D01*
X004900Y004923D02*
X004743Y004766D01*
X003483Y004766D02*
X003326Y004766D01*
X003326Y004923D01*
D14*
X002329Y005387D02*
X002329Y005411D01*
X002330Y006053D02*
X002330Y006077D01*
X006181Y006079D02*
X006181Y006055D01*
X006182Y005411D02*
X006182Y005387D01*
D15*
X006118Y002659D02*
X005618Y002659D01*
X005368Y002409D01*
X005118Y002659D01*
X004618Y002659D01*
X004368Y002409D01*
X004118Y002659D01*
X003618Y002659D01*
X003368Y002409D01*
X003118Y002659D01*
X002618Y002659D01*
X002368Y002409D01*
X002118Y002659D01*
X001618Y002659D01*
X001368Y002409D01*
X001118Y002659D01*
X000618Y002659D01*
X000368Y002409D01*
X000368Y001909D01*
X000618Y001659D01*
X001118Y001659D01*
X001368Y001909D01*
X001618Y001659D01*
X002118Y001659D01*
X002368Y001909D01*
X002618Y001659D01*
X003118Y001659D01*
X003368Y001909D01*
X003618Y001659D01*
X004118Y001659D01*
X004368Y001909D01*
X004618Y001659D01*
X005118Y001659D01*
X005368Y001909D01*
X005618Y001659D01*
X006118Y001659D01*
X006368Y001909D01*
X006618Y001659D01*
X007118Y001659D01*
X007368Y001909D01*
X007368Y002409D01*
X007118Y002659D01*
X006618Y002659D01*
X006368Y002409D01*
X006118Y002659D01*
X006118Y001659D02*
X005618Y001659D01*
X005368Y001409D01*
X005118Y001659D01*
X004618Y001659D01*
X004368Y001409D01*
X004118Y001659D01*
X003618Y001659D01*
X003368Y001409D01*
X003118Y001659D01*
X002618Y001659D01*
X002368Y001409D01*
X002118Y001659D01*
X001618Y001659D01*
X001368Y001409D01*
X001118Y001659D01*
X000618Y001659D01*
X000368Y001409D01*
X000368Y000909D01*
X000618Y000659D01*
X001118Y000659D01*
X001368Y000909D01*
X001618Y000659D01*
X002118Y000659D01*
X002368Y000909D01*
X002618Y000659D01*
X003118Y000659D01*
X003368Y000909D01*
X003618Y000659D01*
X004118Y000659D01*
X004368Y000909D01*
X004618Y000659D01*
X005118Y000659D01*
X005368Y000909D01*
X005618Y000659D01*
X006118Y000659D01*
X006368Y000909D01*
X006618Y000659D01*
X007118Y000659D01*
X007368Y000909D01*
X007368Y001409D01*
X007118Y001659D01*
X006618Y001659D01*
X006368Y001409D01*
X006118Y001659D01*
M02*
