G75*
%MOIN*%
%OFA0B0*%
%FSLAX24Y24*%
%IPPOS*%
%LPD*%
%AMOC8*
5,1,8,0,0,1.08239X$1,22.5*
%
%ADD10R,0.0174X0.0336*%
%ADD11R,0.0336X0.0174*%
%ADD12R,0.0493X0.0454*%
%ADD13C,0.0800*%
%ADD14C,0.0360*%
D10*
X003621Y004815D03*
X003818Y004815D03*
X004015Y004815D03*
X004211Y004815D03*
X004408Y004815D03*
X004605Y004815D03*
X004605Y006291D03*
X004408Y006291D03*
X004211Y006291D03*
X004015Y006291D03*
X003818Y006291D03*
X003621Y006291D03*
D11*
X003375Y006045D03*
X003375Y005848D03*
X003375Y005651D03*
X003375Y005455D03*
X003375Y005258D03*
X003375Y005061D03*
X004851Y005061D03*
X004851Y005258D03*
X004851Y005455D03*
X004851Y005651D03*
X004851Y005848D03*
X004851Y006045D03*
D12*
X005846Y006067D03*
X006516Y006067D03*
X006516Y005399D03*
X005847Y005399D03*
X002664Y005399D03*
X002665Y006065D03*
X001996Y006065D03*
X001994Y005399D03*
D13*
X000868Y001159D03*
X001868Y001159D03*
X002868Y001159D03*
X003868Y001159D03*
X004868Y001159D03*
X005868Y001159D03*
X006868Y001159D03*
X006868Y002159D03*
X005868Y002159D03*
X004868Y002159D03*
X003868Y002159D03*
X002868Y002159D03*
X001868Y002159D03*
X000868Y002159D03*
D14*
X002324Y004805D03*
X003643Y004214D03*
X005139Y004234D03*
X003978Y006990D03*
X003545Y006990D03*
X003092Y007049D03*
M02*
