%
M48
M72
T01C0.0400
%
T01
X700Y700
X700Y1700
X700Y2700
X700Y3700
X700Y4700
X700Y5700
X700Y6700
X700Y7700
X700Y8700
X700Y9700
X1700Y9700
X1700Y8700
X1700Y7700
X1700Y6700
X1700Y5700
X1700Y4700
X1700Y3700
X1700Y2700
X1700Y1700
X1700Y700
X2700Y700
X2700Y1700
X2700Y2700
X2700Y3700
X2700Y4700
X2700Y5700
X2700Y6700
X2700Y7700
X2700Y8700
X2700Y9700
X3700Y9700
X3700Y8700
X3700Y7700
X3700Y6700
X3700Y5700
X3700Y4700
X3700Y3700
X3700Y2700
X3700Y1700
X3700Y700
M30
