G75*
%MOIN*%
%OFA0B0*%
%FSLAX24Y24*%
%IPPOS*%
%LPD*%
%AMOC8*
5,1,8,0,0,1.08239X$1,22.5*
%
%ADD10OC8,0.0740*%
%ADD11C,0.0740*%
%ADD12C,0.0320*%
D10*
X001700Y000700D03*
X001700Y001700D03*
X001700Y002700D03*
X001700Y003700D03*
X001700Y004700D03*
X001700Y005700D03*
X001700Y006700D03*
X001700Y007700D03*
X001700Y008700D03*
X001700Y009700D03*
X002700Y009700D03*
X002700Y008700D03*
X002700Y007700D03*
X002700Y006700D03*
X002700Y005700D03*
X002700Y004700D03*
X002700Y003700D03*
X002700Y002700D03*
X002700Y001700D03*
X002700Y000700D03*
D11*
X000700Y000700D03*
X000700Y001700D03*
X000700Y002700D03*
X000700Y003700D03*
X000700Y004700D03*
X000700Y005700D03*
X000700Y006700D03*
X000700Y007700D03*
X000700Y008700D03*
X000700Y009700D03*
X003700Y009700D03*
X003700Y008700D03*
X003700Y007700D03*
X003700Y006700D03*
X003700Y005700D03*
X003700Y004700D03*
X003700Y003700D03*
X003700Y002700D03*
X003700Y001700D03*
X003700Y000700D03*
D12*
X002700Y000700D01*
X002700Y001700D02*
X003700Y001700D01*
X003700Y002700D02*
X002700Y002700D01*
X002700Y003700D02*
X003700Y003700D01*
X003700Y004700D02*
X002700Y004700D01*
X002700Y005700D02*
X003700Y005700D01*
X003700Y006700D02*
X002700Y006700D01*
X002700Y007700D02*
X003700Y007700D01*
X003700Y008700D02*
X002700Y008700D01*
X002700Y009700D02*
X003700Y009700D01*
X001700Y009700D02*
X000700Y009700D01*
X000700Y008700D02*
X001700Y008700D01*
X001700Y007700D02*
X000700Y007700D01*
X000700Y006700D02*
X001700Y006700D01*
X001700Y005700D02*
X000700Y005700D01*
X000700Y004700D02*
X001700Y004700D01*
X001700Y003700D02*
X000700Y003700D01*
X000700Y002700D02*
X001700Y002700D01*
X001700Y001700D02*
X000700Y001700D01*
X000700Y000700D02*
X001700Y000700D01*
M02*
