G75*
%MOIN*%
%OFA0B0*%
%FSLAX24Y24*%
%IPPOS*%
%LPD*%
%AMOC8*
5,1,8,0,0,1.08239X$1,22.5*
%
%ADD10C,0.0000*%
%ADD11C,0.0060*%
%ADD12C,0.0080*%
D10*
X000100Y000100D02*
X004300Y000100D01*
X004300Y010300D01*
X000100Y010300D01*
X000100Y000100D01*
D11*
X001200Y000450D02*
X001200Y000950D01*
X001450Y001200D01*
X002950Y001200D01*
X003200Y001450D01*
X003200Y001950D01*
X002950Y002200D01*
X001450Y002200D01*
X001200Y002450D01*
X001200Y002950D01*
X001450Y003200D01*
X002950Y003200D01*
X003200Y003450D01*
X003200Y003950D01*
X002950Y004200D01*
X001450Y004200D01*
X001200Y004450D01*
X001200Y004950D01*
X001450Y005200D01*
X002950Y005200D01*
X003200Y005450D01*
X003200Y005950D01*
X002950Y006200D01*
X001450Y006200D01*
X001200Y006450D01*
X001200Y006950D01*
X001450Y007200D01*
X002950Y007200D01*
X003200Y006950D01*
X003200Y006450D01*
X002950Y006200D01*
X002950Y005200D02*
X003200Y004950D01*
X003200Y004450D01*
X002950Y004200D01*
X002950Y003200D02*
X003200Y002950D01*
X003200Y002450D01*
X002950Y002200D01*
X002950Y001200D02*
X003200Y000950D01*
X003200Y000450D01*
X002950Y000200D01*
X001450Y000200D01*
X001200Y000450D01*
X001450Y001200D02*
X001200Y001450D01*
X001200Y001950D01*
X001450Y002200D01*
X001450Y003200D02*
X001200Y003450D01*
X001200Y003950D01*
X001450Y004200D01*
X001450Y005200D02*
X001200Y005450D01*
X001200Y005950D01*
X001450Y006200D01*
X001450Y007200D02*
X001200Y007450D01*
X001200Y007950D01*
X001450Y008200D01*
X002950Y008200D01*
X003200Y007950D01*
X003200Y007450D01*
X002950Y007200D01*
X002950Y008200D02*
X003200Y008450D01*
X003200Y008950D01*
X002950Y009200D01*
X003200Y009450D01*
X003200Y009950D01*
X002950Y010200D01*
X001450Y010200D01*
X001200Y009950D01*
X001200Y009450D01*
X001450Y009200D01*
X002950Y009200D01*
X001450Y009200D02*
X001200Y008950D01*
X001200Y008450D01*
X001450Y008200D01*
D12*
X001200Y007950D02*
X001200Y007450D01*
X000950Y007200D01*
X001200Y006950D01*
X001200Y006450D01*
X000950Y006200D01*
X001200Y005950D01*
X001200Y005450D01*
X000950Y005200D01*
X001200Y004950D01*
X001200Y004450D01*
X000950Y004200D01*
X001200Y003950D01*
X001200Y003450D01*
X000950Y003200D01*
X001200Y002950D01*
X001200Y002450D01*
X000950Y002200D01*
X001200Y001950D01*
X001200Y001450D01*
X000950Y001200D01*
X001200Y000950D01*
X001200Y000450D01*
X000950Y000200D01*
X000450Y000200D01*
X000200Y000450D01*
X000200Y000950D01*
X000450Y001200D01*
X000200Y001450D01*
X000200Y001950D01*
X000450Y002200D01*
X000200Y002450D01*
X000200Y002950D01*
X000450Y003200D01*
X000200Y003450D01*
X000200Y003950D01*
X000450Y004200D01*
X000200Y004450D01*
X000200Y004950D01*
X000450Y005200D01*
X000200Y005450D01*
X000200Y005950D01*
X000450Y006200D01*
X000200Y006450D01*
X000200Y006950D01*
X000450Y007200D01*
X000200Y007450D01*
X000200Y007950D01*
X000450Y008200D01*
X000200Y008450D01*
X000200Y008950D01*
X000450Y009200D01*
X000200Y009450D01*
X000200Y009950D01*
X000450Y010200D01*
X000950Y010200D01*
X001200Y009950D01*
X001200Y009450D01*
X000950Y009200D01*
X001200Y008950D01*
X001200Y008450D01*
X000950Y008200D01*
X001200Y007950D01*
X003200Y007950D02*
X003200Y007450D01*
X003450Y007200D01*
X003200Y006950D01*
X003200Y006450D01*
X003450Y006200D01*
X003200Y005950D01*
X003200Y005450D01*
X003450Y005200D01*
X003200Y004950D01*
X003200Y004450D01*
X003450Y004200D01*
X003200Y003950D01*
X003200Y003450D01*
X003450Y003200D01*
X003200Y002950D01*
X003200Y002450D01*
X003450Y002200D01*
X003200Y001950D01*
X003200Y001450D01*
X003450Y001200D01*
X003200Y000950D01*
X003200Y000450D01*
X003450Y000200D01*
X003950Y000200D01*
X004200Y000450D01*
X004200Y000950D01*
X003950Y001200D01*
X004200Y001450D01*
X004200Y001950D01*
X003950Y002200D01*
X004200Y002450D01*
X004200Y002950D01*
X003950Y003200D01*
X004200Y003450D01*
X004200Y003950D01*
X003950Y004200D01*
X004200Y004450D01*
X004200Y004950D01*
X003950Y005200D01*
X004200Y005450D01*
X004200Y005950D01*
X003950Y006200D01*
X004200Y006450D01*
X004200Y006950D01*
X003950Y007200D01*
X004200Y007450D01*
X004200Y007950D01*
X003950Y008200D01*
X004200Y008450D01*
X004200Y008950D01*
X003950Y009200D01*
X004200Y009450D01*
X004200Y009950D01*
X003950Y010200D01*
X003450Y010200D01*
X003200Y009950D01*
X003200Y009450D01*
X003450Y009200D01*
X003200Y008950D01*
X003200Y008450D01*
X003450Y008200D01*
X003200Y007950D01*
M02*
